rangeenf.sfdir
StartChar: numbersign
Encoding: 35 35 2
Width: 565
Flags: HW
LayerCount: 2
Fore
SplineSet
334 288 m 1
 357 434 l 1
 211 430 l 1
 188 285 l 1
 334 288 l 1
183 282 m 0
 183 283 l 2
 206 433 l 2
 206 434 207 435 208 435 c 2
 359 439 l 2
 360 439 362 437 362 436 c 0
 362 436 l 2
 339 285 l 2
 339 284 337 283 336 283 c 2
 185 280 l 2
 184 280 183 281 183 282 c 0
488 286 m 0
 387 284 l 0
 386 284 385 286 385 287 c 0
 385 287 l 2
 408 438 l 2
 408 439 409 440 410 440 c 2
 488 442 l 2
 500 442 510 452 510 464 c 0
 510 476 500 486 488 486 c 0
 465 486 441 486 418 485 c 0
 417 485 415 486 415 487 c 0
 415 488 l 2
 423 539 l 2
 423 540 423 541 423 542 c 0
 423 554 413 564 401 564 c 0
 390 564 381 555 379 545 c 2
 370 486 l 2
 369 482 221 481 216 481 c 0
 215 481 214 482 214 483 c 0
 214 483 l 2
 222 539 l 2
 222 540 222 541 222 542 c 0
 222 554 212 564 200 564 c 0
 189 564 180 555 178 545 c 2
 168 482 l 2
 168 481 167 479 166 479 c 2
 77 477 l 2
 65 477 55 467 55 455 c 0
 55 443 65 433 77 433 c 0
 158 434 l 0
 159 434 160 433 160 432 c 0
 160 431 l 2
 137 281 l 2
 137 280 136 279 135 279 c 2
 77 277 l 2
 65 277 55 267 55 255 c 0
 55 243 65 233 77 233 c 0
 94 233 110 234 127 234 c 0
 128 234 129 232 129 231 c 0
 129 231 l 2
 124 194 l 2
 124 193 124 192 124 191 c 0
 124 179 134 169 146 169 c 0
 157 169 166 178 168 188 c 2
 175 233 l 2
 176 237 324 238 329 238 c 0
 330 238 331 237 331 236 c 0
 331 235 l 2
 325 194 l 2
 325 193 325 192 325 191 c 0
 325 179 335 169 347 169 c 0
 358 169 367 178 369 188 c 2
 377 237 l 2
 377 238 378 239 379 239 c 2
 488 242 l 2
 500 242 510 252 510 264 c 0
 510 276 500 286 488 286 c 0
146 164 m 0
 131 164 119 176 119 191 c 0
 119 192 119 194 119 195 c 2
 124 229 l 1
 108 229 93 228 77 228 c 0
 62 228 50 240 50 255 c 0
 50 270 62 282 76 282 c 2
 132 284 l 1
 155 429 l 1
 129 428 103 428 77 428 c 0
 62 428 50 440 50 455 c 0
 50 470 62 482 76 482 c 2
 163 484 l 1
 173 546 l 2
 175 559 186 569 200 569 c 0
 215 569 227 557 227 542 c 0
 227 541 227 539 227 538 c 2
 219 486 l 1
 365 489 l 1
 374 546 l 2
 376 559 387 569 401 569 c 0
 416 569 428 557 428 542 c 0
 428 541 428 539 428 538 c 2
 421 490 l 1
 443 491 466 491 488 491 c 0
 503 491 515 479 515 464 c 0
 515 449 503 437 489 437 c 2
 412 435 l 1
 390 289 l 1
 487 291 l 2
 488 291 l 0
 503 291 515 279 515 264 c 0
 515 249 503 237 489 237 c 2
 381 234 l 1
 374 187 l 2
 372 174 361 164 347 164 c 0
 332 164 320 176 320 191 c 0
 320 192 320 194 320 195 c 2
 326 233 l 1
 180 230 l 1
 173 187 l 2
 171 174 160 164 146 164 c 0
EndSplineSet
EndChar
StartChar: plus
Encoding: 43 43 10
Width: 434
Flags: HW
LayerCount: 2
Fore
SplineSet
55 411 m 0
 55 399 65 389 77 389 c 2
 184 389 l 2
 185 389 187 387 187 386 c 2
 187 273 l 2
 187 261 197 251 209 251 c 0
 221 251 231 261 231 273 c 2
 231 386 l 2
 231 387 233 389 234 389 c 2
 357 389 l 2
 369 389 379 399 379 411 c 0
 379 423 369 433 357 433 c 2
 234 433 l 2
 233 433 231 435 231 436 c 2
 231 554 l 2
 231 566 221 576 209 576 c 0
 197 576 187 566 187 554 c 2
 187 436 l 2
 187 435 185 433 184 433 c 2
 77 433 l 2
 65 433 55 423 55 411 c 0
209 246 m 0
 194 246 182 258 182 273 c 2
 182 384 l 1
 77 384 l 2
 62 384 50 396 50 411 c 0
 50 426 62 438 77 438 c 2
 182 438 l 1
 182 554 l 2
 182 569 194 581 209 581 c 0
 224 581 236 569 236 554 c 2
 236 438 l 1
 357 438 l 2
 372 438 384 426 384 411 c 0
 384 396 372 384 357 384 c 2
 236 384 l 1
 236 273 l 2
 236 258 224 246 209 246 c 0
EndSplineSet
EndChar
StartChar: slash
Encoding: 47 47 15
Width: 386
Flags: HW
LayerCount: 2
Fore
SplineSet
55 107 m 0
 55 95 65 85 77 85 c 0
 86 85 95 90 98 98 c 2
 330 656 l 2
 331 659 331 662 331 665 c 0
 331 677 321 687 309 687 c 0
 300 687 291 682 288 674 c 2
 56 116 l 2
 55 113 55 110 55 107 c 0
309 692 m 0
 324 692 336 680 336 665 c 0
 336 661 335 657 334 654 c 2
 102 96 l 2
 98 87 88 80 77 80 c 0
 62 80 50 92 50 107 c 0
 50 111 51 115 52 118 c 2
 284 676 l 2
 288 685 298 692 309 692 c 0
EndSplineSet
EndChar
StartChar: four
Encoding: 52 52 20
Width: 474
Flags: HW
LayerCount: 2
Fore
SplineSet
123 27 m 1
 266 27 l 1
 266 300 l 1
 123 27 l 1
268 22 m 2
 118 22 l 2
 117 22 116 24 116 25 c 0
 116 26 l 2
 266 311 l 2
 266 312 267 312 268 312 c 0
 269 312 271 311 271 310 c 2
 271 25 l 2
 271 24 269 22 268 22 c 2
318 -206 m 0
 323 -206 330 -221 341 -221 c 0
 353 -221 363 -211 363 -199 c 0
 363 -187 353 -177 341 -177 c 0
 330 -177 323 -192 318 -192 c 0
 317 -192 315 -190 315 -189 c 2
 315 -25 l 2
 315 -24 317 -22 318 -22 c 2
 397 -22 l 2
 409 -22 419 -12 419 0 c 0
 419 12 409 22 397 22 c 2
 318 22 l 2
 317 22 315 24 315 25 c 2
 315 411 l 2
 315 423 305 433 293 433 c 0
 285 433 277 428 273 421 c 2
 57 10 l 2
 55 7 55 4 55 0 c 0
 55 -12 65 -22 77 -22 c 2
 268 -22 l 2
 269 -22 271 -24 271 -25 c 2
 271 -205 l 2
 271 -217 281 -227 293 -227 c 0
 307 -227 313 -206 318 -206 c 0
424 0 m 0
 424 -15 412 -27 397 -27 c 2
 320 -27 l 1
 320 -181 l 1
 325 -175 333 -172 341 -172 c 0
 356 -172 368 -184 368 -199 c 0
 368 -214 356 -226 341 -226 c 0
 332 -226 324 -222 319 -215 c 1
 315 -225 305 -232 293 -232 c 0
 278 -232 266 -220 266 -205 c 2
 266 -27 l 1
 77 -27 l 2
 62 -27 50 -15 50 0 c 0
 50 4 51 9 53 13 c 2
 269 424 l 2
 273 432 283 438 293 438 c 0
 308 438 320 426 320 411 c 2
 320 27 l 1
 397 27 l 2
 412 27 424 15 424 0 c 0
EndSplineSet
EndChar
StartChar: less
Encoding: 60 60 55
Width: 388
Flags: HW
LayerCount: 2
Fore
SplineSet
333 635 m 0
 333 647 323 657 311 657 c 0
 305 657 299 655 295 651 c 2
 61 427 l 2
 56 423 55 417 55 411 c 0
 55 405 57 400 61 396 c 2
 283 161 l 2
 287 156 293 154 299 154 c 0
 311 154 321 164 321 176 c 0
 321 182 319 187 315 191 c 2
 110 408 l 2
 110 408 110 409 110 410 c 0
 110 411 110 412 110 412 c 2
 327 619 l 2
 332 623 333 629 333 635 c 0
326 176 m 0
 326 161 314 149 299 149 c 0
 292 149 284 151 279 157 c 2
 57 392 l 2
 52 397 50 404 50 411 c 0
 50 418 52 426 58 431 c 2
 292 655 l 2
 297 660 304 662 311 662 c 0
 326 662 338 650 338 635 c 0
 338 628 336 620 330 615 c 2
 116 410 l 1
 319 195 l 2
 324 190 326 183 326 176 c 0
EndSplineSet
EndChar
StartChar: D
Encoding: 68 68 31
Width: 507
Flags: HW
LayerCount: 2
Fore
SplineSet
191 784 m 0
 123 784 55 744 55 678 c 0
 55 666 65 656 77 656 c 0
 102 656 107 703 120 716 c 0
 134 730 156 740 191 740 c 0
 255 740 309 712 327 660 c 2
 407 424 l 2
 407 423 l 0
 407 423 l 2
 396 292 l 2
 390 220 330 96 257 96 c 0
 250 96 190 98 190 103 c 0
 190 109 190 116 190 122 c 0
 190 211 165 313 165 401 c 0
 165 403 165 406 165 408 c 2
 165 676 l 2
 165 688 155 698 143 698 c 0
 131 698 121 688 121 676 c 2
 121 408 l 2
 121 406 120 403 120 401 c 0
 120 312 145 209 145 121 c 0
 145 82 64 92 64 29 c 0
 64 -6 108 -24 141 -24 c 0
 175 -24 174 56 187 56 c 0
 210 56 234 52 257 52 c 0
 359 52 433 197 440 284 c 2
 452 424 l 2
 452 425 452 425 452 426 c 0
 452 428 452 431 451 433 c 2
 369 674 l 2
 345 744 271 784 191 784 c 0
50 678 m 0
 50 747 121 789 191 789 c 0
 273 789 350 748 374 676 c 2
 456 435 l 2
 457 432 457 429 457 426 c 0
 457 425 457 425 457 424 c 2
 445 284 l 2
 437 192 364 47 257 47 c 0
 234 47 211 49 189 51 c 1
 184 26 173 -29 141 -29 c 0
 105 -29 59 -9 59 29 c 0
 59 89 140 90 140 121 c 0
 140 209 115 312 115 401 c 0
 115 403 116 406 116 408 c 2
 116 676 l 2
 116 691 128 703 143 703 c 0
 158 703 170 691 170 676 c 2
 170 408 l 2
 170 406 170 403 170 401 c 0
 170 313 195 211 195 122 c 0
 195 117 195 110 195 105 c 1
 214 104 239 101 257 101 c 0
 342 101 362 226 391 293 c 1
 402 423 l 1
 322 658 l 2
 305 707 254 735 191 735 c 0
 137 735 113 714 104 672 c 0
 101 660 90 651 77 651 c 0
 62 651 50 663 50 678 c 0
EndSplineSet
EndChar
StartChar: E
Encoding: 69 69 32
Width: 477
Flags: HW
LayerCount: 2
Fore
SplineSet
386 740 m 0
 386 762 329 786 302 786 c 0
 272 786 241 792 210 792 c 0
 122 792 57 678 57 594 c 0
 57 589 58 584 58 579 c 0
 58 559 55 540 55 520 c 0
 55 480 88 410 134 410 c 0
 135 410 137 410 138 410 c 0
 142 410 164 404 164 401 c 0
 164 390 107 347 98 338 c 0
 67 307 55 268 55 227 c 0
 55 212 55 198 55 183 c 0
 55 53 160 -20 282 -20 c 0
 334 -20 422 39 422 92 c 0
 422 104 412 114 400 114 c 0
 360 114 343 25 283 25 c 0
 183 25 100 79 100 186 c 0
 100 194 100 204 100 212 c 0
 100 217 100 223 100 228 c 0
 100 304 187 375 245 390 c 0
 254 392 262 402 262 412 c 0
 262 424 252 434 240 434 c 2
 212 434 l 2
 190 434 167 455 139 455 c 0
 138 455 l 0
 117 455 101 498 101 523 c 0
 101 541 103 560 103 578 c 0
 103 584 102 589 102 595 c 0
 103 650 149 747 212 747 c 0
 242 747 272 742 302 742 c 0
 319 742 339 718 364 718 c 0
 376 718 386 728 386 740 c 0
134 405 m 0
 84 405 50 478 50 520 c 0
 50 540 53 559 53 579 c 0
 53 584 52 589 52 594 c 0
 52 681 119 797 210 797 c 0
 241 797 272 791 302 791 c 0
 333 791 391 766 391 740 c 0
 391 725 379 713 364 713 c 0
 339 713 319 737 302 737 c 0
 272 737 242 742 212 742 c 0
 150 742 108 654 107 595 c 0
 108 589 108 584 108 578 c 0
 108 560 106 541 106 523 c 0
 106 485 121 477 139 460 c 1
 167 460 191 439 212 439 c 2
 240 439 l 2
 255 439 267 427 267 412 c 0
 267 355 105 323 105 228 c 0
 105 223 105 217 105 212 c 0
 105 204 105 194 105 186 c 0
 105 82 185 30 283 30 c 0
 343 30 356 119 400 119 c 0
 415 119 427 107 427 92 c 0
 427 36 338 -25 282 -25 c 0
 157 -25 50 51 50 183 c 0
 50 193 50 201 50 211 c 0
 50 216 50 222 50 227 c 0
 50 303 106 363 155 400 c 1
 150 401 142 404 138 405 c 0
 137 405 134 405 134 405 c 0
EndSplineSet
EndChar
StartChar: H
Encoding: 72 72 35
Width: 826
Flags: HW
LayerCount: 2
Fore
SplineSet
308 269 m 1
 304 210 222 140 222 75 c 0
 222 57 243 32 262 32 c 0
 299 32 336 92 336 125 c 0
 336 144 324 263 308 269 c 1
306 276 m 0
 324 276 340 147 340 125 c 0
 340 90 303 28 262 28 c 0
 240 28 218 55 218 75 c 0
 218 141 304 214 304 273 c 0
 304 274 305 276 306 276 c 0
542 515 m 0
 542 485 396 347 363 347 c 0
 356 347 354 516 354 534 c 0
 354 557 355 581 355 604 c 0
 355 615 354 628 354 643 c 0
 354 658 351 713 361 720 c 0
 376 731 387 750 387 772 c 0
 387 784 377 794 365 794 c 0
 338 794 334 752 319 752 c 0
 244 752 198 814 115 814 c 0
 91 814 55 805 55 782 c 2
 55 716 l 2
 55 715 55 713 55 712 c 2
 65 662 l 2
 67 652 76 644 87 644 c 0
 99 644 109 654 109 666 c 0
 109 667 109 669 109 670 c 2
 100 718 l 2
 99 718 l 2
 99 764 l 2
 99 768 112 770 115 770 c 0
 131 770 313 709 313 705 c 0
 313 684 309 663 309 643 c 0
 309 628 310 614 310 603 c 0
 310 580 309 556 309 533 c 0
 309 458 317 384 317 311 c 0
 317 310 317 309 316 309 c 0
 256 258 155 173 155 75 c 0
 155 21 215 -18 263 -18 c 0
 354 -18 366 91 366 178 c 0
 366 217 363 251 363 288 c 0
 363 289 363 290 364 290 c 0
 427 342 495 390 549 451 c 0
 549 452 550 452 551 452 c 0
 557 452 566 193 571 171 c 0
 591 73 651 38 736 1 c 0
 740 0 744 -2 749 -2 c 0
 761 -2 771 8 771 20 c 0
 771 53 670 81 654 97 c 0
 576 175 625 377 589 498 c 0
 589 499 589 501 589 502 c 0
 589 513 610 537 615 548 c 0
 634 589 645 634 645 686 c 0
 645 708 639 731 639 756 c 0
 639 758 639 760 639 762 c 0
 639 784 634 806 611 806 c 0
 548 806 536 660 536 605 c 0
 536 574 539 544 542 515 c 0
 542 515 l 0
365 355 m 1
 428 405 490 453 537 516 c 1
 534 545 531 574 531 605 c 0
 531 664 543 811 611 811 c 0
 637 811 644 787 644 762 c 0
 644 760 644 758 644 756 c 0
 644 731 650 708 650 686 c 0
 650 612 626 549 594 501 c 1
 606 373 585 122 689 80 c 0
 708 72 776 51 776 20 c 0
 776 5 764 -7 749 -7 c 0
 538 -7 573 254 549 444 c 1
 495 385 430 338 368 287 c 1
 370 250 371 217 371 178 c 0
 371 88 357 -23 263 -23 c 0
 212 -23 150 18 150 75 c 0
 150 175 252 261 312 312 c 1
 308 385 304 458 304 533 c 0
 304 556 304 580 305 603 c 0
 304 615 304 628 304 643 c 0
 304 662 305 683 307 703 c 1
 232 708 185 765 115 765 c 0
 111 765 108 764 104 762 c 1
 104 719 l 1
 114 671 l 2
 114 669 114 668 114 666 c 0
 114 651 102 639 87 639 c 0
 74 639 62 649 60 661 c 2
 50 711 l 2
 50 713 50 714 50 716 c 2
 50 782 l 2
 50 808 88 819 115 819 c 0
 199 819 245 757 319 757 c 0
 320 758 l 0
 327 775 340 799 365 799 c 0
 380 799 392 787 392 772 c 0
 392 748 381 728 365 716 c 1
 361 695 359 667 359 643 c 0
 359 627 360 615 360 604 c 0
 360 581 359 557 359 534 c 0
 359 475 362 415 365 355 c 1
548 649 m 0
 548 671 561 760 591 760 c 0
 620 760 628 686 628 663 c 0
 628 633 617 554 572 554 c 2
 567 554 l 2
 553 554 548 636 548 649 c 0
554 649 m 0
 554 620 557 585 569 560 c 1
 572 560 l 2
 610 560 624 632 624 663 c 0
 624 682 615 754 591 754 c 0
 567 754 554 667 554 649 c 0
EndSplineSet
EndChar
StartChar: J
Encoding: 74 74 37
Width: 420
Flags: HW
LayerCount: 2
Fore
SplineSet
243 238 m 1
 243 237 237 233 235 231 c 1
 235 235 236 237 236 239 c 0
 236 240 l 1
 236 239 l 1
 240 239 242 238 243 238 c 1
243 238 m 1
 243 238 l 1
 243 238 l 1
144 132 m 0
 144 79 150 33 158 26 c 1
 197 26 228 72 228 126 c 0
 228 165 228 200 229 221 c 1
 197 200 144 168 144 132 c 0
158 22 m 0
 140 22 140 101 140 132 c 0
 140 176 203 208 235 231 c 1
 234 213 232 172 232 126 c 0
 232 70 200 22 158 22 c 0
167 -20 m 0
 219 -20 269 29 269 84 c 0
 269 156 268 228 268 299 c 0
 268 321 337 387 340 395 c 2
 364 467 l 2
 365 469 365 472 365 474 c 0
 365 486 355 496 343 496 c 0
 333 496 325 489 322 481 c 2
 299 413 l 1
 299 413 280 377 270 377 c 0
 269 377 267 378 267 379 c 2
 267 382 l 2
 267 500 215 604 215 718 c 0
 215 724 215 730 215 736 c 0
 215 760 214 815 186 815 c 0
 168 815 162 802 162 784 c 0
 162 781 163 777 163 772 c 0
 163 764 159 759 159 748 c 0
 159 689 55 670 55 594 c 0
 55 532 95 459 161 459 c 0
 187 459 195 486 208 486 c 0
 218 486 223 393 223 382 c 0
 223 247 110 201 74 99 c 0
 72 93 71 87 71 80 c 0
 71 36 122 -20 167 -20 c 0
186 820 m 0
 219 820 220 764 220 736 c 0
 220 730 220 724 220 718 c 0
 220 606 271 502 272 386 c 1
 282 398 289 409 294 415 c 1
 317 483 l 2
 320 493 331 501 343 501 c 0
 358 501 370 489 370 474 c 0
 370 471 370 468 369 465 c 2
 345 393 l 2
 338 372 295 326 273 298 c 1
 274 227 274 155 274 84 c 0
 274 26 222 -25 167 -25 c 0
 119 -25 66 33 66 80 c 0
 66 124 99 157 123 191 c 0
 151 231 186 277 218 317 c 1
 218 339 218 360 218 382 c 0
 218 414 213 446 207 478 c 1
 199 470 186 454 161 454 c 0
 92 454 50 529 50 594 c 0
 50 672 154 690 154 748 c 0
 154 763 157 769 157 784 c 0
 157 804 164 820 186 820 c 0
200 592 m 0
 200 553 182 516 156 516 c 0
 130 516 111 551 111 592 c 0
 111 633 130 668 156 668 c 0
 182 668 200 633 200 592 c 0
156 520 m 0
 178 520 195 555 195 592 c 0
 195 633 176 664 156 664 c 0
 136 664 116 633 116 592 c 0
 116 551 136 520 156 520 c 0
EndSplineSet
EndChar
StartChar: N
Encoding: 78 78 41
Width: 660
Flags: HW
LayerCount: 2
Fore
SplineSet
111 -30 m 0
 190 -30 206 45 206 121 c 0
 206 138 205 155 205 172 c 0
 205 253 192 348 192 428 c 0
 192 541 208 639 271 719 c 0
 271 720 272 720 273 720 c 0
 274 720 276 719 276 718 c 0
 276 702 271 686 271 669 c 0
 271 628 285 584 285 538 c 0
 285 466 276 390 276 318 c 0
 276 206 316 124 347 40 c 0
 355 19 353 -4 377 -4 c 0
 388 -4 398 5 399 16 c 0
 424 285 510 510 585 737 c 0
 585 738 l 2
 601 759 l 2
 604 763 605 767 605 772 c 0
 605 784 595 794 583 794 c 0
 576 794 569 790 565 785 c 2
 547 761 l 2
 546 759 545 757 544 755 c 0
 477 553 402 355 367 123 c 0
 367 122 366 121 365 121 c 0
 333 121 321 285 321 320 c 0
 321 392 330 467 330 539 c 0
 330 583 316 627 316 669 c 0
 316 689 323 729 323 749 c 0
 323 771 316 792 292 792 c 0
 274 792 263 779 254 769 c 0
 167 674 147 557 147 430 c 0
 147 328 161 225 161 122 c 0
 161 76 158 15 115 15 c 0
 98 15 110 82 77 82 c 0
 65 82 55 72 55 60 c 0
 55 25 73 -30 111 -30 c 0
583 799 m 0
 598 799 610 787 610 772 c 0
 610 766 609 761 605 756 c 2
 590 735 l 1
 515 508 429 283 404 15 c 0
 403 1 391 -9 377 -9 c 0
 311 -9 271 248 271 318 c 0
 271 390 280 466 280 538 c 0
 280 584 266 628 266 669 c 0
 266 683 268 696 270 709 c 1
 213 632 197 537 197 428 c 0
 197 348 210 253 210 172 c 0
 210 155 211 138 211 121 c 0
 211 43 193 -35 111 -35 c 0
 70 -35 50 23 50 60 c 0
 50 75 62 87 77 87 c 0
 112 87 104 42 116 20 c 1
 153 23 156 78 156 122 c 0
 156 226 142 328 142 430 c 0
 142 545 163 735 274 792 c 0
 278 794 285 797 292 797 c 0
 319 797 328 773 328 749 c 0
 328 728 321 689 321 669 c 0
 321 627 335 583 335 539 c 0
 335 467 326 392 326 320 c 0
 326 243 339 192 364 132 c 1
 400 361 473 557 539 757 c 0
 540 760 541 762 543 764 c 2
 561 788 l 2
 566 795 574 799 583 799 c 0
EndSplineSet
EndChar
StartChar: P
Encoding: 80 80 43
Width: 686
Flags: HW
LayerCount: 2
Fore
SplineSet
283 620 m 0
 269 620 259 603 252 603 c 0
 251 603 250 604 250 605 c 2
 249 671 l 2
 249 683 239 693 227 693 c 0
 215 693 205 683 205 671 c 2
 207 395 l 2
 208 326 215 255 215 185 c 2
 215 171 l 2
 215 119 213 19 161 19 c 0
 141 19 108 62 106 80 c 2
 99 145 l 2
 98 156 88 165 77 165 c 0
 65 165 55 155 55 143 c 0
 55 142 55 142 55 141 c 2
 63 67 l 2
 67 31 116 -25 161 -25 c 0
 249 -25 260 86 260 169 c 2
 259 185 l 2
 259 257 252 326 251 396 c 2
 251 514 l 2
 251 515 252 516 253 516 c 0
 254 516 256 515 256 514 c 0
 270 458 310 400 379 400 c 0
 490 400 631 489 631 614 c 0
 631 789 504 878 335 878 c 0
 173 878 88 851 88 689 c 0
 88 654 96 526 139 526 c 0
 151 526 161 536 161 548 c 0
 161 592 133 641 133 690 c 0
 133 827 200 834 335 834 c 0
 483 834 587 764 587 614 c 0
 587 516 463 444 379 444 c 0
 320 444 293 517 293 570 c 0
 293 571 293 571 293 572 c 0
 293 583 305 586 305 598 c 0
 305 610 295 620 283 620 c 0
310 598 m 0
 310 587 298 580 298 572 c 0
 298 571 298 571 298 570 c 0
 298 520 323 449 379 449 c 0
 461 449 582 520 582 614 c 0
 582 761 481 829 335 829 c 0
 202 829 138 825 138 690 c 0
 138 641 166 592 166 548 c 0
 166 533 154 521 139 521 c 0
 91 521 83 651 83 689 c 0
 83 853 172 883 335 883 c 0
 506 883 636 791 636 614 c 0
 636 486 492 395 379 395 c 0
 313 395 274 445 256 496 c 1
 256 396 l 1
 259 326 264 257 264 185 c 2
 265 169 l 2
 265 84 253 -30 161 -30 c 0
 115 -30 62 31 58 66 c 2
 50 140 l 2
 50 141 50 142 50 143 c 0
 50 158 62 170 77 170 c 0
 91 170 103 159 104 146 c 2
 111 81 l 1
 124 66 136 24 161 24 c 0
 208 24 210 123 210 171 c 2
 210 185 l 2
 210 255 202 326 202 395 c 2
 200 671 l 2
 200 686 212 698 227 698 c 0
 242 698 254 686 254 671 c 2
 255 613 l 1
 262 621 272 625 283 625 c 0
 298 625 310 613 310 598 c 0
EndSplineSet
EndChar
StartChar: V
Encoding: 86 86 49
Width: 833
Flags: HW
LayerCount: 2
Fore
SplineSet
178 817 m 0
 110 817 55 742 55 683 c 0
 55 671 65 661 77 661 c 0
 115 661 109 771 172 771 c 0
 253 771 284 18 389 18 c 0
 460 18 458 430 479 517 c 0
 506 630 557 750 686 750 c 0
 704 750 733 682 733 663 c 0
 733 625 740 576 698 576 c 0
 633 576 679 654 623 654 c 0
 611 654 601 644 601 632 c 0
 601 583 638 532 698 532 c 0
 772 532 778 591 778 663 c 0
 778 704 735 795 698 795 c 0
 378 795 433 362 388 91 c 0
 388 90 386 89 385 89 c 0
 344 89 262 671 262 671 c 1
 257 707 229 817 178 817 c 0
171 766 m 1
 114 757 118 656 77 656 c 0
 62 656 50 668 50 683 c 0
 50 744 106 822 178 822 c 0
 233 822 262 711 267 672 c 0
 280 587 341 223 384 101 c 1
 423 375 381 800 698 800 c 0
 738 800 783 707 783 663 c 0
 783 590 775 527 698 527 c 0
 635 527 596 581 596 632 c 0
 596 647 608 659 623 659 c 0
 680 659 640 581 698 581 c 0
 735 581 728 629 728 663 c 0
 728 695 702 723 685 745 c 1
 415 730 484 302 434 68 c 0
 429 43 420 13 389 13 c 0
 287 13 219 609 212 664 c 0
 207 699 191 741 171 766 c 1
EndSplineSet
EndChar
StartChar: Y
Encoding: 89 89 52
Width: 744
Flags: HW
LayerCount: 2
Fore
SplineSet
647 769 m 0
 673 769 693 751 693 725 c 0
 693 706 694 685 694 666 c 0
 694 555 671 441 620 362 c 1
 631 297 646 230 651 163 c 2
 657 82 l 2
 657 81 657 81 657 80 c 2
 657 47 l 2
 657 -60 420 -17 377 26 c 0
 349 54 335 92 335 137 c 0
 335 172 361 212 398 212 c 0
 437 212 462 161 462 125 c 0
 462 96 444 71 416 71 c 0
 414 71 413 71 411 71 c 1
 429 49 458 35 498 35 c 0
 535 35 586 37 602 55 c 1
 602 79 l 1
 596 158 l 1
 588 209 581 260 573 310 c 1
 539 283 496 266 451 266 c 0
 300 266 255 427 255 551 c 0
 255 573 256 595 257 617 c 0
 257 623 256 629 256 634 c 0
 256 664 258 688 258 717 c 1
 251 711 213 662 188 662 c 0
 119 662 50 693 50 773 c 2
 50 779 l 2
 50 794 62 806 77 806 c 0
 92 806 105 794 105 779 c 2
 105 773 l 2
 105 730 134 719 177 717 c 1
 210 749 232 785 273 785 c 0
 308 785 313 751 313 717 c 0
 313 688 311 663 311 634 c 0
 311 628 312 623 312 617 c 0
 312 596 310 574 310 554 c 0
 310 475 334 323 422 323 c 0
 432 323 441 321 451 321 c 0
 493 321 535 344 562 376 c 1
 540 469 l 1
 523 501 522 554 522 598 c 0
 522 620 524 642 532 665 c 0
 532 668 532 672 532 675 c 0
 532 723 557 769 607 769 c 0
 612 769 617 769 623 768 c 0
 631 768 639 769 647 769 c 0
188 667 m 0
 221 667 243 724 260 724 c 0
 263 724 263 720 263 717 c 0
 263 688 261 664 261 634 c 0
 261 629 262 623 262 617 c 0
 262 595 260 573 260 551 c 0
 260 429 303 271 451 271 c 0
 496 271 539 289 573 317 c 0
 573 317 574 317 575 317 c 0
 582 317 600 174 601 158 c 2
 607 79 l 2
 607 54 l 2
 607 30 523 30 498 30 c 0
 466 30 401 47 401 76 c 0
 401 77 403 79 404 79 c 0
 407 79 416 76 416 76 c 0
 419 76 423 76 426 78 c 2
 438 84 l 2
 450 90 457 107 457 125 c 0
 457 158 434 207 398 207 c 0
 364 207 340 169 340 137 c 0
 340 44 407 -15 498 -15 c 0
 553 -15 652 -9 652 47 c 2
 652 80 l 2
 652 81 652 81 652 82 c 2
 646 163 l 2
 641 229 615 299 615 363 c 0
 615 371 629 392 634 400 c 0
 677 472 689 572 689 666 c 0
 689 685 688 706 688 725 c 0
 688 748 670 764 647 764 c 0
 639 764 631 763 623 763 c 0
 618 763 612 764 607 764 c 0
 560 764 537 720 537 675 c 0
 537 672 537 668 537 665 c 0
 537 642 527 620 527 598 c 0
 527 551 537 505 545 470 c 2
 567 376 l 2
 567 375 l 0
 567 340 476 316 451 316 c 0
 441 316 432 318 422 318 c 0
 330 318 305 473 305 554 c 0
 305 574 307 596 307 617 c 0
 307 623 306 628 306 634 c 0
 306 663 308 688 308 717 c 0
 308 748 304 780 273 780 c 0
 234 780 213 744 180 712 c 0
 180 712 179 712 178 712 c 0
 133 712 100 728 100 773 c 2
 100 779 l 2
 100 791 89 801 77 801 c 0
 65 801 55 791 55 779 c 2
 55 773 l 2
 55 696 121 667 188 667 c 0
576.5 623 m 0
 576.5 678.318360915 591.693435251 727.5 615 727.5 c 0
 638.306564749 727.5 653.5 678.318360915 653.5 623 c 0
 653.5 591.512834101 645.452244312 536.919579785 634.838821228 494.355618116 c 0
 630.120942598 475.435086677 624.913827969 458.92397057 619.563021586 447.769211147 c 0
 615.466344754 439.22891998 611.016145154 432.5 605 432.5 c 0
 598.792924131 432.5 595.193540651 439.595980761 592.354577738 448.053034068 c 0
 588.598214356 459.242953182 585.711315646 475.748274548 583.445148942 494.661579359 c 0
 578.349033951 537.193479611 576.5 591.792045528 576.5 623 c 0
581.5 623 m 0
 581.5 591.98573225 583.354669753 537.448495698 588.409446394 495.261603083 c 0
 590.654787083 476.522111064 593.552914368 460.197748608 597.095950166 449.643316045 c 0
 600.096506598 440.704888009 603.305841301 437.5 605 437.5 c 0
 606.885089414 437.5 610.80434569 441.07194879 615.052075857 449.927138965 c 0
 620.131778223 460.51673122 625.316033473 476.835298935 629.986967524 495.567564326 c 0
 640.498372972 537.722395524 648.5 592.264943677 648.5 623 c 0
 648.5 679.681639085 631.693435251 722.5 615 722.5 c 0
 598.306564749 722.5 581.5 679.681639085 581.5 623 c 0
EndSplineSet
EndChar
StartChar: bracketleft
Encoding: 91 91 60
Width: 256
Flags: HW
LayerCount: 2
Fore
SplineSet
201 -202 m 0
 201 -190 191 -180 179 -180 c 2
 102 -180 l 2
 101 -180 99 -178 99 -177 c 2
 99 793 l 2
 99 794 101 796 102 796 c 2
 179 796 l 2
 191 796 201 806 201 818 c 0
 201 830 191 840 179 840 c 2
 77 840 l 2
 65 840 55 830 55 818 c 2
 55 -202 l 2
 55 -214 65 -224 77 -224 c 2
 179 -224 l 2
 191 -224 201 -214 201 -202 c 0
206 818 m 0
 206 803 194 791 179 791 c 2
 104 791 l 1
 104 -175 l 1
 179 -175 l 2
 194 -175 206 -187 206 -202 c 0
 206 -217 194 -229 179 -229 c 2
 77 -229 l 2
 62 -229 50 -217 50 -202 c 2
 50 818 l 2
 50 833 62 845 77 845 c 2
 179 845 l 2
 194 845 206 833 206 818 c 0
EndSplineSet
EndChar
StartChar: underscore
Encoding: 95 95 64
Width: 698
Flags: HW
LayerCount: 2
Fore
SplineSet
77 -179 m 2
 65 -179 55 -189 55 -201 c 0
 55 -213 65 -223 77 -223 c 2
 621 -229 l 2
 633 -229 643 -219 643 -207 c 0
 643 -195 633 -185 621 -185 c 2
 77 -179 l 2
648 -207 m 0
 648 -222 636 -234 621 -234 c 2
 77 -228 l 2
 62 -228 50 -216 50 -201 c 0
 50 -186 62 -174 77 -174 c 2
 621 -180 l 2
 636 -180 648 -192 648 -207 c 0
EndSplineSet
EndChar
StartChar: b
Encoding: 98 98 67
Width: 576
Flags: HW
LayerCount: 2
Fore
SplineSet
253 507 m 0
 253 582 252 754 185 754 c 0
 142 754 129 676 121 644 c 2
 113 611 l 2
 113 610 112 608 112 607 c 2
 111 472 l 2
 111 471 l 2
 120 277 l 2
 121 255 160 236 186 236 c 0
 252 236 253 431 253 507 c 0
257 507 m 0
 257 429 251 232 186 232 c 0
 156 232 117 253 116 277 c 2
 107 471 l 2
 107 472 l 2
 108 607 l 2
 108 609 109 610 109 612 c 2
 117 645 l 2
 126 681 139 758 185 758 c 0
 256 758 257 585 257 507 c 0
381 -5 m 0
 477 -5 530 119 530 205 c 0
 530 212 530 220 530 227 c 0
 530 242 522 255 522 267 c 0
 522 272 535 280 537 285 c 2
 567 360 l 2
 568 362 569 364 569 366 c 2
 572 402 l 2
 572 403 572 403 572 404 c 0
 572 416 561 426 549 426 c 0
 537 426 528 417 527 406 c 2
 524 374 l 2
 524 373 l 2
 500 313 l 2
 500 312 499 311 498 311 c 0
 492 311 468 348 464 352 c 0
 435 381 400 393 345 393 c 0
 315 393 284 355 284 326 c 0
 284 270 339 237 400 237 c 0
 425 237 446 253 471 253 c 2
 477 253 l 2
 483 253 485 230 485 227 c 0
 485 221 485 216 485 210 c 0
 485 143 448 40 381 39 c 0
 309 39 177 53 177 128 c 0
 177 156 226 218 238 247 c 0
 269 324 285 407 285 490 c 0
 285 502 284 514 284 526 c 0
 284 530 284 533 284 537 c 0
 284 629 268 843 174 843 c 0
 85 843 68 621 68 527 c 0
 68 526 l 2
 74 340 l 2
 74 339 74 339 74 338 c 2
 89 230 l 2
 94 193 125 163 125 134 c 0
 125 81 5 51 5 2 c 0
 5 -10 15 -20 27 -20 c 0
 68 -20 122 84 145 84 c 0
 146 84 147 84 147 83 c 0
 181 15 284 -5 381 -5 c 0
381 44 m 0
 445 45 480 146 480 210 c 0
 480 216 480 221 480 227 c 0
 480 233 478 241 475 248 c 1
 472 248 l 1
 447 245 426 232 400 232 c 0
 336 232 279 268 279 326 c 0
 279 358 312 398 345 398 c 0
 425 398 463 368 497 319 c 1
 519 374 l 1
 522 406 l 2
 523 420 535 431 549 431 c 0
 564 431 577 419 577 404 c 0
 577 403 577 403 577 402 c 2
 574 366 l 2
 574 363 573 361 572 358 c 2
 542 283 l 2
 539 275 533 271 528 266 c 1
 532 254 535 241 535 227 c 0
 535 220 535 212 535 205 c 0
 535 117 481 -10 381 -10 c 0
 284 -10 179 10 145 77 c 1
 123 51 68 -25 27 -25 c 0
 12 -25 0 -13 0 2 c 0
 0 11 4 19 11 24 c 0
 52 55 88 93 119 135 c 1
 105 166 89 191 84 229 c 2
 69 337 l 2
 69 338 69 339 69 340 c 2
 63 526 l 2
 63 527 l 0
 63 625 80 848 174 848 c 0
 273 848 289 634 289 537 c 0
 289 533 289 530 289 526 c 0
 289 514 290 502 290 490 c 0
 290 362 252 234 182 128 c 1
 194 101 204 71 229 68 c 0
 278 62 329 44 381 44 c 0
EndSplineSet
EndChar
StartChar: k
Encoding: 107 107 76
Width: 478
Flags: HW
LayerCount: 2
Fore
SplineSet
29 61 m 0
 12 61 0 76 0 94 c 0
 0 98 1 102 3 106 c 0
 63 225 102 353 116 485 c 1
 104 548 87 619 87 685 c 0
 87 721 94 813 139 813 c 0
 179 813 176 757 176 718 c 0
 176 697 175 683 175 670 c 0
 176 647 177 626 177 603 c 0
 177 564 175 526 171 488 c 1
 179 448 185 409 185 374 c 0
 185 364 185 354 185 344 c 1
 212 382 257 429 317 429 c 0
 384 429 416 343 416 287 c 0
 416 281 415 276 415 271 c 0
 416 265 416 259 416 254 c 0
 416 183 361 124 290 124 c 0
 282 124 274 124 266 126 c 0
 262 126 257 126 253 126 c 0
 252 126 250 126 249 126 c 1
 278 65 283 29 369 29 c 0
 391 29 406 65 414 82 c 2
 427 108 l 2
 431 117 440 123 451 123 c 0
 466 123 479 111 479 96 c 0
 479 92 478 88 476 84 c 2
 462 56 l 2
 445 22 421 -25 369 -25 c 0
 268 -25 234 27 199 102 c 1
 200 79 201 62 201 44 c 0
 201 28 201 17 200 9 c 2
 200 8 l 2
 199 -10 192 -28 170 -28 c 0
 133 -28 139 20 139 59 c 0
 139 85 140 116 142 154 c 0
 141 168 138 183 138 196 c 0
 138 198 138 202 139 204 c 0
 137 232 135 261 133 289 c 1
 114 221 89 155 57 91 c 0
 57 90 57 89 57 88 c 0
 57 73 44 61 29 61 c 0
411 254 m 0
 411 259 410 265 410 271 c 0
 410 276 411 281 411 287 c 0
 411 341 381 424 317 424 c 0
 256 424 211 374 185 335 c 0
 185 334 184 334 183 334 c 0
 178 334 180 368 180 374 c 0
 180 409 166 448 166 488 c 0
 166 526 172 564 172 603 c 0
 172 645 171 673 171 718 c 0
 171 754 175 808 139 808 c 0
 99 808 92 718 92 685 c 0
 92 620 121 548 121 485 c 0
 121 358 64 216 7 104 c 0
 5 101 5 97 5 94 c 0
 5 79 15 66 29 66 c 0
 41 66 52 76 52 88 c 0
 52 89 52 91 52 92 c 0
 52 108 135 307 135 307 c 1
 139 307 144 215 144 204 c 0
 144 201 143 199 143 196 c 0
 143 183 147 168 147 154 c 0
 147 116 144 85 144 59 c 0
 144 24 138 -23 170 -23 c 0
 189 -23 194 -7 195 9 c 2
 195 9 l 2
 196 17 196 29 196 44 c 0
 196 65 195 85 194 114 c 0
 194 115 195 117 196 117 c 0
 206 117 246 25 253 18 c 0
 283 -12 325 -20 369 -20 c 0
 417 -20 442 26 458 58 c 2
 472 86 l 2
 474 89 474 93 474 96 c 0
 474 108 463 118 451 118 c 0
 443 118 434 113 431 106 c 2
 418 80 l 2
 409 62 393 24 369 24 c 0
 304 24 243 65 243 129 c 0
 243 133 250 131 253 131 c 0
 257 131 262 131 266 131 c 0
 274 131 282 129 290 129 c 0
 358 129 411 186 411 254 c 0
309 369 m 0
 325 369 333 338 333 324 c 0
 333 294 353 267 353 236 c 0
 353 231 353 226 352 221 c 0
 353 215 353 210 353 205 c 0
 353 177 333 164 306 164 c 0
 259 164 234 186 218 220 c 2
 203 253 l 2
 202 254 l 0
 203 255 l 2
 209 274 l 2
 220 308 264 369 309 369 c 0
346 221 m 0
 346 226 348 231 348 236 c 0
 348 266 328 293 328 324 c 0
 328 325 l 0
 322 337 324 364 309 364 c 0
 307 364 304 362 301 362 c 0
 263 362 228 301 213 272 c 1
 208 254 l 1
 222 222 l 1
 246 190 254 169 306 169 c 0
 331 169 348 180 348 205 c 0
 348 210 346 215 346 221 c 0
EndSplineSet
EndChar
StartChar: l
Encoding: 108 108 77
Width: 346
Flags: HW
LayerCount: 2
Fore
SplineSet
203 575 m 0
 203 597 201 618 201 640 c 0
 201 663 202 682 202 706 c 0
 202 724 202 742 200 759 c 1
 181 659 171 545 171 438 c 0
 171 410 172 381 174 353 c 1
 195 423 203 500 203 575 c 0
201 776 m 0
 208 776 207 717 207 706 c 0
 207 682 206 663 206 640 c 0
 206 618 208 597 208 575 c 0
 208 548 199 337 172 337 c 0
 165 337 166 427 166 438 c 0
 166 476 179 776 201 776 c 0
237 -31 m 0
 288 -31 342 53 342 92 c 0
 342 104 331 114 319 114 c 0
 278 114 282 14 240 14 c 0
 214 14 181 201 181 237 c 0
 182 238 l 0
 235 339 253 459 253 573 c 0
 253 595 251 617 251 638 c 0
 251 661 253 682 253 706 c 0
 253 763 251 847 195 847 c 0
 124 847 121 517 121 438 c 0
 121 371 134 310 134 247 c 0
 134 191 5 139 5 99 c 2
 5 93 l 2
 5 81 15 71 27 71 c 0
 62 71 123 176 143 176 c 0
 169 176 161 -31 237 -31 c 0
195 852 m 0
 255 852 258 766 258 706 c 0
 258 681 256 661 256 638 c 0
 256 617 258 595 258 573 c 0
 258 459 240 339 186 237 c 1
 196 170 208 64 241 19 c 1
 272 33 280 119 319 119 c 0
 334 119 347 107 347 92 c 0
 347 50 291 -36 237 -36 c 0
 167 -36 153 103 142 167 c 1
 123 143 62 66 27 66 c 0
 12 66 0 78 0 93 c 2
 0 99 l 2
 0 108 5 117 12 122 c 0
 61 154 100 197 129 248 c 1
 121 311 116 371 116 438 c 0
 116 522 118 852 195 852 c 0
EndSplineSet
EndChar
StartChar: m
Encoding: 109 109 78
Width: 694
Flags: HW
LayerCount: 2
Fore
SplineSet
225 -28 m 0
 285 -28 286 65 286 125 c 0
 286 141 286 155 286 170 c 0
 286 178 286 186 286 194 c 0
 286 217 282 240 282 263 c 0
 282 282 350 383 368 383 c 0
 389 383 400 327 400 308 c 0
 400 307 l 2
 384 239 l 2
 383 239 l 2
 371 181 l 2
 371 180 371 177 371 176 c 2
 369 46 l 2
 369 24 396 -30 423 -30 c 0
 464 -30 460 41 460 84 c 0
 460 134 452 170 452 213 c 0
 452 227 452 240 452 254 c 0
 452 270 446 288 446 305 c 0
 446 306 l 2
 457 338 l 2
 463 356 488 387 510 387 c 0
 516 387 531 350 532 343 c 2
 537 275 l 1
 541 195 506 -22 601 -22 c 0
 622 -22 645 -14 652 0 c 2
 674 46 l 2
 674 47 675 48 675 49 c 2
 689 89 l 2
 690 91 690 93 690 96 c 0
 690 108 679 118 667 118 c 0
 657 118 649 111 646 103 c 2
 633 65 l 2
 633 64 l 2
 614 26 l 2
 612 22 608 22 601 22 c 0
 588 22 593 73 592 87 c 2
 582 277 l 2
 582 278 l 2
 576 352 l 2
 574 380 547 432 513 432 c 0
 466 432 454 379 432 379 c 0
 418 379 401 428 371 428 c 0
 312 428 302 333 269 333 c 0
 254 333 244 428 201 428 c 0
 195 428 192 426 189 426 c 2
 181 426 l 2
 141 426 128 377 113 354 c 0
 69 287 5 181 5 90 c 2
 5 86 l 2
 5 74 15 64 27 64 c 0
 39 64 50 74 50 86 c 2
 50 88 l 2
 50 172 108 267 150 330 c 0
 156 339 174 382 184 382 c 2
 191 382 l 2
 192 382 194 382 195 382 c 0
 212 382 236 291 236 269 c 0
 236 204 193 144 193 72 c 0
 193 43 192 -28 225 -28 c 0
368 377 m 1
 336 359 304 296 287 263 c 1
 290 240 291 217 291 194 c 0
 291 186 291 178 291 170 c 0
 291 155 291 141 291 125 c 0
 291 62 289 -33 225 -33 c 0
 187 -33 188 39 188 72 c 0
 188 137 211 214 231 270 c 1
 224 308 212 352 194 377 c 0
 193 377 192 377 191 377 c 2
 185 377 l 1
 120 315 72 184 55 88 c 1
 55 86 l 2
 55 71 42 59 27 59 c 0
 12 59 0 71 0 86 c 2
 0 90 l 2
 0 197 75 293 118 373 c 0
 129 394 145 431 181 431 c 2
 189 431 l 2
 191 432 196 433 201 433 c 0
 239 433 264 370 270 341 c 1
 292 372 319 433 371 433 c 0
 399 433 422 405 432 386 c 1
 451 411 468 437 513 437 c 0
 550 437 579 382 581 352 c 2
 587 278 l 2
 587 277 l 2
 597 87 l 2
 597 79 596 27 601 27 c 0
 608 27 608 28 610 29 c 1
 628 67 l 1
 642 105 l 2
 646 115 655 123 667 123 c 0
 682 123 695 111 695 96 c 0
 695 93 694 90 693 87 c 2
 679 47 l 2
 679 46 678 45 678 44 c 2
 656 -2 l 2
 648 -18 625 -27 601 -27 c 0
 512 -27 536 190 532 274 c 1
 527 342 l 1
 521 355 516 371 509 382 c 1
 485 380 477 351 461 336 c 1
 451 305 l 1
 456 287 457 270 457 254 c 0
 457 240 457 227 457 213 c 0
 457 170 465 134 465 84 c 0
 465 37 469 -35 423 -35 c 0
 392 -35 364 21 364 46 c 2
 366 176 l 2
 366 178 367 180 367 182 c 2
 379 240 l 2
 379 241 l 2
 395 308 l 1
 390 334 389 364 368 377 c 1
EndSplineSet
EndChar
StartChar: n
Encoding: 110 110 79
Width: 532
Flags: HW
LayerCount: 2
Fore
SplineSet
427 -24 m 0
 474 -24 528 52 528 90 c 0
 528 102 517 112 505 112 c 0
 497 112 491 108 487 102 c 2
 469 74 l 2
 457 55 453 20 427 20 c 0
 405 20 446 309 446 322 c 0
 446 323 446 324 446 325 c 2
 438 381 l 2
 435 403 401 436 373 436 c 0
 312 436 287 396 262 360 c 0
 262 359 261 359 260 359 c 0
 243 359 238 430 197 430 c 0
 168 430 156 407 144 392 c 0
 71 303 47 207 6 100 c 0
 5 97 5 95 5 92 c 0
 5 80 15 70 27 70 c 0
 54 70 65 129 72 149 c 0
 102 234 131 324 194 382 c 0
 194 382 195 383 196 383 c 0
 202 383 219 341 220 334 c 2
 225 280 l 2
 225 280 l 0
 225 279 l 2
 213 248 l 2
 212 247 211 245 211 244 c 2
 204 200 l 2
 198 162 179 126 179 76 c 0
 179 71 179 65 179 60 c 0
 179 55 179 51 179 46 c 0
 179 24 182 -26 211 -26 c 0
 244 -26 253 15 256 41 c 2
 266 123 l 2
 266 124 266 124 266 125 c 2
 270 270 l 2
 271 318 322 390 372 391 c 0
 377 391 393 373 394 367 c 2
 401 322 l 2
 401 322 l 0
 401 285 387 245 385 209 c 2
 381 145 l 2
 381 145 l 2
 377 15 l 2
 377 14 l 0
 377 -6 405 -24 427 -24 c 0
260 367 m 1
 284 403 312 441 373 441 c 0
 404 441 440 406 443 382 c 2
 451 326 l 2
 451 325 451 323 451 322 c 0
 451 231 430 132 427 27 c 0
 428 26 l 0
 449 26 453 61 464 77 c 2
 482 105 l 2
 487 112 496 117 505 117 c 0
 520 117 533 105 533 90 c 0
 533 49 477 -29 427 -29 c 0
 401 -29 372 -9 372 14 c 0
 372 15 l 2
 376 145 l 2
 376 146 l 2
 380 210 l 2
 382 247 391 285 396 322 c 1
 389 366 l 1
 383 373 377 381 371 386 c 1
 329 385 317 350 298 324 c 1
 290 306 282 288 275 269 c 1
 271 125 l 2
 271 124 271 124 271 123 c 2
 261 40 l 1
 260 11 246 -31 211 -31 c 0
 179 -31 174 21 174 46 c 0
 174 51 174 55 174 60 c 0
 174 65 174 71 174 76 c 0
 174 124 185 167 199 202 c 1
 206 245 l 2
 206 247 207 248 208 250 c 2
 220 280 l 1
 215 334 l 1
 208 347 204 365 196 377 c 1
 123 298 94 190 53 82 c 0
 49 72 39 65 27 65 c 0
 12 65 0 77 0 92 c 0
 0 95 1 99 2 102 c 0
 45 215 72 331 158 417 c 0
 166 425 178 435 197 435 c 0
 236 435 249 394 260 367 c 1
EndSplineSet
EndChar
StartChar: w
Encoding: 119 119 88
Width: 683
Flags: HW
LayerCount: 2
Fore
SplineSet
421 322 m 4
 421 305 499 216 518 216 c 4
 520 216 522 216 522 222 c 4
 522 239 506 276 506 294 c 4
 506 315 471 352 455 352 c 4
 441 352 421 335 421 322 c 4
518 210 m 4
 495 210 416 302 416 322 c 4
 416 340 439 356 455 356 c 4
 475 356 512 319 512 294 c 4
 512 277 527 240 527 222 c 4
 527 216 525 210 518 210 c 4
439 423 m 4
 395 423 385 378 385 337 c 4
 385 333 385 330 385 326 c 4
 385 323 385 320 385 317 c 4
 385 237 460 185 514 153 c 4
 515 153 515 152 515 151 c 4
 515 88 485 11 423 11 c 4
 405 11 337 32 337 51 c 4
 337 78 354 116 354 149 c 4
 354 185 334 211 295 211 c 4
 254 211 245 169 245 131 c 6
 245 129 l 6
 245 98 278 70 278 45 c 4
 278 34 246 27 231 27 c 4
 156 27 150 142 150 214 c 4
 150 256 178 300 178 347 c 4
 178 380 179 422 147 422 c 4
 103 422 98 307 98 260 c 4
 98 245 102 232 102 220 c 4
 102 168 5 141 5 97 c 4
 5 85 15 75 27 75 c 4
 64 75 84 144 109 144 c 5
 128 83 142 -17 231 -17 c 4
 264 -17 291 12 311 12 c 4
 340 12 377 -33 423 -33 c 4
 511 -33 546 49 557 125 c 4
 557 126 559 127 560 127 c 4
 571 127 600 108 607 102 c 6
 643 74 l 6
 647 71 651 70 656 70 c 4
 668 70 679 80 679 92 c 4
 679 99 675 106 670 110 c 6
 633 139 l 6
 618 151 562 167 562 189 c 4
 562 257 518 423 439 423 c 4
27 70 m 4
 12 70 0 82 0 97 c 4
 0 106 4 114 11 119 c 4
 47 145 77 181 97 221 c 5
 94 233 93 246 93 260 c 4
 93 311 98 427 147 427 c 4
 183 427 183 384 183 347 c 4
 183 300 173 255 155 213 c 5
 166 143 153 32 231 32 c 4
 250 32 263 37 272 45 c 5
 253 69 240 98 240 129 c 6
 240 131 l 6
 240 171 251 216 295 216 c 4
 337 216 359 187 359 149 c 4
 359 117 354 79 343 52 c 5
 363 36 393 16 423 16 c 4
 486 16 504 91 510 150 c 5
 455 183 380 235 380 317 c 4
 380 320 380 323 380 326 c 4
 380 330 380 333 380 337 c 4
 380 381 391 428 439 428 c 4
 522 428 567 261 567 189 c 4
 567 186 567 184 567 181 c 4
 589 169 617 158 636 143 c 6
 673 114 l 6
 679 109 684 100 684 92 c 4
 684 77 671 65 656 65 c 4
 650 65 645 66 640 70 c 6
 604 98 l 5
 592 105 576 114 562 121 c 5
 550 45 513 -38 423 -38 c 4
 378 -38 339 -16 311 6 c 5
 291 -12 264 -22 231 -22 c 4
 141 -22 115 55 107 135 c 5
 92 116 57 70 27 70 c 4
297 60 m 4
 287 60 270 109 270 123 c 4
 270 152 283 194 299 194 c 4
 302 194 301 195 304 195 c 4
 307 195 319 149 319 125 c 4
 319 108 312 60 297 60 c 4
275 123 m 4
 275 111 293 65 297 65 c 4
 307 65 314 113 314 125 c 4
 314 152 304 181 302 189 c 5
 301 189 300 188 299 188 c 4
 290 188 275 153 275 123 c 4
EndSplineSet
EndChar
StartChar: bar
Encoding: 124 124 93
Width: 226
Flags: HW
LayerCount: 2
Fore
SplineSet
113 -22 m 0
 125 -22 135 -12 135 -0 c 2
 135 781 l 2
 135 793 125 803 113 803 c 0
 101 803 91 793 91 781 c 2
 91 0 l 2
 91 -12 101 -22 113 -22 c 0
113 808 m 0
 128 808 140 796 140 781 c 2
 140 -0 l 2
 140 -15 128 -27 113 -27 c 0
 98 -27 86 -15 86 0 c 2
 86 781 l 2
 86 796 98 808 113 808 c 0
EndSplineSet
EndChar
StartChar: braceright
Encoding: 125 125 94
Width: 306
Flags: HW
LayerCount: 2
Fore
SplineSet
192 686 m 0
 192 746 166 807 102 807 c 0
 90 807 80 797 80 785 c 0
 80 761 119 759 130 748 c 0
 141 737 147 715 147 687 c 0
 147 631 131 562 131 506 c 0
 131 466 179 445 179 422 c 0
 179 411 148 375 144 352 c 0
 135 298 150 50 95 50 c 0
 92 50 92 50 90 50 c 0
 78 50 68 40 68 28 c 0
 68 13 79 5 95 5 c 0
 238 5 141 385 209 385 c 0
 211 385 214 385 216 385 c 0
 228 385 238 395 238 407 c 0
 238 453 175 464 175 506 c 0
 175 562 192 630 192 686 c 0
63 28 m 0
 63 43 75 55 90 55 c 0
 93 55 92 55 95 55 c 0
 145 55 131 303 139 352 c 0
 143 378 152 406 173 422 c 1
 154 441 126 468 126 506 c 0
 126 562 142 631 142 687 c 0
 142 730 134 752 98 758 c 0
 85 760 75 771 75 785 c 0
 75 800 87 812 102 812 c 0
 168 812 197 748 197 686 c 0
 197 630 180 561 180 506 c 0
 180 465 243 455 243 407 c 0
 243 392 231 380 216 380 c 0
 214 380 211 380 209 380 c 0
 152 380 240 0 95 0 c 0
 76 0 63 10 63 28 c 0
EndSplineSet
EndChar
StartChar: uni0964
Encoding: 2404 2404 97
Width: 199
Flags: HW
HStem: 426.355 20G<77 117>
VStem: 64.6447 70.7107<91.6 411>
LayerCount: 2
Fore
SplineSet
97 448.855339059 m 0
 97.68989375 448.855339059 98.31489375 448.575285934 98.7674203125 448.122759372 c 2
 134.122759371 412.767420313 l 2
 134.570050496 412.320129188 134.848835909 411.70433235 134.85522677 411.023918639 c 2
 134.85522677 411.023918639 137.85522677 91.6239171132 137.855339059 91.5999984741 c 0
 137.855339059 90.9101047241 137.575285934 90.2851047241 137.122759372 89.8325781616 c 2
 101.767420313 54.4772391023 l 2
 101.31489375 54.0247125398 100.68989375 53.7446594148 100 53.7446594148 c 0
 99.31010625 53.7446594148 98.68510625 54.0247125398 98.2325796875 54.4772391023 c 2
 62.8772406282 89.8325781616 l 2
 62.4299495032 90.2798692866 62.1511640907 90.895666124 62.1447732293 91.576079835 c 2
 62.1447732293 91.576079835 59.1447732293 410.976081361 59.1446609407 411 c 0
 59.1446609407 411.68989375 59.4247140657 412.31489375 59.8772406282 412.767420313 c 2
 95.2325796875 448.122759372 l 2
 95.68510625 448.575285934 96.31010625 448.855339059 97 448.855339059 c 0
97 442.820498434 m 1
 64.1544016752 409.974900109 l 1
 67.13496236 92.6445376798 l 1
 100 59.7795000398 l 1
 132.845598325 92.6250983646 l 1
 129.86503764 409.955460794 l 1
 97 442.820498434 l 1
EndSplineSet
EndChar
StartChar: uni0985
Encoding: 2437 2437 102
Width: 1024
Flags: HW
HStem: 67.3 70.7107<136.894 337.767> 443.355 20G<-13 27> 691.408 58.2365<360.929 468.767> 736.654 70.7107<7 239.525> 736.654 70.7107<7.3125 239.525 870.603 974.166> 755.355 65<310.42 366.217 405.502 480.214>
VStem: 231.492 70.7107<603.868 658.177> 311.645 70.7107<603.624 657.843> 551.959 70.7107<363.943 584.999> 647.807 110.548<88.5342 173.168>
LayerCount: 2
Fore
SplineSet
250.144660941 785 m 0
 250.144660941 785.68989375 250.424714066 786.31489375 250.877240629 786.767420313 c 2
 286.232579687 822.122759372 l 2
 286.68510625 822.575285934 287.31010625 822.855339059 288 822.855339059 c 2
 818 822.855339059 l 2
 818.68989375 822.855339059 819.31489375 822.575285934 819.767420313 822.122759372 c 2
 855.122759372 786.767420313 l 2
 855.575285934 786.31489375 855.855339059 785.68989375 855.855339059 785 c 0
 855.855339059 784.31010625 855.575285934 783.68510625 855.122759372 783.232579687 c 2
 819.767420313 747.877240628 l 2
 819.31489375 747.424714066 818.68989375 747.144660941 818 747.144660941 c 2
 288 747.144660941 l 2
 287.31010625 747.144660941 286.68510625 747.424714066 286.232579687 747.877240628 c 2
 250.877240629 783.232579687 l 2
 250.424714066 783.68510625 250.144660941 784.31010625 250.144660941 785 c 0
256.179501566 785 m 1
 289.034840625 752.144660941 l 1
 816.965159375 752.144660941 l 1
 849.820498434 785 l 1
 816.965159375 817.855339059 l 1
 289.034840625 817.855339059 l 1
 256.179501566 785 l 1
621.151853498 209.815253827 m 0
 621.151853498 217.660126946 620.752069374 225.555648925 620.752069374 233.423938229 c 0
 620.752069374 243.030331871 621.355427128 252.507747798 624.186775942 261.619006134 c 1
 608.414908213 274.701357306 592.503815232 284.704408649 578.094359337 290.314005501 c 0
 577.768455319 290.440879838 577.475638793 290.634181523 577.232579687 290.877240628 c 2
 541.877240628 326.232579687 l 2
 541.424714066 326.68510625 541.144660941 327.31010625 541.144660941 328 c 0
 541.144660941 328.68989375 541.424714066 329.31489375 541.877240628 329.767420313 c 2
 577.232579687 365.122759372 l 2
 577.68510625 365.575285934 578.31010625 365.855339059 579 365.855339059 c 0
 579.319341009 365.855339059 579.624777758 365.795334343 579.90564066 365.6859945 c 0
 599.498673795 358.05843261 621.125845496 343.001846488 641.649416692 323.479159383 c 1
 653.082196634 375.904136156 657.795784268 427.957337581 669.220028324 480.611139851 c 0
 683.324068579 536.660828581 703.375417122 593.867289832 733.532923539 641.337948117 c 0
 761.710574295 685.692133499 791.778682342 713.133750093 825.41402712 746.76909487 c 0
 845.142567531 766.497635282 868.021583012 786.080512998 889.330722962 805.215769447 c 0
 889.742601607 805.585629681 890.277794106 805.820843769 890.866729096 805.851840347 c 2
 966.999815482 809.858844894 l 2
 967.689709232 809.858844894 968.31489375 809.575285934 968.767420312 809.122759372 c 2
 1004.12275937 773.767420313 l 2
 1004.57528593 773.31489375 1004.85533906 772.68989375 1004.85533906 772 c 0
 1004.85533906 771.31010625 1004.57528593 770.68510625 1004.12275937 770.232579687 c 2
 968.767420312 734.877240628 l 2
 968.344217982 734.454038298 967.770170912 734.181680706 967.133270904 734.148159653 c 2
 892.012136262 730.194415724 l 1
 877.517889921 717.191377514 862.213669995 703.879704139 848.113134624 690.86744981 c 0
 834.41202214 675.678888544 821.323113648 658.898625867 808.467076461 638.662051883 c 0
 778.743597052 591.87459159 758.827370564 535.218945042 744.798565574 479.468242494 c 0
 728.38349871 403.811973184 725.788890855 334.328732552 700.696396183 263.121548868 c 0
 700.682574716 263.084775364 700.668796167 263.047990876 700.655061089 263.011195974 c 0
 732.269679697 225.637469096 757.45446237 179.0690666 760.847471497 136.199597398 c 0
 760.852683425 136.13374652 760.855339059 136.067180941 760.855339059 136 c 0
 760.855339059 118.52794063 746.158730123 104.13455016 734.119267691 92.0235243991 c 0
 727.887214051 85.7544270355 722.220643532 79.9840970386 719.222977813 74.982378416 c 0
 718.621561079 72.4789542123 717.87790228 67.9877225956 716.122759372 66.2325796875 c 2
 680.767420313 30.8772406282 l 2
 680.31489375 30.4247140657 679.68989375 30.1446609407 679 30.1446609407 c 0
 678.31010625 30.1446609407 677.68510625 30.4247140657 677.232579687 30.8772406282 c 2
 641.877240628 66.2325796875 l 2
 641.424714066 66.68510625 641.144660941 67.31010625 641.144660941 68 c 0
 641.144660941 69.2812644606 642.073938201 73.6215347487 643.808824749 76.8322626781 c 0
 644.84382532 81.4020489981 645.307064754 86.2120694211 645.307065709 91.1407819423 c 0
 645.307065709 112.249695519 636.737938349 135.458461128 629.385321228 150.929134661 c 0
 621.333673644 167.870641219 621.143292064 187.519674748 621.143292064 204.380337156 c 2
 621.143292064 208.020648708 l 2
 621.148142514 208.618928504 621.151853498 209.217142265 621.151853498 209.815253827 c 0
625.752069374 233.423938229 m 0
 625.752069374 225.594042661 626.151853498 217.697403251 626.151853498 209.815253827 c 0
 626.151853498 209.204308471 626.149546851 208.592326066 626.144577264 207.979351292 c 2
 626.144577264 204.37840934 l 2
 626.144577264 187.531801482 626.47540306 168.701409715 633.904000654 153.070865339 c 0
 641.423297635 137.24947999 650.307065709 113.542794935 650.307065709 91.1407819423 c 0
 650.307065709 85.7646311496 649.791266849 80.4593539792 648.600759067 75.3560121799 c 0
 648.210315806 73.6823016497 646.857058449 70.8505657597 646.365930138 68.8135714284 c 1
 679 36.1795015657 l 1
 712.228442719 69.4079442848 l 2
 713.14099582 71.6902726336 713.873413234 74.0577501382 714.441905699 76.4947015469 c 0
 714.498679365 76.7380726946 714.591044531 76.9678313425 714.713205542 77.1781818348 c 0
 718.187752904 83.161046113 724.212600227 89.1486950094 730.573887911 95.5477945925 c 0
 742.824857434 107.871584657 755.797122429 121.309786837 755.855143004 135.901760422 c 0
 752.523353241 177.560533069 727.497344841 223.863368456 695.911880587 260.872946187 c 0
 695.539209359 261.309615566 695.314112972 261.875965699 695.314112972 262.494475038 c 0
 695.314112972 263.399040672 695.74351727 264.158052521 696.014281935 264.878451132 c 0
 720.864694082 335.398655901 723.56332446 405.180963962 739.912112544 480.531757506 c 0
 754.0161528 536.581446236 774.08609524 593.867289832 804.243601657 641.337948117 c 0
 817.277191908 661.854004731 830.580574101 678.903452489 844.477714591 694.300713761 c 0
 844.528996022 694.357530744 844.582846379 694.411985219 844.63908177 694.463893297 c 0
 859.035706343 707.752697526 874.57986776 721.259066487 889.330722962 734.505091329 c 0
 889.742601607 734.874951563 890.277794106 735.110165651 890.866729096 735.141162229 c 2
 965.911379083 739.090880649 l 1
 998.820498435 772 l 1
 966.020241175 804.800257259 l 1
 892.012130497 800.905093539 l 1
 870.979033218 782.036247246 848.282291628 762.567678129 828.948867745 743.234254245 c 0
 795.424405339 709.70979184 765.534403718 682.387159085 737.756398343 638.662051883 c 0
 708.032918934 591.87459159 688.098098549 535.139562697 674.069293558 479.388860149 c 0
 662.335124193 425.306626733 657.701613604 371.891043867 645.56359428 318.029717155 c 0
 645.312321936 316.914719606 644.315099225 316.080856759 643.124654291 316.080856759 c 0
 642.444068594 316.080856759 641.826637366 316.353403905 641.37564438 316.795214421 c 0
 620.788350672 336.963339353 598.929492833 352.547577458 579.603045335 360.423543769 c 1
 547.179501566 328 l 1
 580.396770257 294.782731309 l 1
 595.774283329 288.709428838 612.36644673 278.092721863 628.696039152 264.366506413 c 0
 629.241797576 263.907756585 629.588896572 263.220137609 629.588896572 262.452089052 c 0
 629.588896572 262.168798759 629.541675114 261.896450595 629.454680869 261.64249323 c 0
 626.440509636 252.84339418 625.752069374 243.391852724 625.752069374 233.423938229 c 0
7 734.144660941 m 2
 6.31010625 734.144660941 5.68510625001 734.424714066 5.23257968751 734.877240628 c 2
 -30.1227593718 770.232579687 l 2
 -30.5752859343 770.68510625 -30.8553390593 771.31010625 -30.8553390593 772 c 0
 -30.8553390593 772.68989375 -30.5752859343 773.31489375 -30.1227593718 773.767420313 c 2
 5.23257968751 809.122759372 l 2
 5.68510625001 809.575285934 6.31010625 809.855339059 7 809.855339059 c 2
 26.9985237319 809.855339059 l 1
 42.9295645717 809.864564388 l 2
 122.378709301 809.864564388 246.612020778 808.282761311 309.961139518 748.637515835 c 1
 326.452806961 758.86095616 345.999837193 764.618824478 366.21717898 764.618824482 c 0
 378.573491126 764.618824482 391.165595962 762.465319216 403.438071124 757.862677877 c 0
 404.127623343 757.872568322 404.815609098 757.877496471 405.502021954 757.877496471 c 0
 447.546356704 757.877496471 483.432309704 739.366981152 511.961234765 710.838056091 c 2
 547.316573825 675.482717031 l 2
 597.406601202 625.392689655 625.169789748 544.388812397 625.169789748 476.285530567 c 0
 625.169789748 472.104810966 625.403661526 467.667287031 624.830230501 463.644658326 c 0
 618.040965497 416.01784518 622.121802623 374.635581802 600.731797577 335.13699611 c 1
 590.96951319 287.051619457 568.050187857 239.540403349 533.241807948 204.732023524 c 2
 497.886468889 169.376684463 l 2
 479.229980488 150.720196063 457.147134938 135.718052578 431.871764945 126.301101757 c 0
 380.219031532 107.056625793 321.509185352 70.2539753384 259.275854557 70.1449026571 c 0
 242.791663882 66.5133801868 227.482818748 64.7999694706 213.267843509 64.7999693807 c 0
 171.133287575 64.7999693807 138.755442628 79.9165498077 114.365568895 104.30642354 c 2
 79.0102298363 139.661762599 l 2
 38.1684700152 180.50352242 19.7363269586 246.900706786 13.1575203343 311.745112688 c 0
 11.7986854737 325.138550782 -9.27867131389 386.969611549 -10.6499310452 390.982268044 c 2
 -30.5423051479 426.788541429 l 2
 -30.7417287969 427.147503997 -30.8553390593 427.560589146 -30.8553390593 428 c 0
 -30.8553390593 428.68989375 -30.5752859343 429.31489375 -30.1227593718 429.767420313 c 2
 5.23257968751 465.122759372 l 2
 5.68510625001 465.575285934 6.31010625 465.855339059 7 465.855339059 c 0
 7.68989375 465.855339059 8.31489374999 465.575285934 8.76742031249 465.122759372 c 2
 44.1227593718 429.767420313 l 2
 44.2870602715 429.603119413 44.428625177 429.416082519 44.5423051479 429.211458571 c 2
 64.5423051479 393.211458571 l 2
 64.7190058705 392.893397271 87.2450593337 327.999957554 88.8424796602 312.254887367 c 0
 94.3755815016 257.717545847 108.436237873 202.484547734 136.658802664 162.911116952 c 1
 157.258482678 148.788720092 182.438288513 140.510647658 213.267842918 140.510647454 c 0
 227.147139379 140.510647454 242.183598213 142.19340024 258.458023065 145.796325717 c 0
 258.632553398 145.834964243 258.813916079 145.855339059 259 145.855339059 c 0
 319.553061081 145.855339059 378.985773727 182.644536494 430.128235029 201.698898233 c 0
 446.811147279 207.914521176 462.074064844 216.638041367 475.859356076 227.306648245 c 1
 500.584946363 258.76285978 517.319885523 297.441157677 525.193951558 336.496002143 c 0
 525.243957513 336.74402843 525.330722375 336.97880923 525.4483085 337.1944069 c 0
 546.198085096 375.239741646 542.462468653 417.192371426 549.153873675 464.243697677 c 0
 549.357732493 468.201749153 549.459111053 472.219084663 549.459111438 476.285526765 c 0
 549.459111438 534.93401396 528.306516754 603.685516538 490.066225642 652.669579178 c 1
 465.85308668 671.060160943 437.52741954 682.166816727 405.502021958 682.166818352 c 0
 404.685504332 682.166818352 403.86649337 682.159587926 403 682.144660941 c 0
 402.687638846 682.144660941 402.388580781 682.20207127 402.112810957 682.306906777 c 0
 390.274471421 686.80732057 378.125817542 688.908146364 366.217178973 688.908146364 c 0
 365.96675209 688.908146364 365.716422425 688.905361771 365.466195283 688.905361771 c 1
 377.769485963 669.30658118 384.855339059 645.283028254 384.855339059 616 c 0
 384.855339059 601.152226856 379.292347622 586.767178216 369.638614271 577.113444866 c 2
 334.283275213 541.758105806 l 2
 327.179176566 534.65400716 317.818227234 530.144660941 307 530.144660941 c 0
 294.350652845 530.144660941 285.084363265 533.957132425 278.592573893 540.448921798 c 2
 243.237234833 575.804260857 l 2
 229.983269867 589.058225823 228.991678208 611.336400785 228.991678208 633.381378117 c 0
 228.991678208 659.47875985 239.603888834 682.114574944 256.289420317 698.800106426 c 2
 261.136336597 703.647022707 l 1
 195.962779806 732.860232843 105.847308379 734.153886695 42.931040035 734.153886695 c 2
 27 734.144660941 l 1
 7 734.144660941 l 2
358.428889864 691.273496846 m 0
 358.428889864 694.51154252 363.06875182 693.908146364 366.217178973 693.908146364 c 0
 378.573491123 693.908146364 391.165595961 691.754641098 403.438071125 687.151999759 c 0
 404.127623344 687.161890203 404.8156091 687.166818352 405.502021958 687.166818352 c 0
 438.849982994 687.166818352 468.34833222 675.518437856 493.350599042 656.452494934 c 0
 493.520926515 656.322608556 493.674103137 656.171356822 493.806115001 656.002753638 c 0
 532.98956932 605.95834912 554.459111438 536.170089142 554.459111438 476.285526765 c 0
 554.459111438 472.104808441 554.692983233 467.667285799 554.119552383 463.644658326 c 0
 547.329634505 416.013265265 551.412687809 374.638371226 530.021119418 335.136995793 c 1
 521.954513756 295.403959022 504.90611266 256.079806665 479.597892069 223.973442546 c 0
 479.471586992 223.81321015 479.32611195 223.668778687 479.164939602 223.543620818 c 0
 464.943464181 212.499979699 449.152348417 203.450079705 431.871764971 197.011779885 c 0
 380.220923758 177.768008906 321.505804586 140.964668585 259.275858289 140.855581212 c 0
 243.540408987 137.389008737 214.438305319 135.510192119 213.267842918 135.510647454 c 0
 181.328948738 135.523072379 154.97266586 144.185470433 133.462303254 159.041778116 c 0
 133.224257863 159.20618611 133.016069412 159.410801228 132.847585831 159.645775539 c 0
 103.644098754 200.374190819 89.4650345602 256.579570654 83.8681984584 311.745112633 c 0
 82.5093636059 325.138550648 61.4320069178 386.969611213 60.060747073 390.982268044 c 2
 40.338892927 426.481605507 l 1
 7 459.820498434 l 1
 -25.2543254322 427.566173002 l 1
 -6.16837297072 393.211458571 l 2
 -5.99167222174 392.893397223 16.5343812224 327.999957482 18.1318015471 312.254887312 c 0
 24.6622655896 247.886972996 43.076105236 182.66556845 82.5450704613 143.196603225 c 2
 117.900409521 107.841264164 l 2
 141.410244952 84.3314287331 172.393756709 69.7999693807 213.267843509 69.7999693807 c 0
 227.147139779 69.7999693807 242.183598429 71.4827221693 258.458023065 75.0856475987 c 0
 258.632553398 75.1242861245 258.813916079 75.1446609407 259 75.1446609407 c 0
 319.556617699 75.1446609407 378.983879571 111.933152662 430.128235055 130.988220125 c 0
 454.66966075 140.131722234 476.144288106 154.704184931 494.351628264 172.911525089 c 2
 529.706967322 208.266864148 l 2
 563.765609326 242.325506151 586.35313939 289.121231045 595.904629676 336.496002143 c 0
 595.954635631 336.74402843 596.041400493 336.97880923 596.158986618 337.1944069 c 0
 616.907077829 375.236651442 613.173800767 417.196905937 619.864551797 464.243697658 c 0
 620.068410744 468.201750381 620.169789367 472.219087168 620.169789748 476.285530567 c 0
 620.169789748 543.152319589 592.670058904 623.059550703 543.7817332 671.947876406 c 2
 508.426394141 707.303215465 l 2
 480.615075116 735.11453449 445.996592418 752.877496471 405.502021954 752.877496471 c 0
 404.68550433 752.877496471 403.86649337 752.870266045 403 752.855339059 c 0
 402.687638846 752.855339059 402.388580781 752.912749388 402.112810957 753.017584895 c 0
 390.274471423 757.517998688 378.125817546 759.618824482 366.21717898 759.618824482 c 0
 346.308311954 759.618824482 327.028500864 753.739326685 311.002096407 743.379236639 c 0
 310.611668806 743.12684908 310.146554258 742.9802919 309.647479565 742.9802919 c 0
 308.971543983 742.9802919 308.35790281 743.249127401 307.907737187 743.685617263 c 0
 247.148498016 802.599027156 123.203607668 804.864564388 42.9295645717 804.864564388 c 2
 27.0014762681 804.855339486 l 1
 8.03484064711 804.855339486 l 1
 -24.8204984343 772 l 1
 8.03484062499 739.144660941 l 1
 27 739.144660941 l 1
 42.9280874992 739.153885841 l 2
 106.948774517 739.153885841 199.659283082 738.023927467 266.50494668 706.686779364 c 0
 267.355980643 706.287815902 267.945978429 705.423176883 267.945978429 704.421823914 c 0
 267.945978429 703.731930164 267.665925304 703.106930164 267.213398741 702.654403602 c 2
 259.824260942 695.265265801 l 2
 243.998310394 679.439315254 233.991678208 658.077626074 233.991678208 633.381378117 c 0
 233.991678208 631.605873424 234.144660941 629.808584074 234.144660941 628 c 0
 234.144660941 608.445827195 236.451277948 589.659898992 246.772075459 579.339101482 c 2
 282.127414518 543.983762423 l 2
 287.564737165 538.546439775 295.362059377 535.144660941 307 535.144660941 c 0
 316.374629232 535.144660941 324.455215006 538.99972685 330.748434588 545.292946432 c 2
 366.103773646 580.648285491 l 2
 374.676983128 589.221494972 379.855339059 602.378987272 379.855339059 616 c 0
 379.855339059 646.312762658 372.086293755 670.476293648 358.862023598 689.867395613 c 0
 358.588730215 690.268133029 358.428889864 690.75229588 358.428889864 691.273496846 c 0
299.702356327 633.381378117 m 0
 299.702356327 642.454417985 300.983813054 651.113412142 303.359859885 659.249796671 c 0
 303.663266167 660.288761956 304.623610732 661.048670907 305.760040965 661.048670907 c 0
 306.889532681 661.048670907 307.84508236 660.298012934 308.154591312 659.268795678 c 0
 312.051352986 646.31080421 314.144660941 631.934055669 314.144660941 616 c 0
 314.144660941 612.255613219 314.250370244 601.356519294 310.485124904 601.013023672 c 0
 309.34079271 600.908628589 308.178664936 600.855339059 307 600.855339059 c 0
 304.387907532 600.855339059 302.014390691 600.704125709 301.618681513 603.00076847 c 0
 299.959543019 612.630184765 299.702356327 623.064544154 299.702356327 633.381378117 c 0
304.702356327 633.381378117 m 0
 304.702356327 623.896277766 304.936085415 614.456874608 306.22334576 605.860528315 c 0
 306.480334865 605.857074831 306.739215565 605.855339059 307 605.855339059 c 0
 307.400492893 605.855339059 307.798508044 605.862411597 308.194020283 605.876428663 c 0
 308.819509828 609.181620094 309.144660941 612.579466368 309.144660941 616 c 0
 309.144660941 627.520216905 308.019927906 638.152305276 305.9020666 647.970159886 c 1
 305.114149207 643.257499169 304.702356327 638.388718294 304.702356327 633.381378117 c 0
EndSplineSet
EndChar
StartChar: uni0986
Encoding: 2438 2438 103
Width: 1024
Flags: HW
HStem: 56.6447 70.7107<228.91 484.525 918.231 925.313> 721.645 70.7107<668.186 967.629> 744.33 70.7107<164.365 317.095 415 789.88> 744.33 11.0251<368.323 442.478>
VStem: 239.645 70.7107<564.523 616.272> 319.645 70.7107<564.771 615.158> 609.451 116.904<113.566 254.389> 843.645 70.7107<127.939 259.424 608.32 720.652> 923.453 70.7107<128.344 278.355> 935.163 70.7107<632.118 697.425>
LayerCount: 2
Fore
SplineSet
906 719.144660941 m 2
 798.339651943 719.144660941 689.623686008 741.145362659 581.940240476 741.145362659 c 0
 560.796829473 741.642386871 539.448959161 741.830275097 517.969213177 741.830275097 c 0
 451.384801989 741.830275097 383.712972237 740.033173903 317.095107922 740.033173903 c 0
 264.439058253 740.033173903 212.327147617 741.150083376 161.800235926 745.1525417 c 0
 161.189918462 745.200887624 160.641002632 745.468817684 160.232579687 745.877240628 c 2
 124.877240628 781.232579687 l 2
 124.424714066 781.68510625 124.144660941 782.31010625 124.144660941 783 c 0
 124.144660941 783.68989375 124.424714066 784.31489375 124.877240628 784.767420313 c 2
 160.232579687 820.122759372 l 2
 160.68510625 820.575285934 161.31010625 820.855339059 162 820.855339059 c 0
 162.067237622 820.855339059 162.133858844 820.852678942 162.199764074 820.8474583 c 0
 212.529055105 816.860654377 264.511278223 815.743852021 317.095107922 815.743852021 c 0
 383.695183871 815.743852021 451.362976757 817.540953216 517.969213177 817.540953216 c 0
 539.478693115 817.540953216 560.806418305 817.353542648 582 816.855339059 c 0
 689.839016566 816.855339059 798.493832919 794.855339059 906 794.855339059 c 2
 943.765634042 794.855339059 l 1
 975.537177073 800.812503377 l 2
 975.687179336 800.840628802 975.841885342 800.855339059 976 800.855339059 c 0
 976.68989375 800.855339059 977.31489375 800.575285934 977.767420312 800.122759372 c 2
 1013.12275937 764.767420313 l 2
 1013.57528593 764.31489375 1013.85533906 763.68989375 1013.85533906 763 c 0
 1013.85533906 762.31010625 1013.57528593 761.68510625 1013.12275937 761.232579687 c 2
 977.767420312 725.877240628 l 2
 977.418606942 725.528427258 976.967318008 725.28208945 976.462822927 725.187496623 c 2
 944.462822927 719.187496623 l 2
 944.312820664 719.159371198 944.158114658 719.144660941 944 719.144660941 c 2
 906 719.144660941 l 2
317.095107922 745.033173903 m 0
 383.693533325 745.033173903 451.364626246 746.830275097 517.969213177 746.830275097 c 0
 539.478693115 746.830275097 560.866177829 746.642162811 582.059759524 746.143959223 c 0
 689.860645469 746.143959223 798.52626255 724.144660941 906 724.144660941 c 2
 943.765634042 724.144660941 l 1
 974.780434452 729.959936018 l 1
 1007.82049843 763 l 1
 975.165560415 795.65493802 l 1
 944.462822927 789.898174741 l 2
 944.312820664 789.870049316 944.158114658 789.855339059 944 789.855339059 c 2
 906 789.855339059 l 2
 798.339401872 789.855339059 689.677989612 811.855339059 582 811.855339059 c 0
 560.856588997 812.352363272 539.448959161 812.540953216 517.969213177 812.540953216 c 0
 451.383152823 812.540953216 383.714623134 810.743852021 317.095107922 810.743852021 c 0
 264.839064189 810.743852021 213.118923698 811.843856564 162.952005173 815.772503607 c 1
 130.179501566 783 l 1
 163.114881695 750.064619871 l 1
 213.159066802 746.136482372 264.829918559 745.033173903 317.095107922 745.033173903 c 0
996.66402286 233.831133212 m 0
 996.66402286 212.032080461 998.867700265 188.334054557 998.867700265 165.972882389 c 0
 998.867700265 136.949824873 996.568754531 107.72383847 984.151060503 95.3061444411 c 2
 948.795721443 59.9508053818 l 2
 945.138416028 56.2934999659 940.49003866 54.1446609407 935 54.1446609407 c 0
 917.103610746 54.1446609407 908.833824661 57.289379257 903.39525358 62.7279503384 c 2
 868.03991452 98.0832893976 l 2
 865.543179285 100.580024632 863.775836645 103.389136651 861.93008362 106.179736696 c 2
 845.877240628 122.232579687 l 2
 845.447933589 122.661886727 845.173854558 123.246421775 845.146858382 123.894329985 c 2
 841.142459287 219.999908264 l 2
 841.142459287 220.153306522 841.158506703 220.303588184 841.185015607 220.449387159 c 2
 857.185015607 308.449387159 l 2
 857.194704736 308.502677364 857.206085579 308.555380966 857.219100393 308.607440219 c 0
 866.569213489 346.007892608 875.590535486 383.871771474 885.724023942 420.506131617 c 0
 888.862348859 431.851733318 891.955133419 443.034622138 894.634853223 454.179638668 c 1
 877.923067692 515.650838764 856.626616412 577.104571431 841.217611871 639.39854549 c 0
 841.169951056 639.591223839 841.144660941 639.792681814 841.144660941 640 c 2
 841.144660941 672 l 2
 841.144660941 680.998693329 837.286887105 702.818853226 831.309260863 723.071811287 c 1
 827.941183725 718.650040668 824.30989807 714.411162964 820.355270884 710.429850452 c 1
 776.687652175 627.064396555 l 1
 732.788822077 475.41389258 l 1
 712.810351213 371.525844085 l 2
 712.797556411 371.459311118 712.782120448 371.39371292 712.764156872 371.32916304 c 0
 704.408413538 341.303836272 696.724918457 310.176572493 692.000590579 278.141031602 c 1
 720.709712982 246.172526585 728.855338404 176.425825329 728.855339059 144 c 0
 728.855339059 140.045550747 724.487260502 134.304985154 719.302421317 127.5415093 c 0
 712.734398859 118.973710045 704.130222716 109.126053311 698.229124953 103.224955548 c 2
 662.873787578 67.869618173 l 2
 659.936624974 64.9324555691 657.88563774 62.1446609407 655 62.1446609407 c 0
 654.31010625 62.1446609407 653.68510625 62.4247140657 653.232579687 62.8772406282 c 2
 617.877240628 98.2325796875 l 2
 617.613452497 98.4963678188 617.408270702 98.8187622859 617.283004278 99.1784540527 c 0
 609.461044033 121.63854043 606.950907704 144.819858608 606.950907704 168.055443182 c 0
 606.950907704 197.167342298 610.497057587 226.825873399 613.37484776 254.685798034 c 1
 613.141015777 254.689644023 612.908896661 254.691679736 612.678623747 254.691679736 c 0
 610.603824497 254.691679736 608.789344763 254.144660941 607 254.144660941 c 0
 606.31010625 254.144660941 605.68510625 254.424714066 605.232579687 254.877240628 c 2
 569.877240628 290.232579687 l 2
 569.424714066 290.68510625 569.144660941 291.31010625 569.144660941 292 c 0
 569.144660941 292.68989375 569.424714066 293.31489375 569.877240628 293.767420313 c 2
 605.232579687 329.122759372 l 2
 606.5675407 330.457720384 610.462231844 330.402357854 612.678623747 330.402357854 c 0
 616.195180459 330.402357854 619.680064168 329.996406426 623.053405897 329.855306121 c 0
 624.101551025 329.855306121 625.136669705 329.814577157 626.158572612 329.738036057 c 0
 629.545688411 344.265192628 633.30716446 358.550067801 637.208741701 372.573439066 c 1
 657.189648787 476.474155915 l 2
 657.204077883 476.549187212 657.221865949 476.623029691 657.24285013 476.695520498 c 2
 701.24285013 628.695520498 l 2
 701.289533522 628.856790398 701.352035336 629.011370512 701.428562437 629.157467703 c 2
 745.428562437 713.157467703 l 2
 745.546830342 713.383251887 745.698595951 713.588775635 745.877240628 713.767420313 c 0
 753.131185664 721.021365348 759.286227456 729.573055158 765.078529313 738.113763873 c 0
 770.091227828 745.504952891 774.980139757 752.748172925 780.795329417 758.563362586 c 2
 816.150668477 793.918701645 l 2
 823.1766945 800.944727667 831.675938928 805.855339059 843 805.855339059 c 0
 846.420294733 805.855339059 849.435076513 804.010472738 852.065604506 801.379944744 c 2
 887.420943567 766.024605684 l 2
 904.009362354 749.436186897 916.855339059 690.104337131 916.855339059 672 c 2
 916.855339059 640.306722803 l 1
 918.893513357 632.077433177 921.037762506 623.855810957 923.263868937 615.637844741 c 1
 925.907015312 621.564899461 929.140317931 627.258713305 933.043654039 632.675084962 c 0
 932.785399206 634.950104192 932.663266212 637.182414751 932.663266212 639.374226866 c 0
 932.663266212 657.960869695 941.388668474 673.333316971 949.619630877 687.985661541 c 0
 957.631830695 702.248575981 965.152550061 715.819361244 965.152550061 731.115349106 c 0
 965.152550061 731.986207845 965.128696976 732.889199895 965.128696976 733.778291309 c 0
 965.128696976 758.738735848 974.543645528 774.172944543 985.32674837 784.956047384 c 2
 1020.68208743 820.311386444 l 2
 1027.7345815 827.363880518 1034.19559144 831.51654439 1041.44063568 837.308926457 c 0
 1041.86827528 837.650822504 1042.41044241 837.855339059 1043 837.855339059 c 0
 1043.68989375 837.855339059 1044.31489375 837.575285934 1044.76742031 837.122759372 c 2
 1080.12275937 801.767420313 l 2
 1080.57528593 801.31489375 1080.85533906 800.68989375 1080.85533906 800 c 0
 1080.85533906 799.31010625 1080.57528593 798.68510625 1080.12275937 798.232579687 c 2
 1048.24882819 766.358648506 l 1
 1043.81477248 758.029436023 1040.83937509 747.563521204 1040.83937509 733.778291309 c 0
 1040.83937509 732.9091043 1040.86322818 732.005881928 1040.86322818 731.115349106 c 0
 1040.86322818 697.094251561 1008.37394433 673.215147989 1008.37394433 639.374226866 c 0
 1008.37394433 636.978098031 1008.85533906 634.504783693 1008.85533906 632 c 0
 1008.85533906 631.446021456 1008.67476229 630.933886059 1008.36930967 630.519294743 c 0
 993.884281169 610.858742686 988.793665502 587.18275099 988.793665502 561.078777415 c 0
 988.793665502 559.415563571 988.815085535 557.681900116 988.855339059 556 c 0
 988.855339059 535.682092515 979.427110144 507.561402213 976.83426337 487.674212159 c 0
 975.36834293 476.430570621 973.138604063 465.332306689 970.506103765 454.257975589 c 1
 986.223504886 396.233598159 998.226406373 337.093236842 998.226406373 275.47368276 c 0
 998.226406373 263.6757649 997.786181418 251.78828707 996.847636662 239.802500572 c 0
 996.721779572 238.195229095 996.66402286 236.176506342 996.66402286 233.831133212 c 0
623 324.855339059 m 0
 619.653343024 324.855339059 615.989643843 325.402357854 612.678623747 325.402357854 c 0
 611.099115883 325.402357854 609.607304901 325.304786412 608.235167764 325.055666198 c 2
 575.179501566 292 l 1
 607.830482873 259.349018693 l 1
 609.43822611 259.605546881 611.062354839 259.691679736 612.678623747 259.691679736 c 0
 615.464706609 259.691679736 618.633922248 259.889443673 618.633922248 257.078631411 c 0
 618.633922248 252.808567033 617.744705333 248.372618536 617.291847708 244.07286081 c 0
 614.673951182 219.216658374 611.950907704 193.313973773 611.950907704 168.055443182 c 0
 611.950907704 145.370181104 614.385784071 122.958815982 621.820099061 101.359402505 c 1
 655.371843526 67.80765804 l 1
 656.278933751 68.5508754441 657.739097673 69.8046095181 659.338943584 71.4044554284 c 2
 694.694284327 106.759796172 l 2
 704.204634459 116.270146304 720.990793428 135.862929791 723.855339059 144 c 1
 723.855339059 176.249243137 715.039707895 246.076360724 687.525295794 275.627601046 c 0
 687.109560023 276.074112773 686.855106454 276.672757702 686.855106454 277.330364467 c 0
 686.855106454 277.453130119 686.863974537 277.573840863 686.881104505 277.691890503 c 0
 691.630562116 310.422351477 699.445177722 342.114628529 707.91941983 372.573439121 c 1
 727.900326905 476.474155915 l 2
 727.914756001 476.549187212 727.932544067 476.623029691 727.953528248 476.695520498 c 2
 771.953528248 628.695520498 l 2
 772.00021164 628.856790398 772.062713454 629.011370512 772.139240555 629.157467703 c 2
 816.099466189 713.081534821 l 2
 816.217734094 713.307319005 816.369499703 713.512842753 816.54814438 713.69148743 c 0
 821.573525072 718.716868123 826.083861887 724.206816475 830.206382225 730.009722567 c 0
 830.65957596 730.647643177 831.40442264 731.064171143 832.245786943 731.064171143 c 0
 833.362913574 731.064171143 834.309885775 730.329858828 834.629940604 729.317997139 c 0
 841.5754607 707.359554217 846.144660941 682.812242782 846.144660941 672 c 2
 846.144660941 640.306720939 l 1
 861.560490765 578.063305109 882.922274477 516.437607025 899.628485001 454.873718312 c 0
 899.685178976 454.664795914 899.715436181 454.445041898 899.715436181 454.218276699 c 0
 899.715436181 454.017705341 899.691765332 453.822618978 899.647067202 453.635661179 c 0
 896.905991381 442.17062896 893.740349953 430.728268695 890.543725378 419.171903381 c 0
 880.449435508 382.679253089 868.972992215 345.328385513 862.089832073 307.471004731 c 2
 846.154164938 219.824835491 l 1
 850.101969237 125.077532329 l 1
 865.643995666 109.535505901 l 2
 865.979886409 109.199615157 866.229975737 108.741649904 866.493295583 108.342582197 c 0
 868.191577708 105.768793846 869.741664134 103.451221033 871.574755144 101.618130023 c 2
 906.930094204 66.2627909634 l 2
 911.038487829 62.1543973382 917.545294716 59.1446609407 935 59.1446609407 c 0
 939.142086102 59.1446609407 942.418534042 60.6432992309 945.260880819 63.4856460068 c 2
 980.616219877 98.8409850661 l 2
 990.796155355 109.020920544 993.867700265 136.868945585 993.867700265 165.972882389 c 0
 993.867700265 188.253472832 991.66402286 211.968737582 991.66402286 233.831133212 c 0
 991.66402286 236.259873158 991.721403868 238.388701423 991.863041456 240.197499428 c 0
 992.790943318 252.047369712 993.226406373 263.802585106 993.226406373 275.47368276 c 0
 993.226406373 336.644752437 981.25797931 395.541411623 965.513065481 453.562834976 c 0
 965.456371505 453.771757376 965.426114299 453.991511394 965.426114299 454.218276595 c 0
 965.426114299 454.418847953 965.449785148 454.613934316 965.494483278 454.800892116 c 0
 968.164713614 465.969600606 970.41309207 477.102071191 971.876414748 488.325787841 c 0
 974.425320985 507.875953037 983.855339059 536.613696164 983.855339059 556 c 0
 983.814155439 557.720762034 983.793665502 559.373276615 983.793665502 561.078777415 c 0
 983.793665502 587.466920406 988.879399078 612.034831689 1003.75433111 632.675095761 c 0
 1003.49607713 634.950111207 1003.37394442 637.182418123 1003.37394433 639.374226866 c 0
 1003.37394433 657.960869695 1012.09934659 673.333316971 1020.330309 687.985661541 c 0
 1028.34250881 702.248575981 1035.86322818 715.819361244 1035.86322818 731.115349106 c 0
 1035.86322818 731.986229547 1035.83937509 732.889172767 1035.83937509 733.778291309 c 0
 1035.83937509 748.490772327 1039.09017487 759.92977772 1044.01802994 769.049541612 c 0
 1044.13401096 769.264182558 1044.28047488 769.459976447 1044.45160379 769.631105354 c 2
 1074.82049843 800 l 1
 1042.80351282 832.016985616 l 1
 1036.30992102 826.959419612 1030.34574686 822.905364631 1024.21692805 816.77654582 c 2
 988.861588996 781.42120676 l 2
 978.789303884 771.348921649 970.128696976 757.37664437 970.128696976 733.778291309 c 0
 970.128696976 732.909131503 970.152550061 732.005859387 970.152550061 731.115349106 c 0
 970.152550061 697.094251563 937.663266212 673.21514799 937.663266212 639.374226866 c 0
 937.663266212 636.978098031 938.144660941 634.504783694 938.144660941 632 c 0
 938.144660941 631.446021456 937.964084167 630.933886059 937.658631552 630.519294743 c 0
 932.259500022 623.191044993 928.174189762 615.320123619 925.164710351 606.970649456 c 0
 924.817414055 606.007113556 923.894615097 605.317493462 922.812017764 605.317493462 c 0
 921.663113427 605.317493462 920.694181606 606.094176355 920.402083695 607.150680748 c 0
 917.434403139 617.884641598 914.59177573 628.630873168 911.928289989 639.39854549 c 0
 911.880629174 639.591223839 911.855339059 639.792681814 911.855339059 640 c 2
 911.855339059 672 l 2
 911.855339059 688.914119147 898.319173564 748.056694437 883.886102941 762.489765059 c 2
 848.530763882 797.845104118 l 2
 846.379523657 799.996344344 844.502304979 800.855339059 843 800.855339059 c 0
 833.240166806 800.855339059 826.112074218 796.810426135 819.685509101 790.383861019 c 2
 784.330170042 755.028521961 l 2
 778.998782057 749.697133975 774.234184802 742.706322007 769.219545313 735.312271033 c 0
 763.44580219 726.798927042 757.205759886 718.085818178 749.684522746 710.506080416 c 1
 705.976974057 627.064396555 l 1
 662.078143959 475.41389258 l 1
 642.099673095 371.525844085 l 2
 642.086878293 371.459311118 642.07144233 371.39371292 642.053478754 371.32916304 c 0
 637.963033731 356.630656458 634.033381157 341.668123027 630.533398526 326.464091042 c 0
 630.278012369 325.354685737 629.283472517 324.526374177 628.096996784 324.526374177 c 0
 626.426313991 324.526374177 624.749058536 324.855339059 623 324.855339059 c 0
925.005552337 281.076173025 m 0
 927.776392555 281.076173025 927.515728255 278.245722212 927.515728255 275.473682771 c 0
 927.515728255 263.675764908 927.0755033 251.788287074 926.136958544 239.802500572 c 0
 926.011101454 238.195229094 925.953344741 236.176506341 925.953344741 233.831133212 c 0
 925.953344741 212.032080461 928.157022146 188.334054557 928.157022146 165.972882389 c 0
 928.157022146 152.570352411 927.593609056 139.248320859 925.8636229 127.560428315 c 0
 925.685218533 126.355117473 924.645236786 125.428975864 923.390650034 125.428975864 c 0
 920.468117426 125.428975864 915.775781001 125.856461983 915.659172722 128.655060673 c 2
 911.853137405 219.999908264 l 2
 911.853137405 220.153306522 911.869184821 220.303588184 911.895693725 220.449387159 c 2
 922.545907003 279.025560184 l 2
 922.75784054 280.191194634 923.779163095 281.076173025 925.005552337 281.076173025 c 0
923.157022146 165.972882389 m 0
 923.157022146 188.253472832 920.953344741 211.968737582 920.953344741 233.831133212 c 0
 920.953344741 238.397648059 921.270088315 241.488286108 921.536602439 245.519512093 c 1
 916.864843056 219.824835491 l 1
 920.57224018 130.847304525 l 2
 920.797435315 130.809311931 921.026023894 130.772304933 921.258069765 130.736303476 c 1
 922.668471527 141.467528397 923.157022146 153.659381965 923.157022146 165.972882389 c 0
347 133.855339059 m 0
 376.262027867 133.855339059 405.402383809 129.893684024 434.578159105 129.855614621 c 0
 436.163236965 130.383332728 438.506659781 130.937750647 441.544562897 131.675596163 c 0
 452.527576108 134.34314934 471.948866506 139.168108541 483.521685701 147.467934108 c 1
 535.302560071 213.966177988 569.14466037 325.680847409 569.144660941 376 c 0
 569.144660941 441.02592086 532.179462794 583.307211258 470.442912721 662.077324458 c 1
 453.153199857 674.834211248 434.636406602 682.144660147 415 682.144660941 c 0
 386.201818322 682.144660941 360.537783207 678.47110512 339.4865056 669.895380155 c 1
 372.050592418 637.331293337 l 2
 385.128814487 624.253071267 392.855339059 605.363667906 392.855339059 576 c 0
 392.855339059 563.434016557 386.160700194 551.316838182 376.971632179 542.127770168 c 2
 341.61629312 506.772431107 l 2
 331.761681714 496.917819702 318.800081239 490.144660941 307 490.144660941 c 0
 299.040925478 490.144660941 292.702963845 493.108862792 287.922243322 497.889583313 c 2
 252.566904263 533.244922373 l 2
 237.466562259 548.345264377 237.144015035 580.65137883 237.144015035 597.465316689 c 0
 237.144015035 598.215672429 237.14465741 598.935174418 237.14465741 599.620916533 c 2
 237.14465741 600 l 2
 237.14465741 614.180262217 238.549047892 626.924844634 241.252018695 638.34574568 c 1
 224.15798442 644.940903656 206.577758659 653.484105045 189.790493053 666.420370764 c 1
 -1.83384992715 734.287325569 l 2
 -2.18859090915 734.412963001 -2.50664355468 734.616463871 -2.76742031249 734.877240628 c 2
 -38.1227593718 770.232579687 l 2
 -38.5752859343 770.68510625 -38.8553390593 771.31010625 -38.8553390593 772 c 0
 -38.8553390593 772.68989375 -38.5752859343 773.31489375 -38.1227593718 773.767420313 c 2
 -2.76742031249 809.122759372 l 2
 -2.31489374999 809.575285934 -1.68989375 809.855339059 -1 809.855339059 c 0
 -0.707670216997 809.855339059 -0.426992007483 809.805055949 -0.166150072849 809.712674431 c 2
 191.833849927 741.712674431 l 2
 192.086581081 741.62316548 192.320690384 741.494135485 192.52873314 741.333029141 c 0
 221.706813531 718.737799455 249.770655471 710.973243107 281.014840804 700.875996218 c 1
 302.888741209 722.749896624 l 2
 328.449004179 748.310159593 368.042332551 757.855339059 415 757.855339059 c 0
 443.368704067 757.855339059 469.151864241 743.521059226 491.879542561 720.793380906 c 2
 527.234881621 685.438041847 l 2
 600.887401753 611.785521715 644.855339059 448.363568506 644.855339059 376 c 0
 644.855339059 318.496514332 603.099839575 186.805370538 540.245201083 123.950732046 c 2
 504.889862024 88.5953929867 l 2
 483.927654773 67.6331857359 460.379649518 54.1446609407 435 54.1446609407 c 0
 405.566543694 54.1446609407 376.292869903 58.1446609407 347 58.1446609407 c 0
 254.008784033 58.1446609407 194.502218657 82.9797518151 155.230412884 122.251557588 c 2
 119.875073823 157.606896648 l 2
 63.3304595307 214.151510941 49.2405048013 299.765817353 35.5704432156 381.897164773 c 0
 24.464579944 448.62250533 13.6149163091 513.133989188 -18.4002319171 558.5622048 c 0
 -18.6869116195 558.968991839 -18.8553390593 559.464981964 -18.8553390593 560 c 0
 -18.8553390593 560.68989375 -18.5752859343 561.31489375 -18.1227593718 561.767420313 c 2
 17.2325796875 597.122759372 l 2
 17.68510625 597.575285934 18.31010625 597.855339059 19 597.855339059 c 0
 19.68989375 597.855339059 20.31489375 597.575285934 20.7674203125 597.122759372 c 2
 56.1227593718 561.767420313 l 2
 56.2243480217 561.665831663 56.317244577 561.555550918 56.4002319171 561.4377952 c 0
 89.3653322766 514.661635482 100.119559516 449.374386839 111.213152306 382.722768787 c 0
 123.412365553 309.428445087 135.99770291 234.484186564 177.526558944 180.134317732 c 1
 215.246760605 151.520292867 268.843073852 133.855339059 347 133.855339059 c 0
347 63.1446609407 m 0
 376.396444556 63.1446609407 405.671099461 59.1446609407 435 59.1446609407 c 0
 458.517515042 59.1446609407 480.909611925 71.6848241381 501.355021398 92.1302336117 c 2
 536.710360459 127.485572672 l 2
 598.154359211 188.929571424 639.855339059 320.116360428 639.855339059 376 c 0
 639.855339059 447.026203754 595.768837931 609.834404287 523.700040996 681.903201222 c 2
 488.344701937 717.25854028 l 2
 466.175486579 739.427755638 441.587651431 752.855339059 415 752.855339059 c 0
 368.603683549 752.855339059 330.529508769 743.320982933 306.423581834 719.215055999 c 2
 283.466927967 696.258402131 l 2
 283.014401404 695.805875568 282.389401404 695.525822443 281.699507654 695.525822443 c 0
 281.43020684 695.525822443 281.170794148 695.568495262 280.927668349 695.647442128 c 0
 248.942951374 706.033395276 220.232352435 713.664609334 189.79039344 737.131084162 c 1
 -0.348541486084 804.471956948 l 1
 -32.8204984343 772 l 1
 0.365961400156 738.813540166 l 1
 191.833849927 671.001996313 l 2
 192.086581081 670.912487362 192.320690384 670.783457367 192.52873314 670.622351023 c 0
 209.567257587 657.427878726 227.508873075 648.874615622 245.08948942 642.23366685 c 0
 246.03444652 641.876716242 246.707197491 640.963331321 246.707197491 639.89405693 c 0
 246.707197491 639.680632781 246.680395743 639.473419118 246.629977283 639.275600976 c 0
 243.697430136 627.769675836 242.144660941 614.726420974 242.144660941 600 c 2
 242.144660941 599.620869045 l 2
 242.144660941 583.257943106 242.610814049 550.270693837 256.101744888 536.779762998 c 2
 291.457083947 501.424423939 l 2
 295.382119183 497.499388704 300.329584744 495.144660941 307 495.144660941 c 0
 316.918579465 495.144660941 328.913173048 501.138992286 338.081452495 510.307271732 c 2
 373.436791553 545.662610792 l 2
 381.975221834 554.201041072 387.855339059 565.243826905 387.855339059 576 c 0
 387.855339059 604.49515535 380.480864461 621.831340043 368.515751792 633.796452713 c 2
 333.332405107 668.979799397 l 2
 332.879878544 669.43232596 332.599825419 670.05732596 332.599825419 670.74721971 c 0
 332.599825419 671.767178003 333.211951423 672.645294809 334.088562513 673.03392921 c 0
 356.657429096 683.039549754 384.204450251 687.144660941 415 687.144660941 c 0
 436.040713042 687.144660941 455.687976911 679.245443085 473.687828047 665.895551847 c 0
 473.86769753 665.762148631 474.029062839 665.605180411 474.16734205 665.429229114 c 0
 537.0749379 585.383407163 574.144660941 442.455153137 574.144660941 376 c 0
 574.144660941 324.01295586 540.046283984 211.725730163 487.245871139 144.113944576 c 0
 487.10270705 143.930620636 486.93454851 143.76774517 486.746539525 143.630462182 c 0
 473.95765507 134.292098545 453.82937245 129.513023362 442.727110626 126.816507093 c 0
 438.925857223 125.893259038 436.824660348 124.855339059 435 124.855339059 c 0
 405.570196909 124.855339059 376.289241868 128.855339059 347 128.855339059 c 0
 267.912692345 128.855339059 213.050454185 146.799461714 174.233608528 176.357660362 c 0
 174.055993615 176.492910323 173.896996556 176.651379534 173.761161415 176.82852393 c 0
 131.024905486 232.561437896 118.486245389 308.567328231 106.281121328 381.897164811 c 0
 95.1895964363 448.536358685 84.3536100746 512.967408592 52.4343412227 558.386157212 c 1
 19 591.820498434 l 1
 -13.1093811733 559.711117261 l 1
 18.9180852604 513.062490388 29.5447271745 448.558209338 40.5024741812 382.722768825 c 0
 54.2005729919 300.422970441 68.3839605453 216.167691177 123.409914449 161.141737272 c 2
 158.765253508 125.786398214 l 2
 196.898000065 87.6536516561 254.888590147 63.1446609407 347 63.1446609407 c 0
311.026687309 618.772225937 m 0
 312.620543862 618.772225937 314.820467816 617.467961076 315.313829601 616.276384472 c 0
 319.746183751 605.571279885 322.144660941 592.433846418 322.144660941 576 c 0
 322.144660941 572.663305885 321.819357835 563.921901388 318.735343877 562.894660991 c 0
 316.84401877 562.264687981 314.69879164 561.395623644 312.671324809 561.395623644 c 0
 311.438812994 561.395623644 310.413420509 562.289460348 310.208565926 563.463715184 c 0
 307.86246907 576.911867187 307.855334717 590.697345416 307.855334717 599.586720941 c 0
 307.855334717 599.724480627 307.855334717 599.862240314 307.855334717 600 c 0
 307.855334717 605.728003851 308.084565171 611.22145364 308.535896838 616.488105319 c 0
 308.645491886 617.766985093 309.719622681 618.772225937 311.026687309 618.772225937 c 0
313.008752163 607.879168372 m 1
 312.906819635 605.307973553 312.855339059 602.68186395 312.855339059 600 c 0
 312.855339059 599.862240314 312.855339059 599.724480627 312.855339059 599.586720941 c 0
 312.855339059 591.317816336 312.879982666 579.005890452 314.713183688 566.912564939 c 1
 315.114768801 567.017670466 315.51767224 567.130353648 315.921604193 567.250485774 c 0
 316.718388348 570.153520044 317.088844993 575.600703376 317.144660941 576 c 0
 317.144660941 588.656872045 315.676081273 599.121957194 313.008752163 607.879168372 c 1
EndSplineSet
EndChar
StartChar: uni0989
Encoding: 2441 2441 106
Width: 644
Flags: HW
HStem: 51.4881 70.7107<290.892 441.015> 59.6447 70.7107<290.892 413.593> 439 21G<328.855 332.309> 520.645 70.7107<408.392 451.266> 735.041 70.7107<5 133.616> 741.375 70.7107<38.7797 284.289 391.523 638.591> 852.645 70.7107<134.82 269.238>
VStem: 109.645 70.7107<387.541 439> 313.31 70.7107<583.172 708.933> 501.839 70.7107<225.844 481.85>
LayerCount: 2
Fore
SplineSet
379.036523348 915.707493251 m 1
 312.741250117 903.513981874 256.618958218 850.144660941 181 850.144660941 c 0
 180.805941204 850.144660941 180.61701699 850.166819559 180.435621687 850.208742467 c 0
 155.463919222 855.980040601 131.018339103 872.398382019 111.976663593 891.440057529 c 2
 76.6213245337 926.795396589 l 2
 60.9561816315 942.460539491 48.8953288413 959.94052011 43.2978925885 975.136897813 c 0
 43.1987848759 975.405963536 43.1446609407 975.696710984 43.1446609407 976 c 0
 43.1446609407 976.68989375 43.4247140657 977.31489375 43.8772406282 977.767420312 c 2
 79.2325796875 1013.12275937 l 2
 79.68510625 1013.57528593 80.31010625 1013.85533906 81 1013.85533906 c 0
 81.68989375 1013.85533906 82.31489375 1013.57528593 82.7674203125 1013.12275937 c 2
 118.122759372 977.767420312 l 2
 118.376347567 977.513832117 118.575774083 977.20608224 118.702107411 976.863102187 c 0
 121.848229191 968.321753488 127.317475143 958.731607756 134.503472853 949.137894441 c 0
 149.025192075 938.184268617 165.190603547 929.630516836 181.287976135 925.855606833 c 0
 223.491850492 925.934128478 259.900133177 943.259793412 296.064298999 960.533948197 c 0
 330.970964138 977.207445806 365.664189924 993.855339059 405 993.855339059 c 0
 410.076185321 993.855339059 413.768251673 992.679076808 416.215115218 990.232213262 c 2
 451.570455034 954.876873447 l 2
 454.679151826 951.768176653 455.049295085 947.482163639 455.049295085 943.605680667 c 0
 455.049295085 941.103468965 454.859624711 938.52732214 454.855407454 936.0790248 c 0
 455.066489095 932.727325256 455.196327181 929.308432345 455.196327191 925.873284622 c 0
 455.196327191 909.787897955 452.406379392 893.053628451 441.131792612 881.779041671 c 2
 424.87689654 865.524145598 l 1
 417.79134884 853.356763544 405.393782827 831.430748363 395.842270646 814.466998752 c 1
 588.887317932 817.853753968 l 1
 644.819645863 821.848920249 l 2
 644.879213763 821.853175099 644.939356166 821.855339059 645 821.855339059 c 0
 645.68989375 821.855339059 646.31489375 821.575285934 646.767420313 821.122759372 c 2
 682.122759372 785.767420313 l 2
 682.575285934 785.31489375 682.855339059 784.68989375 682.855339059 784 c 0
 682.855339059 783.31010625 682.575285934 782.68510625 682.122759372 782.232579687 c 2
 646.767420313 746.877240628 l 2
 646.354672261 746.464492577 645.798439992 746.195228741 645.180354137 746.151079751 c 2
 589.044893124 742.141403965 l 1
 361 738.144660941 l 2
 360.339287588 738.144660941 359.738095239 738.401523576 359.29092061 738.820751188 c 0
 355.821718858 742.073138673 350.243406532 744.507478875 346.649283602 748.101601804 c 2
 311.293944544 783.456940863 l 2
 309.074088958 785.676796449 307.144660941 788.497075852 307.144660941 792 c 0
 307.144660941 792.442374511 307.259808886 792.858067006 307.461741662 793.21871437 c 0
 307.592402594 793.452071834 352.737601321 874.637897067 355.827738141 877.728033887 c 2
 374.266557831 896.166853577 l 1
 376.914971777 902.013370495 378.374610381 908.705117836 379.036523348 915.707493251 c 1
181.287976427 855.144929208 m 1
 256.486381774 855.284891936 313.490811717 910.125911894 381.372511476 921.187858702 c 0
 381.504180367 921.187858702 381.639289643 921.220471349 381.77698398 921.220471349 c 0
 383.15677148 921.220471349 384.27698398 920.100258849 384.27698398 918.720471349 c 0
 384.27698398 910.137533457 382.048331388 901.032111258 378.620538246 893.665505995 c 0
 378.496176115 893.398241695 378.325946638 893.156561134 378.119991619 892.950606115 c 2
 359.362578766 874.193193262 l 2
 358.114631678 872.945246174 316.490849774 799.061627102 312.1862638 791.418246905 c 0
 312.380713155 790.044039865 313.25736198 788.563203817 314.828785168 786.991781489 c 2
 350.184124228 751.636442428 l 2
 353.194660592 748.625906065 358.460625693 746.109349403 361.931654786 743.161397549 c 1
 588.887317932 747.14307585 l 1
 643.89251708 751.072018646 l 1
 676.820498434 784 l 1
 644.040181469 816.780316965 l 1
 589.044893124 812.852082083 l 1
 391.523477929 809.390838672 l 2
 390.143690429 809.390838672 389.023477929 810.511051172 389.023477929 811.890838672 c 0
 389.023477929 812.335036117 389.139576831 812.75233119 389.343059438 813.114008695 c 0
 399.181697979 830.601568378 413.089163085 855.228696314 420.717355822 868.317134914 c 0
 420.826465933 868.504345836 420.959198948 868.676129256 421.111457165 868.828387473 c 2
 437.596951986 885.313882295 l 2
 447.339091154 895.056021463 450.196327191 910.235658369 450.196327191 925.873284622 c 0
 450.196327191 929.261337522 449.855339059 932.652528561 449.855339059 936 c 0
 449.855339059 938.528266659 450.049295085 941.137111264 450.049295085 943.605680667 c 0
 450.049295085 947.274659403 449.512737846 949.864909385 448.035612896 951.342034335 c 2
 412.680274593 986.697372637 l 2
 411.533203789 987.844443442 409.371639665 988.855339059 405 988.855339059 c 0
 367.11794902 988.855339059 333.179674694 972.720749414 298.214813497 956.019453909 c 0
 262.018362009 938.729877695 224.7341656 920.855339059 181 920.855339059 c 0
 180.805941204 920.855339059 180.61701699 920.877497677 180.435621687 920.919420585 c 0
 163.236264353 924.894424653 146.304164938 933.926314896 131.208058037 945.361957222 c 0
 131.022371181 945.502619214 130.856906326 945.668605694 130.716825071 945.854755061 c 0
 123.337476803 955.660927968 117.627360603 965.525066661 114.201512772 974.618985662 c 1
 81 1007.82049843 l 1
 48.5576602538 975.378158688 l 1
 54.04076984 961.464762856 65.4247241354 945.061678237 80.1561651587 930.330237214 c 2
 115.511504219 894.974898153 l 2
 134.007288626 876.479113746 157.701995867 860.676120197 181.287976427 855.144929208 c 1
274.308549448 490.984539113 m 0
 274.308549448 496.158425105 275.144660941 501.972206341 275.144660941 507 c 0
 275.144660941 557.900143091 296.910076502 601.082599117 307.211816608 644.577516819 c 0
 309.667743322 654.946670675 310.809798133 664.422971857 310.809798133 673.077384927 c 0
 310.809798133 686.393021603 308.116044603 697.791905925 303.301887501 707.625423272 c 1
 263.359220453 730.251907399 202.222531458 735.395540487 152.780218884 738.1542079 c 0
 146.977677783 738.66058354 141.080925868 738.875301645 135.118866578 738.875301645 c 0
 103.286043722 738.875301645 69.201409998 732.541279265 37.2913388946 732.541279265 c 0
 28.9255951461 732.541279265 20.7397087184 732.992154487 12.8163270216 734.144660941 c 1
 5 734.144660941 l 2
 4.31010625 734.144660941 3.68510625001 734.424714066 3.23257968751 734.877240628 c 2
 -32.1227593718 770.232579687 l 2
 -32.5752859343 770.68510625 -32.8553390593 771.31010625 -32.8553390593 772 c 0
 -32.8553390593 772.68989375 -32.5752859343 773.31489375 -32.1227593718 773.767420313 c 2
 3.23257968751 809.122759372 l 2
 3.68510625001 809.575285934 4.31010625 809.855339059 5 809.855339059 c 2
 13 809.855339059 l 2
 13.124258787 809.855339059 13.2464123774 809.846253948 13.3658321847 809.828712313 c 0
 21.0414088874 808.701243032 29.0460415432 808.251957383 37.2913388946 808.251957383 c 0
 69.0423481972 808.251957383 103.148599899 814.585979763 135.118866578 814.585979763 c 0
 141.20323652 814.585979763 147.167730337 814.372703283 153.141217573 813.851409531 c 0
 212.543723117 810.537005837 289.932590877 804.195002532 328.168154102 765.959439307 c 2
 363.523493163 730.604100248 l 2
 377.831248595 716.296344815 386.520476076 697.477780259 386.520476076 673.077384247 c 0
 386.520476076 663.974538486 385.320684654 654.114942206 382.788183395 643.422483192 c 0
 373.898796278 605.890652927 357.395805384 569.599604494 352.501507899 529.342855078 c 1
 354.832902398 530.978392026 357.471535989 532.265866419 360.55885249 532.816468189 c 0
 364.692382238 533.553654902 368.858483686 535.650485296 373.121351497 538.777158722 c 2
 404.899547982 570.555355208 l 2
 417.200592945 582.85640017 431.296102198 593.855339059 449 593.855339059 c 0
 449.190013805 593.855339059 449.375104848 593.834094569 449.553025426 593.793853293 c 0
 457.813709752 591.925488875 464.873211994 587.072168214 470.911786208 581.033593999 c 2
 506.267125269 545.678254939 l 2
 514.457878951 537.487501257 520.899399342 527.015919033 526.080399691 518.016125778 c 1
 530.750432178 513.34609329 l 2
 574.74438635 469.352139119 572.805111571 417.064926572 574.854358947 355.070613407 c 0
 574.980961477 350.515255914 575.050043654 345.929644177 575.050043654 341.323920003 c 0
 575.050043654 297.81959474 568.91037222 252.463584931 546.68789482 214.038876836 c 1
 538.281910579 182.145226301 525.198568283 133.218218 497.325840008 105.345489237 c 2
 461.970500948 69.9901501773 l 2
 449.282886477 57.3025357059 433.398156365 48.9880602513 413.664753922 48.9880602513 c 0
 399.501469018 48.9880602513 386.254755894 51.1962217359 372.788932449 52.7936478273 c 0
 354.422622984 54.9724096433 336.067173055 57.1446609407 317 57.1446609407 c 0
 299.229366785 57.1446609407 283.972337427 65.7671006816 270.80326164 78.9361764679 c 2
 235.447922582 114.291515527 l 2
 210.829832436 138.909605672 192.851298333 179.73935313 177.610818273 214.152384695 c 0
 168.071512913 235.692153469 159.571138313 254.765304116 151.632250961 265.517178816 c 0
 151.453912627 265.758707803 151.317991586 266.033427543 151.235527453 266.330298421 c 2
 111.235527453 410.330298421 l 2
 111.207174421 410.432369338 111.185140742 410.537058829 111.169875119 410.643918193 c 2
 107.169875119 438.643918193 l 2
 107.15325856 438.760234108 107.144660941 438.879120936 107.144660941 439 c 0
 107.144660941 439.68989375 107.424714066 440.31489375 107.877240628 440.767420313 c 2
 143.232579687 476.122759372 l 2
 143.68510625 476.575285934 144.31010625 476.855339059 145 476.855339059 c 0
 145.68989375 476.855339059 146.31489375 476.575285934 146.767420313 476.122759372 c 2
 182.122759371 440.767420313 l 2
 182.495996932 440.394182752 182.751905659 439.903616359 182.830124881 439.356081807 c 2
 186.807398008 411.515169917 l 1
 226.642839764 268.107579595 l 1
 235.0825945 256.513294235 243.449612689 237.502422048 252.89570329 216.173132371 c 0
 264.139338843 190.784982935 276.84058786 162.151053359 292.240275932 139.410336822 c 1
 299.947251399 135.201198668 308.146663536 132.855339134 317 132.855339059 c 0
 349.060513052 132.855339059 378.692385055 126.87585314 409.167993711 124.849772556 c 0
 410.693003249 124.748386839 412.191715952 124.698738445 413.664752831 124.698738445 c 0
 423.315140733 124.698738445 431.906709598 126.821038692 439.640411788 130.572176162 c 1
 455.594470378 157.119053473 464.792715228 191.22245248 471.226928708 215.637929799 c 0
 471.284421226 215.856092753 471.370691113 216.062628012 471.481425604 216.25322281 c 0
 493.178180732 253.597402021 499.339365536 298.156132982 499.339365536 341.323920003 c 0
 499.339365536 350.178772116 499.012215696 358.93268524 498.764585421 367.617963761 c 0
 497.300712372 418.961222047 495.905139875 466.779661253 460.861780819 505.248039496 c 1
 451.877240628 514.232579687 l 2
 450.949092211 515.160728105 450.344806754 516.723819174 449.6515303 517.906420064 c 0
 449.341759693 517.990547943 449.030424674 518.069639031 448.717488063 518.143591531 c 0
 438.172643111 518.063710128 428.828077067 513.516830976 420.067656284 506.732737179 c 1
 386.913426045 473.578506941 l 2
 378.869795249 465.534876144 370.691741685 458.833311906 361.44114751 457.183531811 c 0
 358.867109185 456.72446971 356.637273507 455.550203855 354.482076342 453.879299798 c 2
 344.604209667 444.001433122 l 2
 340.73696173 440.134185186 336.069153543 436.500301555 329.564308312 436.500301555 c 0
 328.002135475 436.500301555 326.371245159 436.710057303 324.665679227 437.146913729 c 0
 320.103800826 437.208701671 316.568485227 438.540305771 314.111934667 440.996856374 c 2
 278.756595608 476.352195432 l 2
 274.977971318 480.130819722 274.308549448 485.677026228 274.308549448 490.984539113 c 0
37.2913388946 737.541279265 m 0
 69.0503963417 737.541279265 103.14045804 743.875301645 135.118866578 743.875301645 c 0
 141.20323652 743.875301645 147.246293881 743.656407734 153.219781116 743.135113982 c 0
 203.000788872 740.35754838 265.027830193 735.39037479 306.445805473 711.588325663 c 0
 306.870440308 711.344296853 307.216801777 710.979173143 307.437619835 710.540224577 c 0
 312.827629708 699.825805988 315.809798133 687.403953443 315.809798133 673.077384927 c 0
 315.809798133 663.974538999 314.610006658 654.114942499 312.077505274 643.422483181 c 0
 301.86824388 600.318019316 280.144660941 556.702553923 280.144660941 507 c 0
 280.144660941 501.854433019 279.308549448 496.042420632 279.308549448 490.984539113 c 0
 279.308549448 485.974688624 280.1544502 482.02402209 282.291436233 479.887036057 c 2
 317.646775292 444.531696999 l 2
 319.027041163 443.151431127 321.184598211 442.144660941 325 442.144660941 c 0
 326.579219842 442.144660941 328.232423286 441.500301555 329.564308312 441.500301555 c 0
 334.039657461 441.500301555 337.444752136 443.911656842 341.069369042 447.536273747 c 2
 351.056829747 457.523734452 l 2
 353.341776574 459.80868128 357.061418977 461.482046765 360.55885249 462.105790071 c 0
 367.982086539 463.429673008 375.487375631 469.222137776 383.37858542 477.113347566 c 2
 416.644729831 510.379491976 l 2
 416.718653273 510.453415418 416.797179265 510.522736312 416.879838837 510.586985687 c 0
 426.235853838 517.859199955 436.773698803 523.144660941 449 523.144660941 c 0
 453.145445644 523.144660941 454.161703149 520.121124508 455.64875044 517.530751126 c 2
 464.396621444 508.782880121 l 1
 502.112215215 467.381091995 502.279450165 416.737759621 503.909429676 362.808998185 c 0
 504.122708631 355.752547619 504.339365536 348.596604975 504.339365536 341.323920003 c 0
 504.339365536 297.819589518 498.199692628 252.463574043 475.977209148 214.038862741 c 1
 469.485852132 189.41152853 460.175870619 154.731929282 443.539225856 127.356675905 c 0
 443.294664208 126.954254817 442.939706074 126.626199027 442.516523063 126.414680143 c 0
 433.958372049 122.137073282 424.361275783 119.698738445 413.664752831 119.698738445 c 0
 399.504116084 119.698738445 386.259843288 121.906397256 372.79255372 123.50386803 c 0
 354.423851766 125.682737385 336.063901833 127.855339059 317 127.855339059 c 0
 307.012368504 127.855339059 297.780727013 130.585728459 289.292363303 135.326414369 c 0
 288.951786133 135.516624102 288.660177339 135.784180284 288.441375668 136.105244167 c 0
 272.517579172 159.471409142 259.65066339 188.571105104 248.321496392 214.152384695 c 0
 238.782191031 235.69215347 230.281816432 254.765304116 222.342929079 265.517178816 c 0
 222.164590745 265.758707803 222.028669704 266.033427543 221.946205571 266.330298421 c 2
 181.946205571 410.330298421 l 2
 181.917852539 410.432369338 181.89581886 410.537058829 181.880553237 410.643918193 c 2
 177.99788207 437.822616364 l 1
 145 470.820498434 l 1
 112.296463839 438.116962273 l 1
 116.09671989 411.515169917 l 1
 155.932161646 268.107579595 l 1
 164.371916381 256.513294235 172.738934571 237.502422048 182.185025171 216.173132371 c 0
 197.429784585 181.750438016 215.398986186 141.410133172 238.982763206 117.826356153 c 2
 274.338102266 82.4710170929 l 2
 286.939832655 69.8692867038 300.956373017 62.1446609407 317 62.1446609407 c 0
 349.067977564 62.1446609407 378.686936714 56.165537238 409.167993752 54.1390944353 c 0
 410.693003657 54.0377086684 412.191716709 53.9880602513 413.664753922 53.9880602513 c 0
 431.900201449 53.9880602513 446.460628933 61.5499594123 458.435660324 73.5249908023 c 2
 493.790999382 108.880329861 l 2
 520.343021828 135.432352307 533.527170502 183.723418384 541.937606826 215.637929799 c 0
 541.995099344 215.856092753 542.081369231 216.062628012 542.192103722 216.25322281 c 0
 563.88885885 253.597402021 570.050043654 298.156132982 570.050043654 341.323920003 c 0
 570.050043654 350.334406165 569.711786679 359.296504687 569.460805241 368.034009855 c 0
 567.881320154 423.021180157 566.423325422 470.603518797 527.215591553 509.811252665 c 2
 522.309975022 514.716869198 l 2
 522.154168947 514.872675272 522.018808612 515.048927088 521.908284894 515.241233767 c 0
 516.757957252 524.202589965 510.426947553 534.448751405 502.732284644 542.143414314 c 2
 467.376945584 577.498753373 l 2
 461.826544891 583.049154067 455.634708166 587.219284339 448.717481201 588.854262705 c 0
 433.353649988 588.736885559 420.471238483 579.057366449 408.434388608 567.020514583 c 2
 376.521686299 535.107812274 l 2
 376.433283919 535.019409894 376.338299477 534.937589576 376.237535001 534.863153349 c 0
 371.54971175 531.400188119 366.669853075 528.826713745 361.44114751 527.894209929 c 0
 357.515276353 527.194057704 354.330174868 524.785768781 351.119967873 521.575561787 c 0
 350.667441311 521.123035225 350.042441311 520.8429821 349.352547561 520.8429821 c 0
 347.972760061 520.8429821 346.852547561 521.9631946 346.852547561 523.3429821 c 0
 346.852547561 523.419246386 346.855969864 523.494717657 346.862669142 523.569250587 c 0
 350.784654317 567.203362778 368.573428475 605.104877924 377.922494723 644.577516808 c 0
 380.378421316 654.946670364 381.520476076 664.422971332 381.520476076 673.077384247 c 0
 381.520476076 696.228951733 373.416117957 713.641794203 359.988652538 727.069259622 c 2
 324.633313478 762.424598681 l 2
 288.394177649 798.66373451 212.415706201 805.536249021 152.858782427 808.859268587 c 0
 147.056241327 809.365644227 141.080925868 809.585979763 135.118866578 809.585979763 c 0
 103.294163968 809.585979763 69.1933396528 803.251957383 37.2913388946 803.251957383 c 0
 28.9255951458 803.251957383 20.7397087182 803.702832606 12.8163270217 804.855339059 c 1
 6.03484062499 804.855339059 l 1
 -26.8204984343 772 l 1
 6.03484062499 739.144660941 l 1
 13 739.144660941 l 2
 13.1242587871 739.144660941 13.2464123776 739.13557583 13.365832185 739.118034195 c 0
 21.0414088873 737.990564913 29.046041543 737.541279265 37.2913388946 737.541279265 c 0
EndSplineSet
EndChar
StartChar: uni0990
Encoding: 2448 2448 111
Width: 362
Flags: HW
HStem: 54.6447 70.7107<43.6862 109.254> 122.645 70.5803<151.261 224.706> 738.645 70.7107<7.10543e-15 119.274 298.478 301.691 370 370> 807.355 98.5782<165.817 236.988> 817.983 70.7107<60.6843 99.0203 129.161 226.012>
VStem: 114.238 97.1178<691.522 734.247> 215.498 70.7107<193.523 484.594>
LayerCount: 2
Fore
SplineSet
129.161424691 890.533212454 m 0
 166.32081285 890.533212454 197.837215762 907.856198252 235.538957911 907.856198252 c 0
 235.612027358 907.856198252 235.685096804 907.855791821 235.758166251 907.855791821 c 0
 237.692156759 908.227265799 241.335237047 908.433600889 241.464018217 908.433576624 c 0
 247.159324662 908.432503495 251.693987487 906.438891859 255.050171272 903.082708073 c 2
 290.405510332 867.727369014 l 2
 302.469212183 855.663667162 298.997524888 831.093771446 303.693656703 812.940953438 c 1
 345.927037821 811.85804623 l 1
 369.78999047 813.846625618 l 2
 369.859234404 813.852395946 369.929276214 813.855339059 370 813.855339059 c 0
 370.68989375 813.855339059 371.31489375 813.575285934 371.767420313 813.122759372 c 2
 407.122759372 777.767420313 l 2
 407.575285934 777.31489375 407.855339059 776.68989375 407.855339059 776 c 0
 407.855339059 775.31010625 407.575285934 774.68510625 407.122759372 774.232579687 c 2
 371.767420313 738.877240628 l 2
 371.36128407 738.471104386 370.816223738 738.203892233 370.21000953 738.153374382 c 2
 346.21000953 736.153374382 l 2
 346.140765596 736.147604054 346.070723786 736.144660941 345.934833791 736.145495523 c 2
 267.934833791 738.145495523 l 2
 267.270801318 738.162521997 266.670814753 738.439005563 266.232579687 738.877240628 c 2
 230.877240629 774.232579687 l 2
 230.424714066 774.68510625 230.144660941 775.31010625 230.144660941 776 c 0
 230.144660941 777.524817112 230.587695043 779.598060778 230.587695043 783.120639074 c 0
 230.587695043 804.315125238 227.365303652 814.158894682 225.366946783 831.738832693 c 1
 192.919496449 829.168754183 163.643845463 814.822534335 129.161424691 814.822534335 c 0
 123.555371291 814.822534335 117.821547107 815.217376939 111.929172478 816.125303254 c 0
 107.68054925 815.710087791 99.193728358 815.482791688 99.0202638685 815.482794201 c 0
 75.2235889737 815.483138982 53.1366901824 822.313596248 37.3798767058 838.070409724 c 2
 2.02453764638 873.425748784 l 2
 -7.01391811789 882.464204549 -13.8841862939 894.380724658 -17.7753894987 909.370933349 c 0
 -17.8275695056 909.571948087 -17.8553390593 909.782756671 -17.8553390593 910 c 0
 -17.8553390593 910.68989375 -17.5752859343 911.31489375 -17.1227593718 911.767420313 c 2
 18.2325796875 947.122759372 l 2
 18.68510625 947.575285934 19.31010625 947.855339059 20 947.855339059 c 0
 20.68989375 947.855339059 21.31489375 947.575285934 21.7674203125 947.122759372 c 2
 57.1227593718 911.767420313 l 2
 57.4327880832 911.457391601 57.6618628722 911.066408967 57.7753894986 910.629066651 c 0
 58.9329635366 906.169706528 60.3604168681 902.021261667 62.0309524675 898.170095286 c 0
 73.0916439507 893.426864393 85.6973806047 891.193472452 99.0202638685 891.193472319 c 0
 103.281357617 891.193472319 107.624428963 891.855339059 112 891.855339059 c 0
 112.132788156 891.855339059 112.263172187 891.844963902 112.390384975 891.824980705 c 0
 118.12412375 890.924297414 123.697585739 890.533212454 129.161424691 890.533212454 c 0
129.161424691 819.822534335 m 0
 163.784833292 819.822534335 193.821308101 834.853011559 227.440019623 836.896275224 c 0
 227.490863872 836.896275224 227.542116424 836.900933036 227.593732224 836.900933036 c 0
 228.886486483 836.900933036 229.951379529 835.917583411 230.080577103 834.65871842 c 0
 232.027143364 815.691921781 235.587695043 805.743098876 235.587695043 783.120639074 c 0
 235.587695043 780.639555123 235.52798436 778.530875618 235.319625055 776.859876511 c 1
 269.061214918 743.118286648 l 1
 345.927037821 741.147368112 l 1
 368.880669158 743.060170724 l 1
 401.820498434 776 l 1
 369.052873903 808.767624531 l 1
 346.21000953 806.8640525 l 2
 346.140765596 806.858282172 346.070723786 806.855339059 345.934833791 806.856173641 c 2
 301.625537592 807.992309441 l 2
 299.653031943 808.042886509 299.376930082 809.706868714 298.938727994 811.357830993 c 0
 294.534013279 827.952954642 296.623090762 854.440107333 286.870669706 864.192528389 c 2
 251.515330647 899.547867448 l 2
 249.077047429 901.986150667 245.971813934 903.433576624 241.464018217 903.433576624 c 0
 239.859011335 903.433576624 237.931006152 902.855339059 236 902.855339059 c 2
 235.529506741 902.855339059 l 2
 198.240864007 902.855339059 166.739091795 885.533212454 129.161424691 885.533212454 c 0
 123.555371291 885.533212454 117.821547108 885.928055057 111.929172478 886.835981372 c 0
 107.68054925 886.42076591 99.1937283549 886.193468144 99.0202638685 886.193472319 c 0
 84.7649334895 886.193815438 71.1550576788 888.637632719 59.1239696319 893.982786773 c 0
 58.5608357974 894.232975043 58.1070358652 894.685229289 57.8548438921 895.247275456 c 0
 55.9821519362 899.420839437 54.3918586333 903.906456869 53.1088730639 908.71162537 c 1
 20 941.820498434 l 1
 -12.5670038391 909.253494595 l 1
 -8.82030573579 895.677376941 -2.53551500052 885.055482681 5.5593782716 876.960589408 c 2
 40.9147173308 841.60525035 l 2
 55.4733108516 827.046656828 76.1456821612 820.482794201 99.0202638685 820.482794201 c 0
 103.281357617 820.482794201 107.624428964 821.144660941 112 821.144660941 c 0
 112.132788156 821.144660941 112.263172187 821.134285784 112.390384975 821.114302587 c 0
 118.12412375 820.213619296 123.697585739 819.822534335 129.161424691 819.822534335 c 0
111.737506478 703.525940694 m 0
 111.737506478 705.877760125 112.144660941 707.704079075 112.144660941 710 c 0
 112.144660941 719.402590636 113.824246279 728.856706905 117.164930733 737.544194181 c 1
 104.76473329 739.511769306 92.2838911036 740.142125718 82.0617728838 740.144653303 c 2
 0.000147013545937 736.141647163 l 2
 -0.689746736449 736.141647163 -1.31489374999 736.424714066 -1.76742031249 736.877240628 c 2
 -37.1227593718 772.232579687 l 2
 -37.5752859343 772.68510625 -37.8553390593 773.31010625 -37.8553390593 774 c 0
 -37.8553390593 774.68989375 -37.5752859343 775.31489375 -37.1227593718 775.767420313 c 2
 -1.76742031249 811.122759372 l 2
 -1.34207433972 811.548105344 -0.764351613433 811.821074564 -0.123587829413 811.852331333 c 2
 81.9998529865 815.858352837 l 1
 107.159033429 815.858352837 145.417948707 812.303830659 165.732878755 794.028791578 c 1
 175.215632935 803.511545758 187.770480435 809.855339059 204 809.855339059 c 0
 221.015595572 809.855339059 250.111244952 773.876995006 265.57604363 761.295474541 c 0
 265.64277243 761.241186749 265.706651497 761.183528187 265.767420313 761.122759372 c 2
 301.122759372 725.767420313 l 2
 301.430889766 725.459289918 301.65905457 725.071193934 301.773291127 724.637095018 c 2
 321.773291127 648.637095018 l 2
 321.809625909 648.499022847 321.834435017 648.35629674 321.846625618 648.21000953 c 2
 327.846625618 576.21000953 l 2
 327.852395946 576.140765596 327.855339059 576.070723786 327.855339059 576 c 0
 327.855339059 575.905812333 327.850119136 575.812834224 327.839953048 575.721339429 c 2
 321.839953048 521.721339429 l 2
 321.824398015 521.581344129 321.797263135 521.444821531 321.759529067 521.312752291 c 2
 309.766503289 479.337652957 l 2
 294.704149751 424.45885412 288.708208908 366.853906636 288.708208908 309.16222476 c 0
 288.708208908 276.730538339 290.602597383 244.270292724 293.842544083 212.254251573 c 0
 295.412354706 196.741921843 302.676044442 179.863649267 309.954263679 163.088291914 c 0
 317.867334174 144.849684227 325.855339059 126.70511841 325.855339059 110 c 0
 325.855339059 109.31010625 325.575285934 108.68510625 325.122759372 108.232579688 c 2
 289.767420313 72.8772406282 l 2
 289.31489375 72.4247140657 288.68989375 72.1446609407 288 72.1446609407 c 0
 287.31010625 72.1446609407 286.68510625 72.4247140657 286.232579687 72.8772406282 c 2
 250.877240628 108.232579688 l 2
 250.424714066 108.68510625 250.144660941 109.31010625 250.144660941 110 c 0
 250.144660941 110.507531229 250.071557097 111.100116846 249.913180576 111.762033128 c 0
 241.644611023 116.917935933 233.988794828 120.1455336 230.066634592 120.1455336 c 0
 203.285099236 119.443302095 178.912015461 119.629704933 161.746712512 102.856770852 c 0
 161.515393351 102.630739243 161.240443456 102.449171725 160.935747242 102.325952713 c 0
 145.058832702 95.9053356193 132.273951876 80.8809474876 114.638742727 76.2271430858 c 0
 106.575381798 74.0992803387 98.5997059613 69.5749671206 90.5161646933 64.9516803574 c 0
 79.593735134 58.7047246818 68.3658813693 52.1446609407 56 52.1446609407 c 0
 44.2551122318 52.1446609407 35.9929742171 56.0365701141 30.0575207581 61.9720235731 c 2
 -5.2978183012 97.3273626324 l 2
 -12.4758854578 104.505429789 -16.1627055101 114.304232877 -19.6081470007 123.259319199 c 0
 -22.522087439 130.832975067 -25.2845955717 137.813599441 -29.241609538 142.359951076 c 0
 -29.6238057322 142.799069641 -29.8553390593 143.372709435 -29.8553390593 144 c 0
 -29.8553390593 144.68989375 -29.5752859343 145.31489375 -29.1227593718 145.767420313 c 2
 12.2325796875 187.122759372 l 2
 12.68510625 187.575285934 13.31010625 187.855339059 14 187.855339059 c 0
 14.68989375 187.855339059 15.31489375 187.575285934 15.7674203125 187.122759372 c 2
 51.1227593718 151.767420313 l 2
 51.5752859343 151.31489375 51.8553390593 150.68989375 51.8553390593 150 c 0
 51.8553390593 149.31010625 51.5752859343 148.68510625 51.1227593718 148.232579687 c 2
 46.707060069 143.816880385 l 1
 50.1008007774 139.255565636 52.4387042521 133.642348089 54.6816109503 127.873396533 c 0
 55.1143999558 127.86141152 55.5538194648 127.855339059 56 127.855339059 c 0
 66.5527759004 127.855339059 77.0235992569 133.705579588 88.0391498932 140.005794774 c 0
 96.1130309727 144.623556505 104.424584794 149.414533553 113.361257273 151.772856914 c 0
 129.820653615 156.116372804 143.047373228 171.02582537 158.608734301 177.487366993 c 1
 175.468596749 193.661101197 198.964083367 195.056534509 221.376248675 195.642712597 c 1
 219.838823847 201.045274283 218.696112263 206.42293133 218.157455917 211.745748427 c 0
 214.903050538 243.90466528 212.997530789 276.532092911 212.997530789 309.16222476 c 0
 212.997530789 367.2051965 219.032524849 425.277990998 234.240470933 480.687247709 c 2
 246.183156626 522.486647632 l 1
 252.13296405 576.034914455 l 1
 246.171473702 647.572798631 l 1
 227.102679784 720.034215519 l 1
 222.433555603 724.103468676 217.87626183 727.687899992 213.854813271 730.216983781 c 1
 213.854813271 730.144745851 213.855339059 730.072417932 213.855339059 730 c 0
 213.855339059 721.168308412 211.156586642 709.839120097 204.330448511 703.012981965 c 2
 168.975109452 667.657642907 l 2
 165.662561155 664.345094609 161.289363514 662.144660941 156 662.144660941 c 0
 152.769511044 662.144660941 150.313363974 662.308889647 148.554997562 664.067256059 c 2
 113.199658504 699.422595118 l 2
 111.93771887 700.68453475 111.737506478 702.293314968 111.737506478 703.525940694 c 0
208.855339059 730 m 0
 208.855339059 731.609392599 208.589240939 733.12909541 208.589240939 734.637137603 c 0
 208.589240939 736.016925103 209.709453439 737.137137603 211.089240939 737.137137603 c 0
 211.479944463 737.137137603 211.849835063 737.047318098 212.17937269 736.887219135 c 0
 217.931031962 734.092895795 224.381092037 729.079696234 230.974752768 723.288847944 c 0
 231.343132755 722.965320133 231.615720233 722.535287567 231.744199645 722.047065801 c 2
 251.062613009 648.637095018 l 2
 251.098947791 648.499022847 251.123756899 648.35629674 251.1359475 648.21000953 c 2
 257.1359475 576.21000953 l 2
 257.141717828 576.140765596 257.144660941 576.070723786 257.144660941 576 c 0
 257.144660941 575.905812333 257.139441018 575.812834224 257.12927493 575.721339429 c 2
 251.12927493 521.721339429 l 2
 251.113719897 521.581344129 251.086585017 521.444821531 251.048850949 521.312752291 c 2
 239.048850949 479.312752291 l 2
 223.986497411 424.433953454 217.997530789 366.853906636 217.997530789 309.16222476 c 0
 217.997530789 276.730538339 219.891919264 244.270292724 223.131865965 212.254251573 c 0
 223.730629117 206.337479626 225.151256372 200.211511468 227.093600748 193.967580388 c 0
 227.166591096 193.732942955 227.205916702 193.483532149 227.205916702 193.225008837 c 0
 227.205916702 191.865826986 226.118912718 190.758525076 224.767557108 190.725755467 c 0
 201.032714161 190.150198965 177.690767145 189.147050354 161.746712513 173.567448971 c 0
 161.515393351 173.341417361 161.240443456 173.159849843 160.935747242 173.036630831 c 0
 145.065973939 166.618901651 132.265169316 151.589307952 114.638742727 146.937821204 c 0
 106.575381798 144.809958457 98.5997059613 140.285645239 90.5161646932 135.662358476 c 0
 79.5937351339 129.4154028 68.3658813694 122.855339059 56 122.855339059 c 0
 53.5302683878 122.855339059 51.3260694156 122.68230952 50.6048690614 124.551608968 c 0
 47.8746805273 131.628061289 45.1976797572 138.076019389 41.4690685807 142.359951076 c 0
 41.0868723864 142.799069641 40.8553390593 143.372709435 40.8553390593 144 c 0
 40.8553390593 144.68989375 41.1353921843 145.31489375 41.5879187468 145.767420313 c 2
 45.8204984343 150 l 1
 14 181.820498434 l 1
 -24.003483133 143.817015301 l 1
 -14.7239542086 131.349064674 -12.5968400754 111.696065657 -1.7629776762 100.862203257 c 2
 33.5923613831 65.5068641981 l 2
 38.6063761917 60.4928493895 45.3991665832 57.1446609407 56 57.1446609407 c 0
 66.5527759005 57.1446609407 77.0235992568 62.9949014692 88.0391498931 69.2951166544 c 0
 96.1130309727 73.912878386 104.424584794 78.7038554339 113.361257273 81.0621787956 c 0
 129.829528806 85.4080367835 143.040042317 100.312200068 158.608574218 106.776623887 c 1
 177.588532432 124.993547865 203.375637072 124.447425162 229.933365408 125.143788282 c 0
 236.053662533 125.143788282 244.545393145 121.103889665 253.396746975 115.476964419 c 0
 254.575013502 114.727924465 254.937343549 112.683721393 255.09139175 111.088109816 c 1
 288 78.1795015657 l 1
 320.843982133 111.023483699 l 1
 320.515650833 125.926686848 313.119696446 143.22831581 305.364976895 161.101944978 c 0
 298.092371052 177.864364183 290.551844146 195.107903061 288.868134035 211.745748427 c 0
 285.613728657 243.90466528 283.708208908 276.532092911 283.708208908 309.16222476 c 0
 283.708208908 367.2051965 289.736228745 425.253090332 304.944174829 480.662347043 c 2
 316.893834318 522.486643798 l 1
 322.843642168 576.034914455 l 1
 316.88215182 647.572798631 l 1
 297.108741826 722.711756608 l 1
 262.323036242 757.497462192 l 1
 247.991444163 769.200714771 216.441456042 804.855339059 204 804.855339059 c 0
 189.608216346 804.855339059 178.287009363 799.513240935 169.90361707 791.129848643 c 0
 168.911832405 790.138063978 167.603006553 788.041094544 165.780022346 788.041094544 c 0
 165.090128596 788.041094544 164.465128596 788.321147669 164.012602034 788.773674231 c 0
 146.216968593 806.569307672 107.776031252 810.848493116 82.0617611022 810.855330847 c 1
 1.08473350544 806.905231939 l 1
 -31.8204984343 774 l 1
 0.983828063076 741.195673503 l 1
 81.9998529865 745.147674719 l 2
 93.2998564559 745.147674719 107.29335159 744.40147059 121.105630755 741.953139725 c 0
 122.276602851 741.745576072 123.16706072 740.721732389 123.16706072 739.491552319 c 0
 123.16706072 739.135967593 123.092662559 738.797622365 122.958596584 738.491246983 c 0
 119.110732501 729.697883687 117.144660941 719.804229049 117.144660941 710 c 0
 117.144660941 707.561643893 116.737506478 705.714754335 116.737506478 703.525940694 c 0
 116.737506478 703.185587956 116.772414442 702.979470619 116.790801233 702.901133639 c 2
 152.089838188 667.602096683 l 1
 152.089838188 667.602096683 152.753384077 667.144660941 156 667.144660941 c 0
 159.849854758 667.144660941 162.897648085 668.649862789 165.440268826 671.192483531 c 2
 200.795607887 706.547822591 l 2
 206.149900928 711.902115633 208.855339059 722.055665552 208.855339059 730 c 0
EndSplineSet
EndChar
StartChar: uni09A0
Encoding: 2464 2464 125
Width: 484
Flags: HW
HStem: 60.6447 70.7107<216.689 384.033> 68.4789 70.7107<177.804 305.598> 742.645 70.7107<-1 18.6762 378.472 467 485 485> 758.645 70.7107<226.376 484.719> 868.645 70.7107<77.0319 163>
VStem: 5.64466 70.7107<817.146 857.982> 105.645 70.7107<141.512 251.893> 263.645 70.7107<473.803 654.848> 425.645 70.7107<185.895 424.32>
LayerCount: 2
Fore
SplineSet
226.013851428 813.876328257 m 1
 275.936310266 814.566261589 326.389801847 831.855339059 377 831.855339059 c 0
 408.822228604 831.855339059 438.598554021 822.360839041 467.335150446 817.833676395 c 1
 485.278660571 815.839953048 l 2
 485.85733512 815.775655876 486.376674888 815.513504796 486.767420313 815.122759372 c 2
 522.122759372 779.767420313 l 2
 522.575285934 779.31489375 522.855339059 778.68989375 522.855339059 778 c 0
 522.855339059 777.31010625 522.575285934 776.68510625 522.122759372 776.232579687 c 2
 486.767420313 740.877240628 l 2
 486.31489375 740.424714066 485.68989375 740.144660941 485 740.144660941 c 0
 484.905812333 740.144660941 484.812834224 740.149880864 484.721339429 740.160046952 c 0
 478.705367193 740.828488312 472.584358807 741.235075001 466.609051145 742.175107939 c 0
 438.157831916 746.651042015 408.00409721 756.144660941 377 756.144660941 c 0
 325.86496089 756.144660941 274.36921226 738.144660941 223 738.144660941 c 0
 222.705941672 738.144660941 222.552337902 738.183088179 222.19379479 738.183088179 c 0
 221.456340834 738.183088179 220.616330623 738.106093088 219.807142847 738.106093088 c 0
 218.853025666 738.106093088 217.195313774 738.106093088 215.913538037 739.387868824 c 2
 180.558198978 774.743207884 l 2
 179.777291445 775.524115417 179.440609105 776.609299312 179.440609105 777.587539175 c 0
 179.440609105 779.075604878 180.26686048 782.157040164 181.877240629 783.767420313 c 2
 217.232579687 819.122759372 l 2
 217.68510625 819.575285934 218.31010625 819.855339059 219 819.855339059 c 0
 219.689895761 819.855339059 220.314897393 819.575284302 220.767424269 819.122755415 c 2
 226.013851428 813.876328257 l 1
377 826.855339059 m 0
 326.405145234 826.855339059 275.568756969 809.324587689 225.014074271 808.864544269 c 0
 224.301004434 808.864544269 223.676002802 809.144493622 223.223475926 809.597022509 c 2
 219 813.820498434 l 1
 185.654252228 780.474750662 l 2
 184.94715733 779.202942784 184.614975664 778.313680079 184.495867009 777.875221103 c 2
 219.237146216 743.133941896 l 2
 219.343212761 743.120692146 219.524264195 743.106093088 219.807142847 743.106093088 c 0
 220.544600021 743.106093088 221.384609216 743.183088179 222.19379479 743.183088179 c 0
 222.491522692 743.183088179 222.801125285 743.174484891 223.126320331 743.144698037 c 0
 274.164787757 743.174673236 325.619731487 761.144660941 377 761.144660941 c 0
 408.821267943 761.144660941 438.599098806 751.650075529 467.335150455 747.122998276 c 1
 484.082662085 745.262163651 l 1
 516.820498434 778 l 1
 483.853327606 810.967170828 l 1
 478.12567489 811.603576686 472.297831658 811.990829452 466.609051145 812.885786057 c 0
 438.157255149 817.36181087 408.00509703 826.855339059 377 826.855339059 c 0
307 58.1446609407 m 0
 277.038831292 58.1446609407 245.027223824 66.5111725299 215.289740968 66.5111725299 c 0
 210.346747765 66.5111725299 205.509029358 65.9788626762 200.495739331 65.9788626762 c 0
 183.305929462 65.9788626762 164.859163906 72.7298481531 152.49138057 85.0976314892 c 2
 117.13604151 120.452970549 l 2
 109.441080803 128.147931255 104.116718189 138.071225678 103.15314229 149.792794552 c 0
 103.147525147 149.861125163 103.144660941 149.930230735 103.144660941 150 c 0
 103.144660941 227.809629231 141.899955836 293.675892135 180.806282168 359.980749732 c 0
 220.881305944 428.277322426 261.144660941 497.055575306 261.144660941 580 c 0
 261.144660941 616.818664579 249.483291854 642.082075735 229.930323745 665.568903462 c 1
 197.819372464 693.094950283 155.805385283 713.29647326 114.361589054 724.227055556 c 0
 114.288641588 724.246295069 114.216994706 724.268752164 114.146809676 724.294265576 c 0
 79.1324910246 737.022545492 36.2790439567 730.798498739 -1.60438888509 740.218339614 c 0
 -2.05170161747 740.329565404 -2.45157183273 740.561392149 -2.76742031249 740.877240628 c 2
 -38.1227593718 776.232579687 l 2
 -38.5752859343 776.68510625 -38.8553390593 777.31010625 -38.8553390593 778 c 0
 -38.8553390593 778.68989375 -38.5752859343 779.31489375 -38.1227593718 779.767420313 c 2
 -2.76742031249 815.122759372 l 2
 -2.31489374999 815.575285934 -1.68989375 815.855339059 -1 815.855339059 c 0
 -0.791629126637 815.855339059 -0.589178127427 815.829791464 -0.395611114868 815.781660386 c 0
 4.176837403 814.644705939 8.88272568752 813.750826455 13.6912406719 813.03042026 c 1
 6.982405805 823.544452638 3.14466094067 835.796853522 3.14466094067 850 c 0
 3.14466094067 860.664225418 7.32819949704 868.851190661 13.6430778178 875.166068982 c 2
 48.998416877 910.52140804 l 2
 58.3904674027 919.913458567 72.2722957982 925.321591243 84.6852166237 930.244966812 c 0
 93.8723259825 933.888878701 102.287681686 937.292820553 107.465033301 941.328186254 c 0
 107.865754286 941.64051886 108.363948097 941.833524879 108.906011733 941.85360131 c 2
 108.906011733 941.85360131 162.906011733 943.85360131 163 943.855339059 c 0
 163.68989375 943.855339059 164.31489375 943.575285934 164.767420313 943.122759372 c 2
 200.122759371 907.767420313 l 2
 200.575285934 907.31489375 200.855339059 906.68989375 200.855339059 906 c 0
 200.855339059 905.31010625 200.575285934 904.68510625 200.122759371 904.232579687 c 2
 164.767420313 868.877240628 l 2
 164.335534656 868.445354972 163.746550649 868.170567667 163.093988267 868.14639869 c 2
 109.880908533 866.175543885 l 1
 102.07631383 860.4070497 89.2765024673 856.092037612 78.9017360833 851.814732496 c 0
 78.8709983235 851.220925111 78.8553390593 850.616145744 78.8553390593 850 c 0
 78.8553390593 839.412779588 80.8068527912 831.033102028 84.7605102321 822.689122949 c 1
 129.345581134 796.769444513 188.928520579 791.138611374 245.493013889 779.806649013 c 0
 285.667291979 771.758167297 317.203367718 753.66640398 342.124100376 728.745671322 c 2
 377.479439437 693.390332262 l 2
 447.463305137 623.406466561 465.419604418 500.166282736 481.198194978 393.219258288 c 0
 486.673345322 356.1087803 491.869556145 320.914306539 498.792866398 290.557370699 c 0
 498.83374715 290.378119107 498.855339059 290.191561186 498.855339059 290 c 0
 498.855339059 233.202971313 480.871224478 172.665480029 442.130158061 133.924413612 c 2
 406.774819002 98.5690745515 l 2
 382.070207692 73.8644632416 348.921053733 58.1446609407 307 58.1446609407 c 0
200.495739331 70.9788626762 m 0
 205.42597106 70.9788626762 210.265347831 71.5111725299 215.289740968 71.5111725299 c 0
 245.240272002 71.5111725299 277.251999919 63.1446609407 307 63.1446609407 c 0
 347.607821153 63.1446609407 379.400613796 78.2645505964 403.239978377 102.103915177 c 2
 438.595317435 137.459254236 l 2
 475.980115426 174.844052227 493.795219117 233.969548208 493.855185469 289.717570962 c 1
 486.899220216 320.291973208 481.71104265 355.482559864 476.251907718 392.484474306 c 0
 460.444734396 499.625232248 442.226819441 621.573271007 373.944598811 689.855491637 c 2
 338.589259751 725.210830697 l 2
 314.322383142 749.477707306 283.750589519 767.041997987 244.506986111 774.904029105 c 0
 187.119086818 786.400950172 127.599291483 791.697671925 81.5734623358 818.760572126 c 0
 81.1493789142 819.009930531 80.8051630821 819.380791103 80.5887984947 819.825170188 c 0
 76.4160091176 828.395428143 73.8553392457 839.125227633 73.8553390593 850 c 0
 73.8553390593 852.502821104 73.6993577701 855.056519088 75.5540160586 855.837557735 c 0
 85.8833389803 860.187469765 100.613827909 865.277496232 107.465033301 870.617508136 c 0
 107.865754286 870.929840742 108.363948097 871.122846761 108.906011733 871.142923192 c 2
 161.92716816 873.106669726 l 1
 194.820498434 906 l 1
 162.003799006 938.816699428 l 1
 109.882232976 936.886271057 l 1
 103.830712338 932.397312818 95.3845230344 929.108833317 86.5258548387 925.595192074 c 0
 74.0748109824 920.656695647 60.8667847189 915.320094633 52.5332575022 906.986567416 c 2
 17.1779184428 871.631228356 l 2
 11.6297940236 866.083103937 8.14466094067 859.280293112 8.14466094067 850 c 0
 8.14466094067 834.679078278 12.8544041444 822.01987035 20.9895427525 811.297432419 c 0
 21.3078063773 810.877948237 21.4967454731 810.355068629 21.4967454731 809.788408162 c 0
 21.4967454731 808.408620662 20.3765329731 807.288408162 18.9967454731 807.288408162 c 0
 18.893190939 807.288408162 18.7910985037 807.294717942 18.6908319907 807.306973679 c 0
 12.2586252908 808.093192637 5.93109601671 809.133443006 -0.226245949367 810.594252485 c 1
 -32.8204984343 778 l 1
 0.272961399508 744.906540166 l 1
 38.1699238023 735.68683 80.1752862517 741.922266364 115.746896862 729.033632966 c 0
 157.864384073 717.909515929 200.527919305 697.410916559 233.344246821 669.226779501 c 0
 233.449886948 669.13605101 233.547875216 669.036659259 233.637105031 668.929710842 c 0
 253.824936593 644.733127739 266.144660941 618.077034932 266.144660941 580 c 0
 266.144660941 495.375432992 225.151199558 425.67436524 185.121877928 357.45567896 c 0
 146.182292107 291.094139947 108.179714932 226.148430653 108.144687486 150.105222306 c 0
 109.023572384 139.727516065 113.705463177 130.953227823 120.670882134 123.987811173 c 2
 156.026221194 88.6324721142 l 2
 167.287683602 77.3710097061 184.562009898 70.9788626762 200.495739331 70.9788626762 c 0
307 128.855339059 m 0
 277.038831292 128.855339059 245.027223824 137.221850649 215.289740968 137.221850649 c 0
 210.346747765 137.221850649 205.509029358 136.689540795 200.495739331 136.689540795 c 0
 192.541240037 136.689540795 184.352065708 138.140703798 176.612891963 140.904531054 c 0
 174.356357918 141.710388436 173.855339059 147.208758419 173.855339059 150 c 0
 173.855339059 227.809629231 212.610633954 293.675892135 251.516960287 359.980749732 c 0
 291.591984063 428.277322426 331.855339059 497.055575306 331.855339059 580 c 0
 331.855339059 625.523623938 314.035215277 653.492471555 285.375514828 682.152172005 c 2
 269.871458018 697.656228813 l 2
 269.418931456 698.108755376 269.138878331 698.733755376 269.138878331 699.423649126 c 0
 269.138878331 700.803436626 270.259090831 701.923649126 271.638878331 701.923649126 c 0
 271.926188905 701.923649126 272.202244578 701.875077883 272.459275038 701.785705708 c 0
 291.61033973 695.126680572 308.482587697 685.866608398 323.366903915 674.484763813 c 0
 323.537866881 674.354030639 323.691493072 674.20174812 323.823710619 674.031988127 c 0
 379.819151839 602.136948675 396.069473544 490.944508777 410.48751686 393.219258288 c 0
 415.962667204 356.1087803 421.158878026 320.914306539 428.08218828 290.557370699 c 0
 428.123069032 290.378119107 428.144660941 290.191561186 428.144660941 290 c 0
 428.144660941 242.135550416 415.371874328 191.681330409 388.208667166 153.785540029 c 0
 388.042070633 153.553118752 387.836632189 153.350388942 387.601878811 153.186877577 c 0
 365.713118232 137.940830179 338.882904252 128.855340073 307 128.855339059 c 0
200.495739331 141.689540795 m 0
 205.42597106 141.689540795 210.265347831 142.221850649 215.289740968 142.221850649 c 0
 245.240272002 142.221850649 277.251999919 133.855339059 307 133.855339059 c 0
 337.732718375 133.855339059 363.395552133 142.522894052 384.3939611 157.046148349 c 1
 410.547977279 193.736064318 423.094200661 242.948150255 423.144507355 289.717570959 c 1
 416.1885421 320.291973206 411.000364535 355.482559863 405.5412296 392.484474306 c 0
 391.127204633 490.182488497 374.722385686 600.328589267 320.076126413 670.707301332 c 0
 308.557688521 679.481994068 295.829908699 686.947719762 281.713214649 692.884153433 c 1
 288.910355453 685.68701263 l 2
 318.023430835 656.573937247 336.855339059 627.068996256 336.855339059 580 c 0
 336.855339059 495.375432992 295.861877677 425.67436524 255.832556047 357.45567896 c 0
 216.892970238 291.09413997 178.890393077 226.148430698 178.855365837 150.105222386 c 0
 178.998446767 148.415934522 179.242555099 146.770675443 179.580548018 145.169548479 c 0
 186.41254054 142.883630057 193.59520113 141.689540795 200.495739331 141.689540795 c 0
EndSplineSet
EndChar
StartChar: uni09A5
Encoding: 2469 2469 130
Width: 578
Flags: HW
HStem: 362.645 84.7107<-4.92428 65.3381> 742.676 70.7107<-1 18.1044 118.012 173.544 545 566.916>
VStem: 5.64466 114.711<653.07 741.433> 199.645 70.7107<544.153 722.223> 283.645 64.4051<130.272 153.331> 293.902 70.7107<78 107.352 214.767 383.436>
LayerCount: 2
Fore
SplineSet
-26.9557290399 401.378738962 m 0
 -26.9557290399 402.28717281 -26.8553390593 403.174308884 -26.8553390593 404 c 0
 -26.8553390593 406.081355141 -25.8753329967 407.820185467 -24.6072118278 409.088306637 c 2
 10.7481272314 444.443645695 l 2
 15.0953991485 448.790917613 23.6234330733 449.855339059 27 449.855339059 c 0
 40.7003787998 449.855339059 53.6834637607 448.1486376 66.0204688562 444.976201811 c 1
 91.0300603138 453.730009614 115.217298225 468.327786009 137.037245545 486.667649327 c 1
 173.441473132 529.766667474 190.1548876 611.564738387 197.144660941 628 c 1
 197.144660941 663.756003699 189.307949245 698.974146788 172.457702812 725.937151205 c 1
 158.138601943 734.447489755 140.833604756 739.914316144 120.345005201 740.167022335 c 1
 120.680905006 738.194388135 120.855339059 736.13843057 120.855339059 734 c 0
 120.855339059 712.011596241 122.855339059 690.048603822 122.855339059 668 c 0
 122.855339059 663.186644631 121.763711964 656.613976051 117.715368352 652.565632439 c 2
 82.360029885 617.210293972 l 2
 80.5236938378 615.373957924 78.0085008209 614.144660941 75 614.144660941 c 0
 66.4522839013 614.144660941 59.4554188559 617.759388946 54.0855426945 623.129265107 c 2
 18.7302036351 658.484604167 l 2
 7.77367746691 669.441130335 3.1446780718 687.583192961 3.1446780718 700.009344505 c 0
 3.19789015422 714.520118131 7.2271483493 728.107566175 14.0914067964 739.83350373 c 1
 10.8100566192 740.049426713 7.74349631376 740.144660939 5 740.144660941 c 2
 -1 740.144660941 l 2
 -1.68989375 740.144660941 -2.31489374999 740.424714066 -2.76742031249 740.877240628 c 2
 -38.1227593718 776.232579687 l 2
 -38.5752859343 776.68510625 -38.8553390593 777.31010625 -38.8553390593 778 c 0
 -38.8553390593 778.68989375 -38.5752859343 779.31489375 -38.1227593718 779.767420313 c 2
 -2.76742031249 815.122759372 l 2
 -2.31489374999 815.575285934 -1.68989375 815.855339059 -1 815.855339059 c 2
 5 815.855339059 l 2
 22.3679438594 815.855339059 51.7980558943 812.359038947 70.0069811976 798.682737242 c 1
 83.7670853029 809.453823074 100.860576747 815.886855475 118.857396573 815.886855475 c 0
 151.446030268 815.886855475 176.928511351 803.509626557 195.365097744 785.073040163 c 2
 230.720436803 749.717701104 l 2
 259.972379016 720.465758891 272.855339059 674.472057103 272.855339059 628 c 0
 272.855339059 573.666323591 240.774230413 511.121745444 194.229547469 464.5770625 c 2
 158.87420841 429.221723442 l 2
 151.443166446 421.790681477 143.638558693 414.765313136 135.528458315 408.245145029 c 1
 142.402179109 402.603409564 149.051671197 396.514997682 155.507411827 390.059257052 c 2
 190.862750886 354.703917993 l 2
 228.373237666 317.193431212 259.359468354 267.33869514 289.660103058 220.187528599 c 1
 290.725881792 225.96238325 291.401545189 231.776814666 291.401545189 237.685846369 c 0
 291.401545189 239.775511473 291.144660941 241.882902339 291.144660941 244 c 0
 291.144660941 244.124511455 291.153783037 244.246909142 291.171394799 244.366560635 c 2
 294.797575227 269.002247013 l 2
 315.730573396 411.765705543 337.921975936 563.826139741 427.668282135 679.530424952 c 0
 432.683142585 685.994925225 507.775906363 777.666086047 507.877240628 777.767420313 c 2
 543.232579687 813.122759372 l 2
 543.524383647 813.414563331 543.887903668 813.63465123 544.29429468 813.754177998 c 2
 578.29429468 823.754177998 l 2
 578.518130646 823.820012106 578.754972352 823.855339059 579 823.855339059 c 0
 579.68989375 823.855339059 580.31489375 823.575285934 580.767420313 823.122759372 c 2
 616.122759372 787.767420313 l 2
 616.575285934 787.31489375 616.855339059 786.68989375 616.855339059 786 c 0
 616.855339059 785.31010625 616.575285934 784.68510625 616.122759372 784.232579687 c 2
 580.767420313 748.877240628 l 2
 580.475616353 748.585436669 580.112096332 748.36534877 579.705705321 748.245822002 c 2
 554.894462001 740.948397496 l 1
 532.893375442 714.055326774 505.127903003 680.074050148 502.331815365 676.46970074 c 0
 413.648488205 562.135847751 391.400866631 411.121806821 370.454986084 268.270490217 c 2
 366.870301278 243.916715834 l 2
 367.035374008 241.821531582 367.112223308 239.744856554 367.112223308 237.685846369 c 0
 367.112223308 211.008680332 354.104279519 187.278867316 352.85226916 161.875144159 c 0
 352.837767882 161.580908225 352.772298154 161.299981052 352.66451339 161.041016053 c 0
 351.240844937 157.620492741 350.549761065 153.871569138 350.549761065 150.076185871 c 0
 350.549761065 143.502981582 352.634502894 136.785004959 356.400714417 131.437110309 c 0
 356.687100593 131.030451498 356.855339059 130.53471781 356.855339059 130 c 2
 356.855339059 127.37983555 l 1
 359.897641534 124.068929444 362.951301858 120.938877826 366.122759372 117.767420313 c 0
 366.575285934 117.31489375 366.855339059 116.68989375 366.855339059 116 c 0
 366.855339059 115.955294107 366.854163064 115.910860714 366.851840347 115.866729096 c 2
 364.851840347 77.8667290964 l 2
 364.818319294 77.2298290877 364.545961702 76.6557820182 364.122759372 76.2325796875 c 2
 328.767420313 40.8772406282 l 2
 328.31489375 40.4247140657 327.68989375 40.1446609407 327 40.1446609407 c 0
 326.31010625 40.1446609407 325.68510625 40.4247140657 325.232579687 40.8772406282 c 2
 289.877240628 76.2325796875 l 2
 289.530045849 76.5797744665 289.28437781 77.0284959847 289.188823232 77.5301575193 c 2
 281.188823232 119.530157519 l 2
 281.15983393 119.682351352 281.144660941 119.839417738 281.144660941 120 c 2
 281.144660941 125.444291295 l 1
 255.74281301 153.505379658 232.538218636 189.725731331 208.734489524 226.848630213 c 0
 185.33577395 263.339898509 161.364883876 300.704548661 134.349438659 332.016681271 c 1
 113.791285056 349.262472623 91.3619524489 362.308560078 66.2186804381 369.043181 c 1
 49.4293733246 363.321691729 32.2179639257 360.144662844 15 360.144660941 c 0
 12.9744462901 360.144660941 11.1815140324 360.517079687 9.88111365901 361.817480061 c 2
 -25.4742254003 397.172819121 l 2
 -26.8394898381 398.538083558 -26.9557290399 400.240847088 -26.9557290399 401.378738962 c 0
117.855339059 668 m 0
 117.855339059 689.979776899 115.855339059 711.943318034 115.855339059 734 c 0
 115.855339059 736.87390264 115.49521239 739.533337006 114.828084512 742.00643008 c 0
 114.772016163 742.214279653 114.74210439 742.432815562 114.74210439 742.658282611 c 0
 114.74210439 744.868004692 116.587347143 745.176177356 118.857396573 745.176177356 c 0
 141.151533471 745.176177356 160.0383056 739.257299953 175.542882877 729.917795988 c 0
 175.878079248 729.715883496 176.162145819 729.437566048 176.370897664 729.107028572 c 0
 194.11174856 701.016181797 202.144660914 664.69382428 202.144660941 628 c 0
 202.144660941 580.635076268 177.759330448 527.068562242 140.718338809 483.278549381 c 0
 140.626711429 483.170227114 140.526041188 483.069794145 140.417498045 482.978420431 c 0
 117.952812166 464.067213966 92.9568104688 448.986841984 66.9410375829 440.001682075 c 0
 66.6853967709 439.913390499 66.4110197534 439.865432956 66.1255300413 439.865432956 c 0
 65.9059655691 439.865432956 65.6929740811 439.893799089 65.4900235035 439.947063429 c 0
 53.3365330281 443.136744676 40.5428564774 444.855339059 27 444.855339059 c 0
 24.3982712385 444.855339059 16.7050763869 443.330913601 14.2829678566 440.908805071 c 2
 -21.0723712028 405.553466011 l 2
 -21.6843373833 404.941499831 -21.8553390593 404.477772359 -21.8553390593 404 c 0
 -21.8553390593 403.088518101 -21.9557290399 402.200105034 -21.9557290399 401.378738962 c 0
 -21.9557290399 400.974696451 -21.9071689751 400.734235571 -21.8879504386 400.656225409 c 2
 13.415954284 365.352320687 l 1
 13.415954284 365.352320687 13.6713024903 365.144660941 15 365.144660941 c 0
 31.8281842318 365.144660941 48.7440421448 368.297055389 65.3100226458 374.018505769 c 0
 65.5656634161 374.106797312 65.8400403833 374.154754837 66.1255300407 374.154754837 c 0
 66.3450945128 374.154754837 66.5580860007 374.126388704 66.7610365783 374.073124364 c 0
 93.1211180886 367.154926023 116.49569794 353.548677271 137.717123138 335.716726394 c 0
 137.819736937 335.630502015 137.915330901 335.536188033 138.002918809 335.43477067 c 0
 165.400812587 303.710960997 189.508822182 266.094519352 212.94661649 229.542306145 c 0
 236.952556925 192.104050354 260.262490415 155.783620678 285.492883542 128.092154178 c 0
 285.897707683 127.647841872 286.144660941 127.057223324 286.144660941 126.409380908 c 2
 286.144660941 120.237990455 l 1
 293.957166783 79.2223347826 l 1
 327 46.1795015657 l 1
 359.909119351 79.0886209166 l 1
 361.800338627 115.021787178 l 1
 358.649729731 118.185714868 355.582701535 121.351017703 352.507116459 124.726607638 c 0
 352.102292317 125.170919944 351.855339059 125.761538492 351.855339059 126.409380908 c 2
 351.855339059 129.224261039 l 1
 347.755715633 135.33529351 345.549761065 142.725781531 345.549761065 150.076185871 c 0
 345.549761065 154.33916789 346.29548418 158.586893681 347.880580587 162.553045958 c 0
 349.259815129 187.968780216 362.112223308 211.751464147 362.112223308 237.685846369 c 0
 362.112223308 239.775511473 361.855339059 241.882902338 361.855339059 244 c 0
 361.855339059 244.124511455 361.864461155 244.246909142 361.882072917 244.366560635 c 2
 365.5084538 269.003611487 l 2
 386.441451969 411.767070017 408.632556555 563.826014049 498.378862753 679.53029926 c 0
 501.339215216 683.346397333 529.40373738 717.685554769 551.513802419 744.711208188 c 0
 551.828362774 745.095702721 552.255117141 745.384918251 552.743883935 745.52867319 c 2
 577.684708162 752.864209728 l 1
 610.820498434 786 l 1
 578.282568088 818.537930346 l 1
 546.315291838 809.135790272 l 1
 511.500435426 774.32093386 l 2
 508.771128346 770.988530336 436.290395944 682.488696558 431.621039747 676.469575048 c 0
 342.937712586 562.135722059 320.690388968 411.123171295 299.744508419 268.271854691 c 2
 296.159623159 243.916715853 l 2
 296.324695888 241.821531595 296.401545189 239.744856561 296.401545189 237.685846369 c 0
 296.401545189 229.221211365 295.105456313 221.076450336 293.310234019 213.133001501 c 0
 293.058412186 212.018747375 292.061545875 211.18562356 290.871628589 211.18562356 c 0
 289.989778525 211.18562356 289.213958264 211.643201947 288.768849607 212.333676919 c 0
 257.463287685 260.89644166 225.584007254 312.912980374 187.327910261 351.169077367 c 2
 151.972571201 386.524416428 l 2
 144.872638508 393.624349121 137.552429907 400.254576665 129.975239422 406.309784061 c 0
 129.401794045 406.768045035 129.034172862 407.473287968 129.034172862 408.263715871 c 0
 129.034172862 409.061730997 129.408885421 409.772917943 129.991809472 410.230775644 c 0
 138.818273461 417.163521856 147.299260511 424.716456792 155.339367784 432.756564066 c 2
 190.694706845 468.111903126 l 2
 236.537835087 513.955031368 267.855339059 575.551663385 267.855339059 628 c 0
 267.855339059 673.637193883 255.087303808 718.281152849 227.185596178 746.182860479 c 2
 191.830257118 781.538199538 l 2
 174.259415471 799.109041187 150.119617478 810.886855475 118.857396573 810.886855475 c 0
 101.429974957 810.886855475 84.7957018564 804.400921054 71.6126886786 793.562129671 c 0
 71.1810178407 793.207219143 70.6285019604 792.994040209 70.0265883793 792.994040209 c 0
 69.4282111727 792.994040209 68.8786529274 793.204721556 68.4481090626 793.55588883 c 0
 52.1029601533 806.887588249 22.3621197537 810.855339059 5 810.855339059 c 2
 0.0348406249938 810.855339059 l 1
 -32.8204984343 778 l 1
 0.0348406249938 745.144660941 l 1
 5 745.144660941 l 2
 9.01026153218 745.144660941 13.6360762261 744.950504577 18.6087855518 744.491743731 c 0
 19.879912198 744.374475035 20.8766390458 743.303918315 20.8766390458 742.002400619 c 0
 20.8766390458 741.497531669 20.7266590539 741.027415997 20.4688609176 740.634215451 c 0
 12.7745978932 728.898721666 8.19952546657 714.95671706 8.14464380954 699.990655495 c 0
 8.14464380954 688.617316361 12.7141436271 671.570345425 22.2650442601 662.019444791 c 2
 57.6203833195 626.664105733 l 2
 62.2467129463 622.037776106 67.9330647833 619.144660941 75 619.144660941 c 0
 76.6320436735 619.144660941 77.7939492778 619.713894614 78.825188077 620.745133414 c 2
 114.180527728 656.100473064 l 2
 116.596458328 658.516403665 117.855339059 663.840583587 117.855339059 668 c 0
EndSplineSet
EndChar
StartChar: uni09A6
Encoding: 2470 2470 131
Width: 472
Flags: HW
HStem: 748.645 70.7107<-5 190.53 271 477>
VStem: 161.645 70.7107<109.834 256.98>
LayerCount: 2
Fore
SplineSet
233.144660941 782 m 0
 233.144660941 782.68989375 233.424714066 783.31489375 233.877240629 783.767420313 c 2
 269.232579687 819.122759372 l 2
 269.679694603 819.569874287 270.295182492 819.848616229 270.975277248 819.855219091 c 2
 270.975277248 819.855219091 476.975277248 821.855219091 476.975736246 821.855219129 c 0
 477.690161374 821.855219129 478.314990639 821.575189045 478.767420313 821.122759372 c 2
 514.122759372 785.767420313 l 2
 514.575285934 785.31489375 514.855339059 784.68989375 514.855339059 784 c 0
 514.855339059 783.31010625 514.575285934 782.68510625 514.122759372 782.232579687 c 2
 478.767420313 746.877240628 l 2
 478.320305397 746.430125713 477.704817508 746.151383771 477.024722752 746.144780909 c 2
 477.024722752 746.144780909 271.024722752 744.144780909 271.024263754 744.144780871 c 0
 270.309838626 744.144780871 269.685009361 744.424810955 269.232579687 744.877240628 c 2
 233.877240629 780.232579687 l 2
 233.424714066 780.68510625 233.144660941 781.31010625 233.144660941 782 c 0
239.179501566 782 m 1
 272.02477133 749.154730236 l 1
 475.955135114 751.13463668 l 1
 508.820498434 784 l 1
 475.97522867 816.845269764 l 1
 272.044864886 814.86536332 l 1
 239.179501566 782 l 1
3 821.855339059 m 2
 38.9375753921 821.855339059 75.1506361663 817.855276772 111.017815935 817.855276772 c 0
 111.99097417 817.848470319 112.963456364 817.845095742 113.935264299 817.845095742 c 0
 158.83359445 817.845095742 202.313887989 825.053397191 244.490361701 833.803259405 c 0
 244.747874431 833.85668121 245.024526476 833.892014683 245.329668917 833.892014683 c 0
 246.107490638 833.892014683 247.040248339 833.602278721 247.716967577 832.925559483 c 2
 283.072306637 797.570220424 l 2
 284.085136195 796.557390866 284.165232188 795.381795576 284.165232188 794.525630601 c 0
 284.165232188 782.836980019 252.695582504 726.617083426 214.132968622 656.262802762 c 0
 180.232236131 594.413736832 140.661418945 522.215441285 111.694848821 462.666310289 c 1
 170.197223626 513.71116899 330.181540246 571.135025988 336.787740581 571.135025988 c 0
 336.927551205 571.135025988 336.998664434 571.109306091 336.998664434 571.057261505 c 0
 336.998664434 570.90061102 336.354402049 570.505467546 335 569.855339059 c 1
 335.68989375 569.855339059 336.31489375 569.575285934 336.767420313 569.122759372 c 2
 372.122759372 533.767420313 l 2
 372.575285934 533.31489375 372.855339059 532.68989375 372.855339059 532 c 0
 372.855339059 531.31010625 372.575285934 530.68510625 372.122759372 530.232579687 c 2
 336.767420313 494.877240628 l 2
 336.553242889 494.663063205 336.300430418 494.487520829 336.020388527 494.362019125 c 0
 286.385392033 404.99188336 237.895765754 144.83036393 234.855339059 134 c 1
 234.855339059 128.585244385 235.427490542 119.276401867 237.408915527 110.671347604 c 1
 257.518038254 90.562224877 l 2
 257.933824104 90.1464390265 258.891311548 89.5367649783 258.891311548 87.8257151467 c 0
 258.891311548 87.1623663322 258.602462119 86.3848721846 258.07870133 85.8611113976 c 2
 222.723362271 50.5057723386 l 2
 221.915920857 49.6983309231 221.287508389 49.5729039875 220.798998254 49.5729039875 c 0
 220.578826855 49.5729039875 220.387073855 49.598381995 220.220157182 49.598381995 c 0
 219.233549842 49.598381995 218.177623687 49.7895762869 216.685668479 50.1479272625 c 0
 212.517570713 50.2347352248 209.006804928 52.0450363252 206.267885369 54.7839562744 c 2
 170.912546309 90.1392953338 l 2
 160.676380249 100.375461393 159.144660941 123.777253816 159.144660941 134 c 0
 159.144660941 173.790477581 202.399743177 369.363483337 248.413515942 471.547880608 c 1
 202.995804541 451.965360219 154.292158108 421.871235814 117.63458545 390.479058891 c 0
 110.396603712 381.66908091 104.606679202 373.056711812 100.600695987 364.900196651 c 0
 99.4491788503 362.555818011 97.1754132936 359.769235981 94.2935304423 356.887353129 c 2
 58.9381913831 321.532014071 l 2
 53.5382127961 316.132035483 45.8054895055 310.083659322 39.0835529561 310.083659322 c 0
 37.0250636852 310.083659322 34.9331612487 310.746206108 33.3302460439 312.349121313 c 2
 -2.02509301534 347.704460372 l 2
 -3.35771118753 349.037078544 -4.85533905933 351.483014801 -4.85533905933 354 c 0
 -4.85533905933 409.748316959 134.495548536 646.766914682 187.247773309 747.751939869 c 1
 163.286263767 744.32611819 138.854296055 742.134417623 113.935264299 742.134417623 c 0
 112.951653349 742.134417623 111.985109348 742.144660941 111 742.144660941 c 0
 75.0537127201 742.144660941 38.8499702031 746.144660941 3 746.144660941 c 2
 -5 746.144660941 l 2
 -5.68989375 746.144660941 -6.31489374999 746.424714066 -6.76742031249 746.877240628 c 2
 -42.1227593718 782.232579687 l 2
 -42.5752859343 782.68510625 -42.8553390593 783.31010625 -42.8553390593 784 c 0
 -42.8553390593 784.68989375 -42.5752859343 785.31489375 -42.1227593718 785.767420313 c 2
 -6.76742031249 821.122759372 l 2
 -6.31489374999 821.575285934 -5.68989375 821.855339059 -5 821.855339059 c 2
 3 821.855339059 l 2
3 751.144660941 m 2
 38.9337862005 751.144660941 75.1379640969 747.144660941 111 747.144660941 c 0
 111.973158236 747.144660941 112.963456365 747.134417623 113.935264299 747.134417623 c 0
 140.217595473 747.134417623 166.013994247 749.603207935 191.347979087 753.406926711 c 0
 191.469893363 753.425231278 191.594676951 753.434718975 191.721659023 753.434718975 c 0
 193.101446523 753.434718975 194.221659023 752.314506475 194.221659023 750.934718975 c 0
 194.221659023 750.521312609 194.121097852 750.131208221 193.943123599 749.787553897 c 0
 142.40017253 650.262158398 0.584299665775 407.641995634 0.145671400611 354.24478853 c 0
 0.486042679137 352.627596478 1.02557344943 351.723476105 1.50974760942 351.239300998 c 2
 36.8650866689 315.883961939 l 2
 37.3991089737 315.349939634 38.0377851444 315.083659322 39.0835529561 315.083659322 c 0
 42.9820491921 315.083659322 50.2436415741 319.907145511 55.4033507579 325.066854695 c 2
 90.7586898173 360.422193755 l 2
 93.3889393574 363.052443295 95.4189518395 365.692931837 96.1099821314 367.099803349 c 0
 100.366727366 375.766897071 106.424127847 384.729421031 113.911750161 393.822674801 c 0
 114.004208804 393.934960099 114.10626379 394.039053229 114.216655291 394.133694363 c 0
 152.960465434 427.34964018 204.737248105 458.951876928 252.418639441 478.667946925 c 0
 252.712577691 478.789489249 253.03466905 478.856565527 253.372303285 478.856565527 c 0
 254.752090785 478.856565527 255.872303285 477.736353027 255.872303285 476.356565527 c 0
 255.872303285 475.978476477 255.788190076 475.619878092 255.637671513 475.298478226 c 0
 209.145376913 376.024229657 164.144660941 172.869160014 164.144660941 134 c 0
 164.144660941 123.97321459 166.379549351 101.741973541 174.447386933 93.6741359588 c 2
 209.802725993 58.3187968994 l 2
 211.87188676 56.2496361326 214.161969198 55.1446609407 217 55.1446609407 c 0
 217.958921987 55.1446609407 219.3415631 54.6985301009 219.787174475 54.639265793 c 2
 253.079245282 87.931336599 l 1
 233.369918091 107.64066379 l 2
 233.049488486 107.961093395 232.815535626 108.367999746 232.706253582 108.82318877 c 0
 230.457659673 118.189185557 229.855339059 128.103962661 229.855339059 134 c 0
 229.855339059 177.503435869 281.618836815 407.802105733 332.244761533 497.855712537 c 0
 332.590358653 498.470462141 333.188363128 498.924650137 333.897853193 499.077354759 c 2
 366.820498434 532 l 1
 333.970688337 564.849810097 l 1
 273.972993269 564.208759416 167.042506375 507.927466243 105.626821123 450.452584685 c 0
 105.179816514 450.034262608 104.579283818 449.778025128 103.919375919 449.778025128 c 0
 102.539588419 449.778025128 101.419375919 450.898237628 101.419375919 452.278025128 c 0
 101.419375919 452.66168998 101.505988311 453.025285059 101.660710199 453.350307468 c 0
 131.06816945 515.126203201 173.633518471 592.777886698 209.745286626 658.660803242 c 0
 248.064413687 728.570862459 278.875340716 785.965536114 279.163198541 794.40964727 c 1
 244.810337495 828.762508315 l 1
 202.719377456 820.050352412 159.128365885 812.845095742 113.935264299 812.845095742 c 0
 112.95165335 812.845095742 111.967293414 812.848511305 110.982184065 812.855401346 c 0
 75.0433917791 812.855401346 38.8437719752 816.855339059 3 816.855339059 c 2
 -3.96515937501 816.855339059 l 1
 -36.8204984343 784 l 1
 -3.96515937501 751.144660941 l 1
 3 751.144660941 l 2
EndSplineSet
EndChar
StartChar: uni09A7
Encoding: 2471 2471 132
Width: 471
Flags: HW
HStem: 630.931 70.7107<94.4538 203.393> 638.645 70.7107<66.5944 125.937> 882.645 70.7107<102.28 210.63>
VStem: -5.65649 70.7107<715.323 764.538>
LayerCount: 2
Fore
SplineSet
84.4125897501 832.383794911 m 0
 83.0328022501 832.383794911 81.9125897501 833.504007411 81.9125897501 834.883794911 c 0
 81.9125897501 835.323927472 82.0265735158 835.737647781 82.2266069819 836.097021771 c 0
 87.1788683108 844.994102589 93.0676091669 853.404409031 99.6276317794 861.406372051 c 0
 99.7210725925 861.520351831 99.8243818397 861.62593707 99.9362489541 861.721817202 c 0
 109.233370609 869.690282823 118.879149497 877.287681919 128.483436595 884.631715818 c 0
 128.904187269 884.953447892 129.429939745 885.144660941 130 885.144660941 c 0
 157.118620873 885.144660941 185.268493167 888.471815486 211.717807651 890.140322201 c 0
 211.770545484 890.143649071 211.823724972 890.145337691 211.877295746 890.145337691 c 0
 213.257083246 890.145337691 214.377295746 889.025125191 214.377295746 887.645337691 c 0
 214.377295746 886.8320784 213.988130482 886.108996262 213.386026265 885.652317586 c 0
 176.860180802 857.948517696 130.633450331 841.162234256 84.8834517919 832.428151624 c 0
 84.7309398992 832.399035744 84.5735306232 832.383794911 84.4125897501 832.383794911 c 0
89.3560078572 838.411146188 m 1
 129.877566921 846.719063798 170.316995961 861.503372752 203.378807818 884.555697858 c 1
 179.856169016 882.82635659 155.086477782 880.205781601 130.847610138 880.145715331 c 1
 121.56356597 873.036318579 112.281327806 865.71065817 103.355915972 858.068637795 c 0
 98.1979364937 851.762760595 93.4890775504 845.222403628 89.3560078572 838.411146188 c 1
67.8553390593 730 m 0
 67.8553390593 728.233488199 67.5541832947 726.482123587 67.5541832947 724.799468035 c 0
 67.5541832947 722.098215923 67.8195264325 719.51269547 68.3213376448 717.038808041 c 0
 76.7093837444 713.932741562 85.6739145375 712.180693174 94.0985551348 711.853428036 c 0
 94.5019074631 711.837759337 94.8808638156 711.726337002 95.2133092649 711.541275957 c 0
 104.433293291 706.408825267 114.97494365 704.142120103 126.491883544 704.142120103 c 0
 176.293175666 704.142120103 243.132062889 747.000074951 289.724302602 777.088124812 c 0
 314.40969252 793.029304014 333.138710833 805.712585864 342.458744965 805.712585864 c 0
 344.044653191 805.712585864 345.714651155 805.311087169 346.969580048 804.056158277 c 2
 375.220073743 775.805664581 l 1
 387.08181883 788.124808684 399.416852065 800.020730275 411.509490983 812.113369194 c 0
 415.062530713 815.666408923 418.465006946 818.68001605 422.140098052 818.68001605 c 0
 423.080989374 818.68001605 423.928809514 818.403707586 424.635757644 817.996114548 c 2
 471.586659845 825.821264914 l 2
 471.721127885 825.843676254 471.859212693 825.855339059 472 825.855339059 c 0
 472.68989375 825.855339059 473.31489375 825.575285934 473.767420313 825.122759372 c 2
 509.122759372 789.767420313 l 2
 509.575285934 789.31489375 509.855339059 788.68989375 509.855339059 788 c 0
 509.855339059 787.31010625 509.575285934 786.68510625 509.122759372 786.232579687 c 2
 473.767420313 750.877240628 l 2
 473.407241298 750.517061614 472.937799847 750.266145034 472.413340155 750.178735086 c 2
 427.100920474 742.626665139 l 1
 425.149561852 739.600364979 423.799036491 737.322544622 423.620545924 736.941568212 c 0
 397.685046872 681.583946131 372.767470565 621.360203569 353.731838985 563.222393846 c 0
 321.155951054 463.730513779 306.525021916 360.385588607 296.356083427 255.990950823 c 1
 312.719868202 225.384860699 324.76372409 193.269343319 331.792441095 162.559232239 c 0
 336.050445888 143.955017935 337.876926944 130.919770048 337.876926944 121.963044963 c 0
 337.876926944 114.754732696 336.809377362 109.84488512 333.936888034 106.972395792 c 2
 298.581548974 71.6170567323 l 2
 297.072767197 70.1082749552 295.111575717 69.3842480394 293.117972332 69.3842480394 c 0
 287.271903478 69.3842480394 281.009647027 74.5686428078 274.803098499 80.7751913355 c 2
 239.44775944 116.130530395 l 2
 224.604044857 130.974244978 210.144660941 152.317827943 210.144660941 154 c 0
 210.144660941 154.099143656 210.150444642 154.196947116 210.16169276 154.293091095 c 0
 214.067891999 187.681569414 217.242923816 221.218161757 220.521568923 254.963164832 c 1
 208.208300255 277.783602091 193.46321148 299.717668797 176.603227699 319.48445351 c 1
 138.54312601 351.602321001 93.2474748636 372.272641586 42.9145631121 372.272641681 c 0
 40.6515163414 372.272641681 38.2840472952 372.22911799 36 372.144660941 c 2
 24 372.144660941 l 2
 20.550814659 372.144660941 19.5327118435 372.055772052 16.6296296296 372.055772052 c 0
 16.5492045192 372.055772052 16.3342416923 371.907955509 15.9753932711 371.907955509 c 0
 15.578529986 371.907955509 15.005681122 372.088749007 14.2442021497 372.850227978 c 2
 -21.1231467447 408.232967145 l 2
 -21.5754457501 408.68546297 -21.8553390593 409.310303126 -21.8553390593 410 c 0
 -21.8553390593 431.216428091 -6.31403702597 453.632469511 17.2657176957 477.212224232 c 2
 52.6210567551 512.567563293 l 2
 79.8716189965 539.818125534 118.370336461 568.908094865 158.533258005 599.27460435 c 0
 194.888353476 626.762081 232.602174938 655.282473255 264.486319753 684.267093383 c 1
 221.40774023 657.351479555 168.970361899 628.431442747 126.491883553 628.431441984 c 0
 114.523271517 628.431441984 103.282256109 630.752959183 93.3085109782 636.171741335 c 1
 74.799969937 637.023938171 54.224351856 644.187180906 40.9216917435 657.489841124 c 2
 5.56635268416 692.845180183 l 2
 -2.72473391672 701.136266784 -8.15649482394 711.890904127 -8.15649482394 724.799468035 c 0
 -8.15649482394 726.545646418 -8.05767483855 728.327028395 -7.85531690744 730.142599668 c 0
 -7.85531690744 740.475997051 -7.50023750117 750.286180402 -6.84447328709 759.954293603 c 1
 -37.1227593718 790.232579687 l 2
 -37.5752859343 790.68510625 -37.8553390593 791.31010625 -37.8553390593 792 c 0
 -37.8553390593 792.68989375 -37.5752859343 793.31489375 -37.1227593718 793.767420313 c 2
 -1.76742031249 829.122759372 l 2
 -1.31489374999 829.575285934 -0.689893749995 829.855339059 6.88338275268e-15 829.855339059 c 2
 6.41475737617 829.838459897 l 2
 7.02041496117 829.838459897 7.62640494294 829.843228864 8.23271300083 829.843228864 c 0
 17.193866923 847.99988849 30.1029162931 864.15828436 44.8837893649 878.939157432 c 2
 80.2391284241 914.29449649 l 2
 95.0931139493 929.148482016 111.850970386 942.624173327 128.483436229 955.342393656 c 0
 128.904186964 955.664125899 129.42993958 955.855339059 130 955.855339059 c 0
 166.182855727 955.855339059 203.630945129 961.842834266 239.886215376 961.855319415 c 0
 240.887609559 961.944187643 248.191559689 962.570406886 255.20843701 962.570406886 c 0
 255.826493828 962.570406886 256.449877809 962.572638293 257.073514294 962.572638293 c 0
 261.988680863 962.572638293 266.91953234 962.434029049 269.381637502 959.971923887 c 2
 304.736976562 924.616584827 l 2
 305.338965243 924.014596146 305.855339059 923.078180137 305.855339059 922 c 0
 305.855339059 921.646950762 305.781998104 921.310896048 305.649733679 921.006253342 c 0
 296.867309136 900.777824048 284.442872646 883.291376989 269.454019369 868.302523713 c 2
 234.098680309 832.947184653 l 2
 191.660322731 790.508827074 128.763490946 768.032914843 68.8116559405 758.971364194 c 1
 68.1878942747 749.574721662 67.8553390593 740.042473026 67.8553390593 730 c 0
17.107301778 377.057102079 m 1
 19.6957183443 377.071577422 20.7214684823 377.144660941 24 377.144660941 c 2
 36 377.144660941 l 2
 38.3463697706 377.231422484 40.588746363 377.272641681 42.9145631121 377.272641681 c 0
 94.7453294311 377.272641681 141.213153898 355.939365517 179.984191693 323.172544382 c 0
 180.088291146 323.08456613 180.185112599 322.988239777 180.273618816 322.88460256 c 0
 197.608886151 302.58570239 212.713221988 280.070317104 225.287549035 256.658741556 c 0
 225.476410472 256.307108918 225.583573497 255.905179911 225.583573497 255.47841915 c 0
 225.583573497 251.768265191 224.866104146 247.963343754 224.510006787 244.288818083 c 0
 221.603586644 214.297819356 218.707443322 184.411186694 215.234993899 154.626230898 c 0
 217.92463116 150.644286628 230.906632571 131.741339265 242.982600066 119.66537102 c 2
 278.337939124 84.3100319605 l 2
 284.496098195 78.1518728898 290.209015334 74.3842480394 293.117972332 74.3842480394 c 0
 293.957708263 74.3842480394 294.492601325 74.5977903328 295.04670835 75.1518973575 c 2
 330.402047408 110.507236416 l 2
 331.566500698 111.671689706 332.876926944 115.108309666 332.876926944 121.963044963 c 0
 332.876926944 130.244476586 331.130431224 143.036710597 326.918237023 161.440767761 c 0
 319.9458585 191.904712871 307.92984129 223.876185877 291.590275949 254.29809702 c 0
 291.401414585 254.649729605 291.294251605 255.051658533 291.294251605 255.478419206 c 0
 291.294251605 255.560865371 291.298251208 255.642384751 291.306066806 255.722793735 c 0
 301.491547293 360.513779355 316.144035361 464.494956426 348.978839133 564.777606154 c 0
 368.096958661 623.167347031 393.085624576 683.553515449 419.090132194 739.058431788 c 0
 419.616271799 740.181442274 421.142027341 742.650192325 423.508638818 746.275859492 c 0
 423.883298853 746.849841575 424.487387881 747.260708135 425.190308263 747.377861532 c 2
 470.799970307 754.979471873 l 1
 503.820498434 788 l 1
 471.142835934 820.6776625 l 1
 424.42003869 812.890529627 l 2
 424.28557065 812.868118287 424.147485842 812.856455482 424.006698535 812.856455482 c 0
 423.179077182 812.856455482 422.708004008 813.262175935 422.136499628 813.679997997 c 0
 421.437297589 813.674553348 418.555826753 812.09002071 415.044331608 808.578528569 c 2
 379.68899255 773.22318951 l 2
 378.695935808 772.230132768 377.216348717 769.708607102 375.282290597 769.708607102 c 0
 374.592396847 769.708607102 373.967396847 769.988660227 373.514870284 770.441186789 c 2
 343.434739423 800.521317651 l 1
 343.434739423 800.521317651 343.264909266 800.712585864 342.458744965 800.712585864 c 0
 336.435231353 800.712585864 317.249621222 788.91159226 292.43156219 772.884738814 c 0
 245.936764903 742.859614723 178.71099478 699.142120103 126.491883544 699.142120103 c 0
 114.523261852 699.142120103 103.282237961 701.463641051 93.3084868401 706.882432593 c 1
 84.0625396013 707.308527422 74.3476178387 709.316305815 65.2664640303 712.84960293 c 0
 62.5172676444 713.91926077 62.5541832947 721.389643968 62.5541832947 724.799468035 c 0
 62.5541832947 726.545646286 62.6530032652 728.327028127 62.8553611884 730.142599256 c 0
 62.8587210715 740.965596963 63.2445697657 751.214625726 63.9614576642 761.32761292 c 0
 64.0447322008 762.502349343 64.9411658586 763.453932027 66.0905648518 763.622167188 c 0
 126.008310938 772.392204152 188.79309633 794.711281923 230.563839684 836.482025278 c 2
 265.919178743 871.837364337 l 2
 280.201659482 886.119845075 292.039141848 902.669377422 300.520573667 921.763306472 c 1
 265.846796877 956.437083261 l 2
 265.715169544 956.568710595 260.932324211 957.570406886 255.20843701 957.570406886 c 0
 247.685202413 957.570406886 240.308135091 956.855339059 240 956.855339059 c 0
 204.089913799 956.855339059 166.89121051 950.947188831 130.847632547 950.856409701 c 1
 114.505434045 938.34204056 98.1697114916 925.155398056 83.7739690493 910.759655866 c 2
 48.4186299899 875.404316806 l 2
 33.5200634306 860.505750247 20.7133783182 844.32554151 12.059128107 826.278358911 c 0
 11.2034305118 824.493925786 8.8980598207 824.838459897 6.41475737617 824.838459897 c 2
 1.03211741658 824.852615851 l 1
 -31.8204984343 792 l 1
 -2.50451001166 762.684011578 l 2
 -2.05198344916 762.231485015 -1.77193032416 761.606485015 -1.77193032416 760.916591265 c 0
 -1.77193032416 760.856844593 -1.7740307311 760.797584626 -1.7781616695 760.738881239 c 0
 -2.47973313768 750.769083302 -2.85533905933 740.67267714 -2.85533905933 730 c 0
 -2.85533905933 728.233488199 -3.15649482394 726.482123587 -3.15649482394 724.799468035 c 0
 -3.15649482394 713.364802809 1.57256883387 703.908645284 9.10119330914 696.380020809 c 2
 44.4565323685 661.02468175 l 2
 56.7162152993 648.764998819 76.486726381 641.826902247 94.0985551347 641.142749918 c 0
 94.501907463 641.127081219 94.8808638156 641.015658884 95.213309265 640.830597839 c 0
 104.433293294 635.698147147 114.974943655 633.431441984 126.491883553 633.431441984 c 0
 171.430317958 633.431441984 230.343495481 668.340734183 275.644624946 697.315193051 c 0
 276.032942963 697.563560024 276.494307333 697.707580514 276.989044048 697.707580514 c 0
 278.368831548 697.707580514 279.489044048 696.587368014 279.489044048 695.207580514 c 0
 279.489044048 694.618994255 279.285200843 694.077642427 278.944320206 693.650330805 c 0
 275.531874967 689.372653059 271.921535009 685.10461088 268.134608476 680.846817973 c 0
 268.075538219 680.780402921 268.01298407 680.717153719 267.947233974 680.657358311 c 0
 235.800126052 651.421668274 197.940188517 622.802023141 161.544649065 595.283967477 c 0
 121.389288815 564.923174959 83.0106209409 535.887446228 56.1558973801 509.032722667 c 2
 20.8005583207 473.677383608 l 2
 -2.16586690284 450.710958385 -16.3364521469 429.543757912 -16.8413774488 411.020554238 c 1
 17.107301778 377.057102079 l 1
314.56705779 661.667874162 m 0
 315.94684529 661.667874162 317.06705779 660.547661662 317.06705779 659.167874162 c 0
 317.06705779 658.817754952 316.994929127 658.484349355 316.864733296 658.181718865 c 0
 303.430751043 626.955430056 291.370835351 595.185423727 283.063835591 563.367569214 c 0
 283.043553499 563.289883808 283.019624387 563.213665569 282.992242462 563.139108706 c 0
 256.536451114 491.103966601 243.505037639 415.767951971 234.436744153 339.52623032 c 0
 234.289305006 338.286634979 233.233341667 337.324094838 231.954339077 337.324094838 c 0
 231.264445327 337.324094838 230.639445327 337.604147963 230.186918764 338.056674526 c 2
 194.717311797 373.526281493 l 2
 158.1450353 410.098557989 113.523411194 436.207707392 63.3044023726 441.843831185 c 0
 62.0568813362 441.983841575 61.0858133823 443.043482147 61.0858133823 444.32813803 c 0
 61.0858133823 444.83064059 61.2343907154 445.298714895 61.489973615 445.690789178 c 0
 64.6202022063 450.492683728 68.2686719193 455.350496487 72.3719386067 460.268530585 c 0
 72.4543686962 460.367328451 72.5442731615 460.4596775 72.6407796139 460.544705345 c 0
 97.3003694609 482.271250252 127.418778063 505.038792304 158.533258019 528.563926242 c 0
 202.452962243 561.770875926 248.357613074 596.493270071 283.567428349 631.703085345 c 2
 312.799637477 660.935294474 l 2
 313.25216404 661.387821037 313.87716404 661.667874162 314.56705779 661.667874162 c 0
307.261940334 648.327916081 m 1
 287.102268974 628.16824472 l 2
 251.526163794 592.592139541 205.469875787 557.78441451 161.544639437 524.573282078 c 0
 130.494475149 501.096776133 100.509337803 478.421055705 76.0891678455 456.920272999 c 0
 73.1018504759 453.332460152 70.3776296773 449.793918505 67.9417559202 446.310033548 c 1
 117.888489919 439.597108623 162.077919206 413.235355333 198.252152421 377.061122119 c 2
 230.08540458 345.22786996 l 1
 239.145005398 419.866954247 252.216709945 493.807448467 278.25579525 564.748452788 c 0
 285.599573624 592.846368259 295.805249653 620.807213673 307.261940334 648.327916081 c 1
EndSplineSet
EndChar
StartChar: uni09A8
Encoding: 2472 2472 133
Width: 543
Flags: HW
HStem: 73.8608 70.7107<303.431 345.594> 158.645 70.7107<70.9725 106.023> 386.852 70.7107<91.0904 207.48> 742.687 70.7107<-12 423.824 496.508 544>
VStem: -3.46287 70.7107<234.83 363.01> 106.645 70.9535<230.192 281.585> 204.645 70.7107<190.399 342.878> 346.645 70.7107<145.185 264.279>
LayerCount: 2
Fore
SplineSet
69.8552959345 288 m 2
 69.8552959345 279.996730005 69.7478123881 271.990834108 69.7478123881 263.997209272 c 0
 69.7478123881 252.857669535 69.9127241558 244.387786727 72.6415201841 236.31322214 c 1
 78.7385612506 233.931241438 85.2969952845 232.395126793 92.0986530933 231.855406821 c 0
 95.9080306598 231.860474176 99.7052475288 232.158095143 103.541873128 232.525761425 c 0
 103.620320432 237.292955864 103.999564285 244.23161966 104.144660941 248 c 0
 104.144660941 249.434843329 104.387500779 250.868034525 104.387500779 252.284816 c 0
 104.387500779 262.334010859 100.129070419 272.011137312 94.5440448248 280.644704069 c 0
 94.2913881312 281.03527138 94.1446609407 281.50063592 94.1446609407 282 c 0
 94.1446609407 282.68989375 94.4247140657 283.31489375 94.8772406282 283.767420313 c 2
 130.232579688 319.122759372 l 2
 130.68510625 319.575285934 131.31010625 319.855339059 132 319.855339059 c 0
 132.68989375 319.855339059 133.31489375 319.575285934 133.767420313 319.122759372 c 2
 169.122759371 283.767420313 l 2
 169.247734756 283.642444928 169.359555377 283.504314781 169.455955175 283.355295931 c 0
 175.309542052 274.306575884 180.098178898 263.765920331 180.098178898 252.284816 c 0
 180.098178898 250.812186218 180.018074145 249.32950762 179.855363323 247.70985358 c 0
 179.855607614 247.033793523 179.857649121 246.275186542 179.857649121 245.44474073 c 0
 179.857649121 234.027340536 179.471759797 209.030836665 168.724022415 198.283098892 c 2
 133.368683355 162.927759831 l 2
 130.438449854 159.99752633 126.607946971 158.144660941 122 158.144660941 c 0
 111.939268072 158.144660941 102.215962676 156.144660941 92 156.144660941 c 0
 91.9338594739 156.144660941 91.8683153974 156.147234957 91.8034625657 156.152288195 c 0
 74.4076631251 157.507743324 58.489942989 164.925284222 47.0722628587 176.342964352 c 2
 11.7169237993 211.698303412 l 2
 1.16083311403 222.254394097 -5.53810176721 236.252453717 -5.85482173529 251.948682482 c 0
 -5.93592634368 255.968121152 -5.96286573053 259.984960816 -5.96286573053 263.997209272 c 0
 -5.96286573053 272.000545229 -5.85533889885 280.00603371 -5.85533889885 287.999095457 c 2
 -5.85533889885 288.121081328 l 2
 -5.85533889885 313.809993265 -0.213906915802 341.313544731 14.6014641647 361.440198879 c 0
 20.3823799098 369.622698254 26.9607200906 377.4838011 34.1954051582 384.718486168 c 2
 69.5507442175 420.073825227 l 2
 93.7690243156 444.292105324 121.821000268 460.062466724 158.352130777 460.062466724 c 0
 179.127264191 460.062466724 199.138370773 456.270274363 218.069777597 449.422582907 c 1
 228.6561248 491.455680556 244.305817275 532.1880905 264.371305368 571.046697019 c 0
 281.068627297 611.852695458 306.442284122 647.111576218 336.488998592 677.158289137 c 2
 371.844337651 712.513628195 l 2
 409.44220314 750.111493685 454.359931132 779.565248777 498.893817423 801.597551312 c 0
 499.000879212 801.650518118 499.112268366 801.696041037 499.227306719 801.733441904 c 0
 512.565436814 806.069888046 525.52938597 815.897858372 542.180917815 815.897858372 c 0
 543.717907832 815.897858372 544.950051417 815.940128267 545.767420313 815.122759372 c 2
 581.122759372 779.767420313 l 2
 581.575285934 779.31489375 581.855339059 778.68989375 581.855339059 778 c 0
 581.855339059 777.31010625 581.575285934 776.68510625 581.122759372 776.232579687 c 2
 545.767420313 740.877240628 l 2
 545.31489375 740.424714066 544.68989375 740.144660941 544 740.144660941 c 0
 543.389674894 740.144660941 542.78066592 740.187180253 542.180917815 740.187180253 c 0
 527.280800777 740.187180253 513.693675668 730.510333381 500.946141896 726.323239969 c 0
 463.966207569 708.013571677 426.766223727 684.553281723 393.864037644 655.596874354 c 1
 371.596277724 630.121648602 352.864095307 601.334288577 339.670563656 569.05568437 c 0
 339.642591507 568.987249191 339.611671681 568.920326708 339.57796236 568.855075105 c 0
 313.497603358 518.370958884 294.949000794 464.726592455 285.356175231 409.20511626 c 1
 290.123789883 405.088300905 294.755851553 400.775551574 299.244193955 396.287209496 c 2
 334.599533014 360.931870436 l 2
 386.928290681 308.603112769 419.855339059 232.37245494 419.855339059 164 c 0
 419.855339059 163.760553926 419.830681137 163.538495098 419.81545928 163.304234392 c 0
 418.947552511 149.947359113 417.785374068 126.644577267 406.463395206 115.322598404 c 2
 371.108056147 79.9672593458 l 2
 367.43739522 76.2965984187 362.604799373 73.9867820183 356.647329001 73.9867820183 c 0
 355.857113481 73.9867820183 355.050412758 74.0263694682 354.226807905 74.1062060583 c 0
 348.104891622 72.3451493221 335.272088187 71.3604244374 334.626323689 71.3607534547 c 0
 314.678163492 71.3709170506 295.437696945 79.5691100806 281.920794567 93.0860124578 c 2
 246.565455509 128.441351517 l 2
 236.638962218 138.367844807 229.794722007 151.192436803 228.160431693 165.717898452 c 0
 222.230453056 218.423147046 202.144660982 264.275845349 202.144660982 321.999541448 c 2
 202.144660982 322.182627592 l 2
 202.144660982 340.819254313 203.165781473 359.324368265 205.158962374 377.654265234 c 1
 190.112986335 382.002249944 174.462739999 384.351788605 158.352130777 384.351788605 c 0
 131.592326001 384.351788605 111.915490066 376.503770748 91.7972578209 361.872262892 c 0
 90.9785336596 360.768808143 90.1546567463 359.630860485 89.369936237 358.520145558 c 0
 75.4807362454 339.651693117 69.8552959345 313.122155713 69.8552959345 288.12198587 c 2
 69.8552959345 288 l 2
64.7478123881 263.997209272 m 0
 64.7478123881 272.000779317 64.8553390593 280.006660835 64.8553390593 288 c 2
 64.8553390593 288.120176786 l 2
 64.8553390593 313.809088723 70.5253708012 341.353200295 85.3407418816 361.479854442 c 0
 86.2683081072 362.792762361 87.2415752269 364.736084689 88.5455388834 365.688670975 c 0
 109.376323355 380.90621137 130.368168849 389.351788605 158.352130777 389.351788605 c 0
 175.693639487 389.351788605 192.503546963 386.70966321 208.596833588 381.853308609 c 0
 209.624887735 381.543080152 210.374445298 380.588103666 210.374445298 379.459440131 c 0
 210.374445298 379.363789531 210.369061963 379.269386354 210.358582006 379.176517313 c 0
 208.233833482 360.347875922 207.14462809 341.33387243 207.14462809 322.182627592 c 2
 207.14462809 322.000458552 l 2
 207.14462809 264.990939656 227.212615855 218.865547228 233.128890189 166.282101548 c 0
 234.624941887 152.985295355 240.88533776 141.191150515 250.100296133 131.976192143 c 2
 285.455635193 96.6208530828 l 2
 298.013199391 84.0632888842 316.04911339 76.3607534547 334.626323689 76.3607534547 c 0
 340.841710716 76.3607534547 347.123738488 77.2203837574 353.291370074 79.0426377473 c 0
 353.516067254 79.1090255214 353.753904918 79.1446609407 354 79.1446609407 c 0
 354.901232592 79.1446609407 355.81370893 78.9867820183 356.647329001 78.9867820183 c 0
 361.267263845 78.9867820183 364.723422408 80.6523068561 367.573215521 83.5020999704 c 2
 402.928554582 118.85743903 l 2
 412.270379637 128.199264086 413.957074004 150.277639747 414.855322735 164.082256556 c 0
 414.828755575 230.894696277 382.438043361 306.023678868 331.064692389 357.397029811 c 2
 295.70935333 392.75236887 l 2
 290.973084641 397.488637559 286.076610971 402.022702429 281.030875931 406.329804239 c 0
 280.493521325 406.788496774 280.152595371 407.47068578 280.152595371 408.231873952 c 0
 280.152595371 408.375422272 280.164720105 408.516161055 280.188000453 408.653121181 c 0
 289.794858718 465.17102806 308.589794967 519.742211332 335.08198349 571.046697027 c 0
 348.527547939 603.905837382 367.6005407 633.170447889 390.207874032 659.010066372 c 0
 390.279704883 659.092167249 390.356815959 659.169533652 390.438675078 659.241633398 c 0
 423.819721544 688.642939029 461.49045508 712.382262989 498.89381741 730.886873187 c 0
 499.000879204 730.939839996 499.112268362 730.985362918 499.227306719 731.022763786 c 0
 512.564752186 735.358987343 525.533802121 745.187180253 542.180917815 745.187180253 c 0
 542.452787232 745.187180253 542.725675032 745.179097721 542.999596155 745.179097721 c 2
 575.820498434 778 l 1
 542.930360433 810.890138001 l 2
 542.679488442 810.89530735 542.429690967 810.897858372 542.180917815 810.897858372 c 0
 527.272322995 810.897858372 513.698140149 801.222424609 500.946142227 797.033918035 c 0
 456.84904785 775.200366135 412.443834023 746.043442918 375.379178277 708.978787571 c 2
 340.023839217 673.623448511 l 2
 310.340243364 643.939852659 285.366529266 609.195310572 268.959885538 569.05568437 c 0
 268.931913389 568.987249191 268.900993563 568.920326708 268.867284242 568.855075105 c 0
 248.516029404 529.460866059 232.750858773 488.142119449 222.248636408 445.508972442 c 0
 221.979918474 444.418127973 220.994315398 443.60811145 219.821015757 443.60811145 c 0
 219.509793409 443.60811145 219.211777326 443.665103929 218.936843846 443.76921255 c 0
 199.746907447 451.035835025 179.443438531 455.062466724 158.352130777 455.062466724 c 0
 123.396190436 455.062466724 96.7003611728 440.153760932 73.0855848425 416.538984601 c 2
 37.7302457832 381.183645542 l 2
 30.7061609544 374.159560714 24.3075485456 366.514097418 18.6878577167 358.559801121 c 0
 4.79865772504 339.691348681 -0.85538202366 313.121251171 -0.85538202366 288.121081328 c 2
 -0.85538202366 288.000904543 l 2
 -0.85538202366 279.997295638 -0.96286573053 271.991132998 -0.96286573053 263.997209272 c 0
 -0.96286573053 260.007796784 -0.936041781775 256.02520134 -0.855856383367 252.051317518 c 0
 -0.567336511328 237.752648753 5.51526998471 224.969638477 15.2517644245 215.233144036 c 2
 50.6071034837 179.877804978 l 2
 61.1205570722 169.364351389 75.906682805 162.429600187 92.0986531001 161.144728725 c 0
 102.121998114 161.158058277 111.812458814 163.144660941 122 163.144660941 c 0
 125.227540017 163.144660941 127.697660058 164.326417784 129.83384273 166.462600457 c 2
 165.189181789 201.817939516 l 2
 174.351284472 210.980042199 174.855339891 237.656075916 174.855339891 247.837918174 c 0
 174.855339891 249.427993101 175.098178898 250.898637345 175.098178898 252.284816 c 0
 175.098178898 262.247860054 170.912449814 271.845187773 165.398068304 280.42243013 c 1
 132 313.820498434 l 1
 99.8261422595 281.646640694 l 1
 105.17701038 272.989398626 109.387500779 263.050560106 109.387500779 252.284816 c 0
 109.387500779 245.113653568 108.522719189 238.123470542 108.522719189 230.257704773 c 0
 108.522719189 228.962960634 107.536339979 227.896779721 106.274689468 227.770269942 c 0
 101.623316234 227.303861701 96.8923924673 226.855339059 92 226.855339059 c 0
 84.3641182676 226.855339059 76.3663059833 229.371643133 69.7135652673 232.098825178 c 0
 69.0662190445 232.364194155 68.5545248978 232.893419453 68.3125711087 233.55241279 c 0
 64.8570677582 242.963935938 64.7478123881 252.395750448 64.7478123881 263.997209272 c 0
272.855339059 322 m 0
 272.855339059 329.1099445 272.998881979 336.201688071 273.290989617 343.272788653 c 0
 273.345984857 344.604068019 274.444138247 345.668017853 275.788829483 345.668017853 c 0
 277.65602823 345.668017853 280.15603335 343.173736977 281.120279425 342.012994993 c 0
 323.327552276 291.204643359 349.144658876 224.539020101 349.144660941 164 c 0
 349.144660941 158.400717675 348.396108925 152.014047769 347.368720497 144.972966498 c 0
 346.876460979 141.599325934 338.108337015 142.071431573 334.626323689 142.071431573 c 0
 324.02086468 142.071431573 313.62914372 144.394523384 304.187175187 148.590845759 c 0
 303.596344311 148.853430496 303.125900575 149.3384591 302.882435364 149.939340187 c 0
 300.868648189 154.909440924 299.492793296 160.192417732 298.871109811 165.717898452 c 0
 292.941122376 218.423225243 272.855339059 264.276143753 272.855339059 322 c 0
277.855339059 322 m 0
 277.855339059 264.990624903 297.923303483 218.865462701 303.839568307 166.282101548 c 0
 304.370147194 161.566352327 305.499743479 157.042751697 307.146906482 152.755708707 c 0
 315.724497264 149.089538506 325.11078576 147.071431729 334.626323689 147.071431573 c 0
 337.303013711 147.071431573 339.992266938 147.230868155 342.679348068 147.55797693 c 0
 343.479246464 153.615822893 343.819956315 159.092046135 344.144644581 164.082253034 c 0
 344.121290094 222.819019768 319.087374323 288.017198675 278.097716734 337.823347083 c 1
 277.935446743 332.560527064 277.855339066 327.285743055 277.855339059 322 c 0
456.166299359 736.154521764 m 2
 445.396708349 736.154521764 434.608322719 735.937924277 423.823881346 735.937924277 c 0
 405.166482557 735.937924277 386.432941802 736.58011355 367.760693518 740.144660941 c 1
 -12 740.144660941 l 2
 -12.68989375 740.144660941 -13.31489375 740.424714066 -13.7674203125 740.877240628 c 2
 -49.1227593718 776.232579687 l 2
 -49.5752859343 776.68510625 -49.8553390593 777.31010625 -49.8553390593 778 c 0
 -49.8553390593 778.68989375 -49.5752859343 779.31489375 -49.1227593718 779.767420313 c 2
 -13.7674203125 815.122759372 l 2
 -13.31489375 815.575285934 -12.68989375 815.855339059 -12 815.855339059 c 2
 368 815.855339059 l 2
 368.162026676 815.855339059 368.320473942 815.839891885 368.473948181 815.810391152 c 0
 386.725068033 812.302171104 405.203636278 811.648602395 423.823881346 811.648602395 c 0
 434.595424188 811.648602395 445.386125248 811.865191452 456.172854549 811.865191452 c 2
 460.00655519 811.855330629 l 2
 460.693852259 811.853562804 461.316327441 811.573852243 461.767420313 811.122759372 c 2
 497.122759372 775.767420313 l 2
 497.575285934 775.31489375 497.855339059 774.68989375 497.855339059 774 c 0
 497.855339059 773.31010625 497.575285934 772.68510625 497.122759372 772.232579687 c 2
 461.767420313 736.877240628 l 2
 461.31489375 736.424714066 460.68989375 736.144660941 460 736.144660941 c 2
 456.166299359 736.154521764 l 2
456.159744169 806.865208312 m 0
 445.392355417 806.865208312 434.606435609 806.648602395 423.823881346 806.648602395 c 0
 405.166482557 806.648602395 386.432941802 807.290791669 367.760693518 810.855339059 c 1
 -10.965159375 810.855339059 l 1
 -43.8204984343 778 l 1
 -10.965159375 745.144660941 l 1
 368 745.144660941 l 2
 368.162026676 745.144660941 368.320473942 745.129213767 368.473948181 745.099713034 c 0
 386.725068033 741.591492985 405.203636278 740.937924277 423.823881346 740.937924277 c 0
 434.593472306 740.937924277 445.381857939 741.154521764 456.166299359 741.154521764 c 0
 457.100139719 741.154521764 458.033980079 741.147322004 458.967820438 741.147322004 c 2
 491.820498434 774 l 1
 458.962499207 806.857999227 l 2
 458.028247527 806.857999227 457.093995848 806.865208312 456.159744169 806.865208312 c 0
EndSplineSet
EndChar
StartChar: uni09AB
Encoding: 2475 2475 135
Width: 751
Flags: HW
HStem: 321.645 70.7107<509.902 593.967> 501.645 70.7107<512.101 590.279> 741.645 70.7107<-1 58.3932 574.763 752>
VStem: 317.645 70.7107<460.048 521.142> 380.645 70.7107<515.619 699.77> 404.718 70.6375<305.866 370.14> 407.645 102.249<101.261 232.419> 596.745 70.7107<394.906 494.48>
LayerCount: 2
Fore
SplineSet
140 277.144660941 m 2
 138.886919633 277.144660941 137.646552089 276.99416909 136.432904709 276.99416909 c 0
 134.746141128 276.99416909 132.474888736 277.202439738 130.700266019 278.977062455 c 2
 95.3449269604 314.332401514 l 2
 93.787729215 315.889599258 93.1446609407 318.158545504 93.1446609407 321 c 0
 93.1446609407 328.702007987 97.0078413473 335.606624149 103.235749698 341.834532499 c 2
 138.591088757 377.18987156 l 2
 154.925628153 393.524410955 188.504825367 406.768924764 224.258370772 421.059184431 c 0
 254.713236735 433.231626011 286.792869609 446.078883821 310.946243449 461.471652311 c 0
 313.599974991 467.146620024 315.063449203 473.108725024 315.141378116 479.463956743 c 0
 293.090605257 527.83094845 265.613740268 573.715850043 228.35910374 610.135273446 c 0
 165.344901017 671.736758073 83.5317125061 713.847565451 -1.71412611151 739.248314919 c 0
 -2.11711821942 739.368394699 -2.47763330691 739.587453623 -2.76742031249 739.877240628 c 2
 -38.1227593718 775.232579687 l 2
 -38.5752859343 775.68510625 -38.8553390593 776.31010625 -38.8553390593 777 c 0
 -38.8553390593 777.68989375 -38.5752859343 778.31489375 -38.1227593718 778.767420313 c 2
 -2.76742031249 814.122759372 l 2
 -2.31489374999 814.575285934 -1.68989375 814.855339059 -1 814.855339059 c 0
 -0.751897429904 814.855339059 -0.512187545841 814.819119886 -0.285873888504 814.751685081 c 0
 93.6972430818 786.747483973 181.079053342 736.003021255 250.009060483 667.073014114 c 2
 285.364399541 631.717675055 l 2
 328.763965665 588.318108932 364.847086651 537.70643681 390.632177684 481.033239907 c 0
 390.775492709 480.718247005 390.855339059 480.368374478 390.855339059 480 c 0
 390.855339059 464.688446695 383.620119286 451.469737147 372.105735379 439.95535324 c 2
 336.750396319 404.600014179 l 2
 313.969222953 381.818840814 274.1265644 364.961673269 235.682709697 349.53358453 c 1
 288.606682922 344.269547636 353.155740614 334.525664802 402.278023807 309.924933776 c 1
 402.959661018 349.559519049 406.54187939 398.692348772 419.762761967 441.391336699 c 1
 416.637400433 447.752526436 413.825550163 454.318120218 411.334303708 461.03858908 c 0
 391.948236207 502.721117359 384.605261471 542.021724168 380.79995778 589.181711668 c 0
 379.475312175 605.598347928 378.144660941 622.057630479 378.144660941 639 c 0
 378.144660941 690.39955948 414.422533146 710.479362102 432.424413413 745.149512053 c 0
 432.543272748 745.378425418 432.696499935 745.586679619 432.877240628 745.767420313 c 2
 468.232579687 781.122759372 l 2
 468.52879439 781.418974074 468.898909577 781.641288291 469.312752291 781.759529067 c 2
 553.312752291 805.759529067 l 2
 553.462523946 805.802320968 553.618022817 805.831481844 553.777818691 805.84558148 c 2
 655.777818691 814.84558148 l 2
 655.851023163 814.852040698 655.925129434 814.855339059 656.079363701 814.854100632 c 2
 752.079363701 811.854100632 l 2
 752.737748459 811.833526108 753.332310665 811.557869019 753.767420313 811.122759372 c 2
 789.122759372 775.767420313 l 2
 789.575285934 775.31489375 789.855339059 774.68989375 789.855339059 774 c 0
 789.855339059 773.31010625 789.575285934 772.68510625 789.122759372 772.232579687 c 2
 753.767420313 736.877240628 l 2
 753.31489375 736.424714066 752.68989375 736.144660941 751.920636299 736.145899368 c 2
 656.072016937 739.141168723 l 1
 554.459288564 730.175339749 l 1
 485.03837224 710.340792227 l 1
 469.038059067 690.360101582 453.855339059 671.592969353 453.855339059 639 c 0
 453.855339059 620.879292187 455.436773775 602.825632963 456.847301594 585.201732502 c 0
 458.717466261 561.826206247 461.75803422 540.231331478 466.885906079 519.269065643 c 1
 493.346813139 545.729972703 l 2
 511.343728989 563.726888553 535.107791524 574.855339059 566 574.855339059 c 0
 566.101618452 574.855339059 566.201828966 574.849263012 566.300287746 574.837454713 c 0
 582.224253986 572.927671288 597.105645443 564.53996217 608.876014351 552.769593263 c 2
 644.23135341 517.414254204 l 2
 659.693631461 501.951976153 669.955202644 480.51513158 669.955202644 459.486190927 c 0
 669.955202644 450.912473143 669.355123441 442.24992211 669.258132269 433.783114914 c 0
 668.97130429 408.744576123 668.956291148 384.275453079 653.760251678 369.079413608 c 2
 618.404912619 333.72407455 l 2
 609.111067348 324.430229279 594.51605488 319.144660941 572 319.144660941 c 0
 571.930980133 319.144660941 571.862609778 319.147463948 571.794996656 319.152962241 c 0
 538.527759192 321.85825065 510.476691848 336.62933555 488.53234261 358.573684788 c 2
 481.134624962 365.971402437 l 1
 478.523797327 340.184217566 477.855339059 315.150072325 477.855339059 294 c 0
 477.855339059 278.023009769 478.568636971 261.990995608 479.300851161 245.882766362 c 1
 499.359621998 225.823995525 512.394011886 200.702716307 512.394011886 167.391935306 c 0
 512.394011886 160.764732976 511.883926598 153.850608941 510.828949832 146.635788492 c 0
 506.722369857 118.550753286 502.810575654 104.173455212 497.808280929 99.1711604855 c 2
 462.452942316 63.8158218731 l 2
 461.357539435 62.7204189909 459.9512189 61.8819743043 458.28861156 61.8819743043 c 0
 456.615135442 61.8819743043 455.237389425 62.7287064138 454.202414379 63.7636814594 c 2
 418.84707532 99.1190205185 l 2
 409.988309628 107.977786211 405.144660941 150.766257645 405.144660941 195 c 0
 405.144660941 207.550755698 404.713659633 220.085403762 404.177551522 232.614345181 c 1
 343.468037602 264.690148446 255.041509601 272.551892107 196.90001121 277.144660941 c 1
 140 277.144660941 l 2
136.432904709 281.99416909 m 0
 137.552514971 281.99416909 138.791080109 282.144660941 140 282.144660941 c 2
 197 282.144660941 l 2
 197.067035756 282.144660941 197.133458807 282.142016773 197.199170457 282.136827134 c 0
 255.786918235 277.509804948 345.658316709 269.738670452 407.794430557 236.352967775 c 0
 408.549126977 235.947469768 409.072054619 235.165600399 409.111383485 234.259189666 c 0
 409.676718091 221.229946539 410.144660941 208.14756834 410.144660941 195 c 0
 410.144660941 150.751055927 416.36154077 108.674236319 422.381915945 102.653861144 c 2
 457.737255005 67.2985220844 l 2
 458.054942056 66.9808350331 458.251131329 66.899739638 458.296974042 66.8840330084 c 0
 458.355804839 66.896962105 458.53542713 66.9679875938 458.918100798 67.3506616047 c 2
 494.273440305 102.706001111 l 2
 497.198546984 105.63110779 501.783127509 119.333746298 505.881728286 147.364211508 c 0
 506.904010462 154.355438783 507.394011886 161.026408028 507.394011886 167.391935306 c 0
 507.394011886 198.328654308 495.880851157 222.233085116 477.062750066 241.051186207 c 0
 476.150935173 241.9630011 474.424359446 243.051258 474.350011308 244.686109237 c 0
 473.602665362 261.119599877 472.855339059 277.549116103 472.855339059 294 c 0
 472.855339059 316.682257432 473.617796507 343.848218717 476.716438363 371.718664856 c 0
 476.855276005 372.967427124 477.9154919 373.939834539 479.201033485 373.939834539 c 0
 479.890927235 373.939834539 480.515927235 373.659781414 480.968453797 373.207254852 c 2
 492.067183236 362.108525413 l 2
 513.266524797 340.909183851 540.153698546 326.768224484 572.102902596 324.144700961 c 0
 593.835617027 324.160728318 606.866808087 329.255653192 614.870071994 337.258915175 c 2
 650.225411054 372.614254234 l 2
 665.570124666 387.958967847 663.493251457 416.415679958 664.600122191 445.53613419 c 0
 664.778255342 450.222605816 664.955202644 454.894687822 664.955202644 459.486190927 c 0
 664.955202644 478.895431772 655.338501441 499.237424923 640.696512785 513.879413579 c 2
 605.341173726 549.234752638 l 2
 594.245750327 560.330176036 580.361272973 568.07354363 565.847804609 569.855249556 c 0
 536.297181605 569.819226527 513.977235027 559.290716177 496.881653764 542.195132078 c 2
 467.305023409 512.618501723 l 2
 466.852496846 512.16597516 466.227496846 511.885922035 465.537603096 511.885922035 c 0
 464.374846488 511.885922035 463.396428394 512.681446673 463.11739965 513.757445115 c 0
 456.89564834 537.749936398 453.685773181 562.221697155 451.516714898 589.106490766 c 0
 450.198734227 605.442445676 448.855339059 622.060639019 448.855339059 639 c 0
 448.855339059 673.729017265 465.519904848 693.956769809 481.633566934 714.086971061 c 0
 481.953562587 714.48672978 482.39367198 714.786256574 482.898971548 714.930627879 c 2
 553.312752291 735.048850949 l 2
 553.462523946 735.09164285 553.618022817 735.120803726 553.777818691 735.134903362 c 2
 655.777818691 744.134903362 l 2
 655.851023163 744.14136258 655.925129434 744.144660941 656.079363701 744.143422514 c 2
 750.997722244 741.17722381 l 1
 783.820498434 774 l 1
 750.933059163 806.887439271 l 1
 656.072016937 809.851846841 l 1
 554.459288564 800.886017867 l 1
 471.30801178 777.128510214 l 1
 436.685068888 742.505567322 l 1
 430.233304494 730.182582049 422.018836381 719.944713964 414.042006921 709.984045868 c 0
 398.07787865 690.049636592 383.144660941 671.397475491 383.144660941 639 c 0
 383.144660941 622.325455319 384.458893785 606.00608394 385.783609358 589.588580536 c 0
 389.569321094 542.671388246 396.808039874 504.095987463 415.912492453 463.052811429 c 0
 415.940750306 462.992103485 415.966641486 462.930075171 415.99004711 462.866845368 c 0
 418.5477811 455.957180577 421.45040073 449.219913191 424.687369139 442.713325821 c 0
 424.853924072 442.378535955 424.947608983 442.001222585 424.947608983 441.602200601 c 0
 424.947608983 441.341568885 424.907639316 441.090198918 424.833500483 440.853891199 c 0
 411.162654499 397.279879073 407.726562478 346.190781226 407.217662527 305.833816045 c 0
 407.200449674 304.468796179 406.086936673 303.365915601 404.717864815 303.365915601 c 0
 404.300123907 303.365915601 403.906176177 303.468596583 403.559905494 303.65007468 c 0
 352.009322174 330.667382826 280.689987886 340.405952923 224.95313028 345.536651286 c 0
 223.681763044 345.653683391 222.684772647 346.724351101 222.684772647 348.026040856 c 0
 222.684772647 349.078601752 223.336656862 349.98010841 224.258370772 350.348506312 c 0
 265.543991719 366.849869664 309.732359019 384.65165813 333.215555695 408.134854805 c 2
 368.570894753 443.490193864 l 2
 379.349304037 454.268603148 385.687380176 466.057280245 385.852048927 479.463735696 c 1
 360.345012384 535.358544954 324.705204148 585.307189165 281.829558917 628.182834429 c 2
 246.474219857 663.53817349 l 2
 178.523589548 731.488803799 92.3942875907 781.666739162 -0.288279045034 809.532219389 c 1
 -32.8204984343 777 l 1
 0.319035001814 743.860466564 l 1
 85.9363785389 718.265387786 168.248652599 675.888991957 231.853337992 613.710262718 c 0
 269.867589909 576.548253934 297.68350697 529.910251945 319.921499588 481.033239858 c 0
 320.064814599 480.718246969 320.144660941 480.368374459 320.144660941 480 c 0
 320.144660941 472.406446829 318.362608139 465.293220664 315.147159258 458.663043339 c 0
 314.945393139 458.247006512 314.631647785 457.895188773 314.245197148 457.646864075 c 0
 289.409488723 441.687982893 256.828030504 428.69140934 226.111174522 416.414253519 c 0
 190.329334535 402.11268485 157.142536215 388.671637767 142.125929383 373.655030935 c 2
 106.770590324 338.299691875 l 2
 101.081513622 332.610615173 98.1446609407 326.924134251 98.1446609407 321 c 0
 98.1446609407 318.846421398 98.6445096988 318.102500026 98.8797675848 317.86724214 c 2
 134.235106645 282.511903079 l 2
 134.50360625 282.243403474 135.11938762 281.99416909 136.432904709 281.99416909 c 0
599.244524525 459.486190927 m 0
 599.244524525 450.912473144 598.644445322 442.24992211 598.547454151 433.783114914 c 0
 598.385621344 419.655981981 598.252738612 405.909574849 595.567298735 393.811998554 c 0
 595.356808109 392.863764177 594.607147838 392.117455261 593.657094108 391.911847993 c 0
 587.416809974 390.561347768 580.25059329 389.855339059 572 389.855339059 c 0
 571.930980133 389.855339059 571.862609778 389.858142066 571.794996656 389.863640359 c 0
 547.518947229 391.837766261 526.004479703 400.236695831 507.625892818 413.17075091 c 0
 507.398883849 413.330510011 507.199610646 413.527077253 507.036780535 413.75174531 c 0
 500.98724153 422.098716092 495.607047732 431.066742055 490.91852695 440.491075408 c 0
 490.75197201 440.825865279 490.658287095 441.203178657 490.658287095 441.60220065 c 0
 490.658287095 441.862832366 490.698256762 442.114202333 490.772395595 442.350510052 c 0
 496.144193038 459.472403391 503.086581239 475.549012457 512.079532026 489.536929272 c 0
 512.289411421 489.863382245 512.573154886 490.137924408 512.907076361 490.336869702 c 0
 527.662790016 499.128097617 545.232559232 504.144660941 566 504.144660941 c 0
 566.101618452 504.144660941 566.201828966 504.138584894 566.300287746 504.126776595 c 0
 573.950717653 503.209249892 581.361441482 500.792108285 588.298516636 497.229057364 c 0
 588.747539031 496.998428515 589.117853574 496.635867201 589.358125188 496.192708498 c 0
 595.576887082 484.722779086 599.244524525 472.04232578 599.244524525 459.486190927 c 0
594.244524525 459.486190927 m 0
 594.244524525 470.808867195 590.980575394 482.469590196 585.327366309 493.128796076 c 1
 579.107779852 496.23477082 572.545173097 498.322446838 565.847804807 499.144571616 c 0
 546.211571754 499.120570626 529.790797455 494.451256875 515.968677691 486.338550587 c 1
 507.603742901 473.205778881 501.010870058 458.050302222 495.847787244 441.815068918 c 1
 500.249082694 433.080285856 505.255963026 424.769030646 510.841856223 417.021804015 c 0
 528.443765344 404.717241406 548.934493701 396.757867318 572.102902574 394.855379187 c 0
 579.311404351 394.860723888 585.579238818 395.427835134 591.018639787 396.476348031 c 1
 593.8473336 410.610353835 593.254838431 428.840413562 593.889444072 445.536134202 c 0
 594.067577224 450.222605825 594.244524525 454.894687826 594.244524525 459.486190927 c 0
EndSplineSet
EndChar
